<svg width="621" height="47" viewBox="0 0 621 47" fill="none" xmlns="http://www.w3.org/2000/svg">
<rect width="620" height="46" transform="translate(0.878906 0.75415)" fill="#EBF4FB"/>
<path d="M295.479 21.0542H292.299C292.699 22.9541 293.239 24.6941 293.999 26.2341C294.699 24.7742 295.179 23.0542 295.479 21.0542ZM299.419 21.0542H297.939C297.439 24.0742 296.639 26.5342 295.439 28.5542C296.539 29.9742 297.959 31.1142 299.739 31.8342C299.179 32.3142 298.439 33.2742 298.099 33.9542C296.379 33.1342 295.019 32.0142 293.899 30.6142C292.579 32.0542 290.919 33.1942 288.819 34.0742C288.559 33.5342 287.839 32.4742 287.379 31.9542C289.619 31.1542 291.279 30.0542 292.539 28.5542C291.779 27.1541 291.199 25.5741 290.719 23.8341C290.439 24.2941 290.139 24.6941 289.819 25.0741C289.579 24.8341 289.119 24.4942 288.679 24.1742V24.8941H286.379V24.2341H283.639V28.1742C283.639 28.8742 283.759 28.9742 284.479 28.9742H286.519C287.119 28.9742 287.239 28.6942 287.319 26.8741C287.799 27.2342 288.799 27.6342 289.439 27.7742C289.159 30.4942 288.539 31.1942 286.739 31.1942H284.139C281.959 31.1942 281.319 30.5542 281.319 28.1942V22.0742H286.379V19.0342H281.339V16.8341H288.679V22.3341C289.939 20.4942 290.819 17.9741 291.319 15.3342L293.799 15.7741C293.579 16.8142 293.319 17.8342 292.999 18.8141H299.419V21.0542ZM314.859 30.1942H306.879V31.5542H314.859V30.1942ZM304.539 33.9942V28.3742H317.299V33.9342H314.859V33.3742H306.879V33.9942H304.539ZM309.599 24.1142H307.039C307.359 24.6141 307.659 25.2342 307.779 25.6542L307.159 25.8141H309.599V24.1142ZM314.739 24.1142H312.039V25.8141H314.839L313.979 25.6741C314.219 25.2342 314.519 24.6141 314.739 24.1142ZM316.339 25.8141H319.939V27.6342H301.839V25.8141H305.379C305.199 25.3142 304.919 24.7541 304.639 24.2941L305.499 24.1142H302.479V22.3742H309.599V21.5741H304.339V19.8941H309.599V19.1541H303.039V17.4141H306.339C306.139 16.8942 305.859 16.2941 305.559 15.8341L307.739 15.2941C308.179 15.8942 308.599 16.7341 308.799 17.3141L308.459 17.4141H312.939L312.839 17.3941C313.179 16.7741 313.619 15.8942 313.819 15.2741L316.319 15.6541C315.939 16.3341 315.599 16.9341 315.279 17.4141H318.739V19.1541H312.039V19.8941H317.459V21.5741H312.039V22.3742H319.339V24.1142H316.599L317.279 24.2142C316.919 24.8542 316.619 25.3941 316.339 25.8141ZM326.159 15.3342L328.259 16.1541C326.999 17.8741 325.139 19.8141 323.479 21.0341C323.179 20.5541 322.599 19.7141 322.239 19.2942C323.659 18.2942 325.319 16.6342 326.159 15.3342ZM326.519 19.5942L328.599 20.3741C328.159 21.1741 327.639 21.9942 327.079 22.7941V34.0342H324.859V25.4742C324.339 26.0342 323.819 26.5142 323.299 26.9542C323.079 26.4342 322.439 25.2342 322.059 24.7342C323.719 23.4742 325.479 21.5342 326.519 19.5942ZM332.359 27.4342L332.339 27.4542C332.859 28.1742 333.539 28.8142 334.319 29.3942C335.079 28.8142 335.719 28.1742 336.239 27.4342H332.359ZM337.859 25.5741L339.339 26.2341C338.659 27.9942 337.599 29.4142 336.299 30.5542C337.739 31.2342 339.419 31.7342 341.279 32.0142C340.779 32.5142 340.159 33.4342 339.859 34.0542C337.739 33.6342 335.899 32.9342 334.339 31.9542C332.679 32.9342 330.739 33.6342 328.679 34.0942C328.459 33.4942 327.959 32.5542 327.539 32.0742C329.319 31.7742 330.999 31.2542 332.459 30.5142C331.879 29.9942 331.339 29.4142 330.879 28.7742C330.279 29.2342 329.679 29.6542 329.079 30.0142C328.759 29.5542 327.999 28.6742 327.539 28.2542C329.239 27.3942 330.879 26.0742 331.999 24.5541L327.999 24.6742L327.799 22.5741C328.699 22.5741 329.739 22.5741 330.879 22.5542C331.159 22.3142 331.459 22.0541 331.739 21.7942C330.819 20.8541 329.419 19.7341 328.219 18.9541L329.639 17.4141C329.979 17.6342 330.359 17.8741 330.739 18.1341C331.519 17.2341 332.359 16.1341 332.879 15.2541L334.939 16.3141C334.079 17.3341 333.099 18.4141 332.259 19.2541C332.679 19.5942 333.079 19.9341 333.399 20.2541C334.619 19.0741 335.759 17.8141 336.619 16.7142L338.719 17.8741C337.279 19.3942 335.499 21.0941 333.819 22.5142L337.399 22.4542C337.079 21.9942 336.739 21.5741 336.399 21.1741L338.239 20.1542C339.399 21.4541 340.719 23.2542 341.279 24.5342L339.279 25.6542C339.119 25.2742 338.899 24.8142 338.619 24.3341C337.299 24.3942 335.939 24.4341 334.639 24.4741C334.399 24.8742 334.139 25.2742 333.859 25.6542H337.479L337.859 25.5741Z" fill="#2587CA"/>
<path d="M0.878906 0.75415L23.8789 23.7542L0.878906 46.7542V0.75415Z" fill="#EAEAEC"/>
</svg>
