<svg width="621" height="47" viewBox="0 0 621 47" fill="none" xmlns="http://www.w3.org/2000/svg">
<rect width="620" height="46" transform="translate(0.878906 0.75415)" fill="#EAEAEC"/>
<path d="M295.479 21.0542H292.299C292.699 22.9541 293.239 24.6941 293.999 26.2341C294.699 24.7742 295.179 23.0542 295.479 21.0542ZM299.419 21.0542H297.939C297.439 24.0742 296.639 26.5342 295.439 28.5542C296.539 29.9742 297.959 31.1142 299.739 31.8342C299.179 32.3142 298.439 33.2742 298.099 33.9542C296.379 33.1342 295.019 32.0142 293.899 30.6142C292.579 32.0542 290.919 33.1942 288.819 34.0742C288.559 33.5342 287.839 32.4742 287.379 31.9542C289.619 31.1542 291.279 30.0542 292.539 28.5542C291.779 27.1541 291.199 25.5741 290.719 23.8341C290.439 24.2941 290.139 24.6941 289.819 25.0741C289.579 24.8341 289.119 24.4942 288.679 24.1742V24.8941H286.379V24.2341H283.639V28.1742C283.639 28.8742 283.759 28.9742 284.479 28.9742H286.519C287.119 28.9742 287.239 28.6942 287.319 26.8741C287.799 27.2342 288.799 27.6342 289.439 27.7742C289.159 30.4942 288.539 31.1942 286.739 31.1942H284.139C281.959 31.1942 281.319 30.5542 281.319 28.1942V22.0742H286.379V19.0342H281.339V16.8341H288.679V22.3341C289.939 20.4942 290.819 17.9741 291.319 15.3342L293.799 15.7741C293.579 16.8142 293.319 17.8342 292.999 18.8141H299.419V21.0542ZM314.859 30.1942H306.879V31.5542H314.859V30.1942ZM304.539 33.9942V28.3742H317.299V33.9342H314.859V33.3742H306.879V33.9942H304.539ZM309.599 24.1142H307.039C307.359 24.6141 307.659 25.2342 307.779 25.6542L307.159 25.8141H309.599V24.1142ZM314.739 24.1142H312.039V25.8141H314.839L313.979 25.6741C314.219 25.2342 314.519 24.6141 314.739 24.1142ZM316.339 25.8141H319.939V27.6342H301.839V25.8141H305.379C305.199 25.3142 304.919 24.7541 304.639 24.2941L305.499 24.1142H302.479V22.3742H309.599V21.5741H304.339V19.8941H309.599V19.1541H303.039V17.4141H306.339C306.139 16.8942 305.859 16.2941 305.559 15.8341L307.739 15.2941C308.179 15.8942 308.599 16.7341 308.799 17.3141L308.459 17.4141H312.939L312.839 17.3941C313.179 16.7741 313.619 15.8942 313.819 15.2741L316.319 15.6541C315.939 16.3341 315.599 16.9341 315.279 17.4141H318.739V19.1541H312.039V19.8941H317.459V21.5741H312.039V22.3742H319.339V24.1142H316.599L317.279 24.2142C316.919 24.8542 316.619 25.3941 316.339 25.8141ZM325.979 28.0942H329.319V26.7942H325.979V28.0942ZM329.319 23.7942H325.979V25.0341H329.319V23.7942ZM331.619 21.7942V31.6342C331.619 32.6542 331.419 33.2142 330.739 33.5542C330.099 33.8942 329.179 33.9342 327.959 33.9342C327.839 33.3342 327.499 32.4542 327.199 31.9142C327.939 31.9542 328.739 31.9542 328.999 31.9342C329.239 31.9342 329.319 31.8542 329.319 31.6142V29.8342H325.979V33.8742H323.719V21.7942H331.619ZM337.319 31.3342V21.4342H339.659V31.3742C339.659 32.5542 339.439 33.1342 338.639 33.5142C337.879 33.8742 336.799 33.9342 335.359 33.9142C335.239 33.2742 334.859 32.2942 334.499 31.6742C335.519 31.7142 336.559 31.7142 336.899 31.6942C337.219 31.6942 337.319 31.6142 337.319 31.3342ZM335.519 21.9942V30.1542H333.339V21.9942H335.519ZM336.659 18.2741H340.719V20.4142H322.619V18.2741H326.879C326.519 17.5941 325.939 16.7341 325.379 16.0742L327.639 15.2941C328.359 16.0541 329.159 17.1341 329.499 17.8941L328.399 18.2741H333.959C334.559 17.3541 335.199 16.1741 335.599 15.2541L338.179 16.0141C337.699 16.7941 337.159 17.5741 336.659 18.2741Z" fill="#666668"/>
</svg>
