<svg width="281" height="89" viewBox="0 0 281 89" fill="none" xmlns="http://www.w3.org/2000/svg">
<rect x="4.125" y="4.7854" width="80" height="80" rx="40" fill="white"/>
<path d="M43.0479 25.0603L39.8854 21.9207L40.8479 20.9582L43.0479 23.1124L47.2646 18.8957L48.2271 19.8812L43.0479 25.0603ZM37.25 28.452C36.8833 28.452 36.5625 28.3145 36.2875 28.0395C36.0125 27.7645 35.875 27.4437 35.875 27.077V12.8687C35.875 12.502 36.0125 12.1812 36.2875 11.9062C36.5625 11.6312 36.8833 11.4937 37.25 11.4937H38.7396V10.1187H40.2292V11.4937H48.0208V10.1187H49.5104V11.4937H51C51.3667 11.4937 51.6875 11.6312 51.9625 11.9062C52.2375 12.1812 52.375 12.502 52.375 12.8687V27.077C52.375 27.4437 52.2375 27.7645 51.9625 28.0395C51.6875 28.3145 51.3667 28.452 51 28.452H37.25ZM37.25 27.077H51V17.2228H37.25V27.077ZM37.25 15.8478H51V12.8687H37.25V15.8478Z" fill="#2E7CB3"/>
<path d="M31.416 47.5094C29.544 47.5094 28.296 46.7734 27.416 45.8934L28.504 44.3894C29.176 45.0454 30.008 45.5894 31.112 45.5894C32.344 45.5894 33.208 44.8054 33.208 43.4134C33.208 42.0374 32.408 41.2694 31.208 41.2694C30.504 41.2694 30.12 41.4454 29.432 41.8934L28.36 41.1894L28.68 35.4294H35.016V37.4134H30.712L30.488 39.9254C30.968 39.7014 31.368 39.5894 31.912 39.5894C33.896 39.5894 35.56 40.7734 35.56 43.3494C35.56 45.9894 33.608 47.5094 31.416 47.5094ZM41.1419 47.5094C38.7259 47.5094 37.1259 45.3974 37.1259 41.3174C37.1259 37.2214 38.7259 35.2214 41.1419 35.2214C43.5579 35.2214 45.1419 37.2374 45.1419 41.3174C45.1419 45.3974 43.5579 47.5094 41.1419 47.5094ZM41.1419 45.6694C42.1659 45.6694 42.9179 44.6454 42.9179 41.3174C42.9179 38.0054 42.1659 37.0454 41.1419 37.0454C40.1179 37.0454 39.3499 38.0054 39.3499 41.3174C39.3499 44.6454 40.1179 45.6694 41.1419 45.6694ZM49.2358 42.7254C47.5398 42.7254 46.3558 41.3334 46.3558 38.9494C46.3558 36.5814 47.5398 35.2214 49.2358 35.2214C50.9318 35.2214 52.1318 36.5814 52.1318 38.9494C52.1318 41.3334 50.9318 42.7254 49.2358 42.7254ZM49.2358 41.3974C49.9238 41.3974 50.4678 40.6934 50.4678 38.9494C50.4678 37.2054 49.9238 36.5494 49.2358 36.5494C48.5478 36.5494 48.0198 37.2054 48.0198 38.9494C48.0198 40.6934 48.5478 41.3974 49.2358 41.3974ZM49.6358 47.5094L56.0678 35.2214H57.4598L51.0278 47.5094H49.6358ZM57.8438 47.5094C56.1638 47.5094 54.9638 46.1014 54.9638 43.7334C54.9638 41.3494 56.1638 39.9894 57.8438 39.9894C59.5238 39.9894 60.7398 41.3494 60.7398 43.7334C60.7398 46.1014 59.5238 47.5094 57.8438 47.5094ZM57.8438 46.1654C58.5318 46.1654 59.0758 45.4774 59.0758 43.7334C59.0758 41.9894 58.5318 41.3174 57.8438 41.3174C57.1558 41.3174 56.6278 41.9894 56.6278 43.7334C56.6278 45.4774 57.1558 46.1654 57.8438 46.1654ZM20.905 61.0614H25.609V62.5014H14.701V61.0614H19.273V54.8574H15.349V53.3694H24.937V54.8574H20.905V61.0614ZM28.885 58.4214V59.2374H30.373V58.4214H28.885ZM30.373 54.7854H28.885V55.4814H30.373V54.7854ZM28.885 56.5734V57.3294H30.373V56.5734H28.885ZM32.413 59.2374V60.4854H26.521V59.2374H27.601V54.7854H26.665V53.5374H27.601V52.2654H28.885V53.5374H30.373V52.2654H31.681V53.5374H32.497V54.7854H31.681V59.2374H32.413ZM28.009 60.5694L29.341 60.9654C28.921 61.8414 28.213 62.7774 27.565 63.3654C27.301 63.1134 26.749 62.7054 26.425 62.5134C27.049 62.0454 27.673 61.2894 28.009 60.5694ZM34.225 58.0854H35.965V56.6094H34.237V57.0534C34.237 57.3654 34.237 57.7134 34.225 58.0854ZM35.965 53.9454H34.237V55.3494H35.965V53.9454ZM37.345 52.6494V61.7454C37.345 62.4534 37.213 62.8254 36.793 63.0534C36.373 63.2814 35.761 63.3174 34.873 63.3054C34.825 62.9334 34.645 62.3094 34.465 61.9494C34.981 61.9854 35.557 61.9734 35.725 61.9734C35.905 61.9734 35.965 61.9134 35.965 61.7214V59.3574H34.141C34.009 60.7734 33.709 62.2734 33.061 63.3534C32.833 63.1014 32.245 62.6694 31.933 62.5494C31.969 62.4774 32.017 62.4174 32.053 62.3454L31.057 62.9094C30.817 62.4414 30.241 61.6494 29.773 61.0974L30.853 60.5094C31.285 60.9894 31.849 61.6494 32.149 62.1414C32.845 60.6414 32.905 58.6134 32.905 57.0534V52.6494H37.345ZM43.957 52.6614C43.897 52.9614 43.813 53.3574 43.657 53.8614C44.797 53.8014 45.997 53.6934 47.053 53.5134L47.041 54.9054C45.901 55.0734 44.425 55.1694 43.129 55.2054C42.925 55.6494 42.685 56.0814 42.445 56.4294C42.757 56.2854 43.405 56.1894 43.801 56.1894C44.533 56.1894 45.133 56.5014 45.397 57.1134C46.021 56.8254 46.525 56.6214 47.017 56.4054C47.485 56.2014 47.905 56.0094 48.349 55.7814L48.949 57.1734C48.565 57.2814 47.929 57.5214 47.521 57.6774C46.981 57.8934 46.297 58.1574 45.565 58.4934C45.577 59.1654 45.601 60.0534 45.613 60.6054H44.173C44.209 60.2454 44.221 59.6694 44.233 59.1414C43.333 59.6574 42.853 60.1254 42.853 60.7254C42.853 61.3854 43.417 61.5654 44.593 61.5654C45.613 61.5654 46.945 61.4334 48.001 61.2294L47.953 62.7774C47.161 62.8854 45.685 62.9814 44.557 62.9814C42.673 62.9814 41.281 62.5254 41.281 60.9774C41.281 59.4414 42.721 58.4814 44.089 57.7734C43.909 57.4734 43.585 57.3654 43.249 57.3654C42.577 57.3654 41.833 57.7494 41.377 58.1934C41.017 58.5534 40.669 58.9854 40.261 59.5134L38.977 58.5534C40.237 57.3894 41.089 56.3214 41.629 55.2414C41.569 55.2414 41.521 55.2414 41.473 55.2414C40.981 55.2414 40.105 55.2174 39.445 55.1694V53.7654C40.057 53.8614 40.945 53.9094 41.557 53.9094C41.737 53.9094 41.941 53.9094 42.133 53.9094C42.265 53.4294 42.349 52.9614 42.373 52.5294L43.957 52.6614ZM53.029 54.1134V56.1774C53.029 58.2294 52.849 61.3494 51.697 63.3294C51.421 63.0894 50.785 62.7414 50.401 62.6094C51.493 60.7614 51.589 58.0734 51.589 56.1774V52.7334H61.369V54.1134H53.029ZM57.745 61.6374H61.597V62.9694H52.633V61.6374H56.305V58.3494H53.437V56.9934H56.305V54.5934H57.745V56.9934H60.829V58.3494H57.745V61.6374ZM62.929 59.1414L64.021 59.3214C63.925 60.4614 63.661 61.6374 63.313 62.4054C63.085 62.2614 62.593 62.0214 62.317 61.9254C62.665 61.2174 62.833 60.1494 62.929 59.1414ZM65.413 59.3574L66.349 59.0814C66.649 59.7534 66.889 60.6414 66.961 61.2414L65.965 61.5534C65.917 60.9534 65.677 60.0534 65.413 59.3574ZM72.181 59.5854V58.5774H70.501V59.5854H72.181ZM70.501 61.7214H72.181V60.6774H70.501V61.7214ZM73.597 56.6094H71.977C71.893 56.9094 71.821 57.1974 71.737 57.4734H73.393V63.2334H72.181V62.8374H70.501V63.2934H69.337V57.4734H70.465C70.513 57.1974 70.573 56.8974 70.609 56.6094H69.121V55.7814C68.989 56.1774 68.845 56.5854 68.677 56.9814V63.3054H67.525V59.1294C67.393 59.3094 67.261 59.4774 67.129 59.6334C66.973 59.3694 66.649 58.9134 66.433 58.6734L66.541 58.5294L66.109 58.7214C66.097 58.6014 66.073 58.4574 66.037 58.3134L65.353 58.3734V63.3294H64.153V58.4694L62.569 58.5894L62.425 57.3534C62.713 57.3414 63.025 57.3174 63.373 57.3054C63.529 57.0894 63.697 56.8494 63.853 56.6094C63.541 56.0574 62.953 55.3854 62.461 54.8694L63.145 53.9454C63.241 54.0294 63.337 54.1254 63.433 54.2214C63.769 53.5614 64.105 52.7454 64.297 52.1334L65.509 52.5534C65.077 53.3814 64.585 54.3294 64.165 55.0014C64.309 55.1694 64.441 55.3374 64.549 55.4934C64.945 54.8214 65.305 54.1254 65.581 53.5374L66.709 54.0534C66.085 55.0734 65.305 56.2734 64.585 57.2334L65.689 57.1614C65.581 56.8494 65.449 56.5374 65.317 56.2614L66.265 55.8894C66.565 56.4894 66.853 57.2214 67.009 57.8094C67.429 57.0654 67.753 56.1894 67.969 55.3974H66.817V53.2134H69.433V52.0974H70.873V53.2134H73.573V55.2294H72.253V54.3894H68.077V54.9774L69.277 55.2774L69.217 55.4934H73.597V56.6094Z" fill="#2E7CB3"/>
<rect x="2.625" y="3.2854" width="83" height="83" rx="41.5" stroke="#2587CA" stroke-width="3"/>
<rect x="2.125" y="2.7854" width="84" height="84" rx="42" stroke="white" stroke-width="4"/>
<rect x="100.125" y="4.7854" width="80" height="80" rx="40" fill="white"/>
<path d="M131.943 24.7853L130.958 23.7999L137.65 17.1311L141.477 20.9582L147 15.4353H144.089V14.0603H149.291V19.2624H147.939V16.4436L141.454 22.9291L137.627 19.102L131.943 24.7853Z" fill="#2E7CB3"/>
<path d="M127.704 47.5094C125.448 47.5094 123.752 46.1974 123.752 44.3414C123.752 42.8214 124.68 41.8294 125.784 41.2534V41.1734C124.872 40.5174 124.216 39.6214 124.216 38.3574C124.216 36.4534 125.736 35.2374 127.784 35.2374C129.88 35.2374 131.224 36.5014 131.224 38.3894C131.224 39.5574 130.488 40.5334 129.704 41.0934V41.1734C130.792 41.7654 131.688 42.7254 131.688 44.3414C131.688 46.1334 130.104 47.5094 127.704 47.5094ZM128.456 40.5174C129.032 39.9094 129.304 39.2374 129.304 38.5334C129.304 37.5734 128.728 36.8854 127.736 36.8854C126.936 36.8854 126.296 37.4134 126.296 38.3574C126.296 39.4774 127.208 40.0214 128.456 40.5174ZM127.768 45.8454C128.776 45.8454 129.496 45.2854 129.496 44.2614C129.496 43.0294 128.408 42.5174 126.872 41.8934C126.232 42.4054 125.784 43.2054 125.784 44.0854C125.784 45.1574 126.664 45.8454 127.768 45.8454ZM137.142 47.5094C134.726 47.5094 133.126 45.3974 133.126 41.3174C133.126 37.2214 134.726 35.2214 137.142 35.2214C139.558 35.2214 141.142 37.2374 141.142 41.3174C141.142 45.3974 139.558 47.5094 137.142 47.5094ZM137.142 45.6694C138.166 45.6694 138.918 44.6454 138.918 41.3174C138.918 38.0054 138.166 37.0454 137.142 37.0454C136.118 37.0454 135.35 38.0054 135.35 41.3174C135.35 44.6454 136.118 45.6694 137.142 45.6694ZM145.236 42.7254C143.54 42.7254 142.356 41.3334 142.356 38.9494C142.356 36.5814 143.54 35.2214 145.236 35.2214C146.932 35.2214 148.132 36.5814 148.132 38.9494C148.132 41.3334 146.932 42.7254 145.236 42.7254ZM145.236 41.3974C145.924 41.3974 146.468 40.6934 146.468 38.9494C146.468 37.2054 145.924 36.5494 145.236 36.5494C144.548 36.5494 144.02 37.2054 144.02 38.9494C144.02 40.6934 144.548 41.3974 145.236 41.3974ZM145.636 47.5094L152.068 35.2214H153.46L147.028 47.5094H145.636ZM153.844 47.5094C152.164 47.5094 150.964 46.1014 150.964 43.7334C150.964 41.3494 152.164 39.9894 153.844 39.9894C155.524 39.9894 156.74 41.3494 156.74 43.7334C156.74 46.1014 155.524 47.5094 153.844 47.5094ZM153.844 46.1654C154.532 46.1654 155.076 45.4774 155.076 43.7334C155.076 41.9894 154.532 41.3174 153.844 41.3174C153.156 41.3174 152.628 41.9894 152.628 43.7334C152.628 45.4774 153.156 46.1654 153.844 46.1654ZM115.333 55.1574V54.3774H110.845V53.0814H115.333V52.1334H116.809V53.0814H121.417V54.3774H116.809V55.1574H120.313V56.4054H111.985V55.1574H115.333ZM121.261 59.5494H119.821V58.2774H112.381V59.5494H111.001V56.9934H121.261V59.5494ZM113.809 58.6494H115.297C115.105 61.0614 114.577 62.5854 111.301 63.3654C111.169 62.9934 110.809 62.4294 110.521 62.1294C113.365 61.5774 113.665 60.4974 113.809 58.6494ZM118.693 61.9014H119.893C120.289 61.9014 120.361 61.6974 120.409 60.4734C120.697 60.7014 121.309 60.9174 121.693 61.0134C121.537 62.7414 121.165 63.1854 120.037 63.1854H118.489C117.097 63.1854 116.749 62.7774 116.749 61.4934V58.6494H118.189V61.4814C118.189 61.8534 118.261 61.9014 118.693 61.9014ZM128.509 61.3014H133.585V62.7414H122.677V61.3014H126.973V52.2654H128.509V55.6974H132.745V57.1494H128.509V61.3014ZM145.585 54.1614C145.453 54.3174 145.225 54.6054 145.117 54.7854C144.553 55.7214 143.413 57.2334 142.237 58.0734L140.989 57.0774C141.949 56.4894 142.885 55.4334 143.197 54.8454H136.945C136.441 54.8454 136.045 54.8814 135.481 54.9294V53.2614C135.937 53.3334 136.441 53.3814 136.945 53.3814H143.413C143.749 53.3814 144.409 53.3454 144.637 53.2734L145.585 54.1614ZM140.689 55.7814C140.689 58.7574 140.629 61.2054 137.365 62.9574L135.961 61.8174C136.345 61.6854 136.777 61.4814 137.221 61.1574C138.745 60.1014 139.033 58.8294 139.033 56.8614C139.033 56.4894 139.009 56.1654 138.949 55.7814H140.689ZM152.185 55.1574C152.413 55.6734 153.001 57.2334 153.169 57.7854L151.729 58.2894C151.585 57.7014 151.057 56.2494 150.757 55.6254L152.185 55.1574ZM156.613 56.0334C156.469 56.4174 156.397 56.6694 156.325 56.9094C156.013 58.1214 155.509 59.3694 154.693 60.4254C153.577 61.8654 152.077 62.8734 150.673 63.4014L149.413 62.1174C150.733 61.7694 152.401 60.8574 153.397 59.6094C154.213 58.5894 154.789 56.9934 154.933 55.4934L156.613 56.0334ZM149.401 55.7934C149.701 56.4054 150.277 57.8574 150.517 58.5294L149.053 59.0814C148.849 58.4334 148.249 56.8374 147.961 56.3094L149.401 55.7934ZM167.773 53.4894C167.773 53.8614 168.085 54.1734 168.469 54.1734C168.841 54.1734 169.153 53.8614 169.153 53.4894C169.153 53.1054 168.841 52.7934 168.469 52.7934C168.085 52.7934 167.773 53.1054 167.773 53.4894ZM167.029 53.4894C167.029 52.6974 167.677 52.0494 168.469 52.0494C169.249 52.0494 169.897 52.6974 169.897 53.4894C169.897 54.2694 169.249 54.9174 168.469 54.9174C168.421 54.9174 168.361 54.9174 168.313 54.9054C168.277 55.0374 168.253 55.1574 168.217 55.2654C167.941 56.4414 167.425 58.3014 166.417 59.6334C165.337 61.0734 163.729 62.2614 161.593 62.9574L160.285 61.5174C162.661 60.9654 164.017 59.9214 164.989 58.6974C165.781 57.7014 166.237 56.3454 166.393 55.3134H160.813C160.261 55.3134 159.685 55.3374 159.385 55.3614V53.6694C159.733 53.7174 160.417 53.7654 160.813 53.7654H166.369C166.537 53.7654 166.801 53.7534 167.053 53.7174C167.041 53.6454 167.029 53.5734 167.029 53.4894Z" fill="#2E7CB3"/>
<rect x="98.625" y="3.2854" width="83" height="83" rx="41.5" stroke="#2587CA" stroke-width="3"/>
<rect x="98.125" y="2.7854" width="84" height="84" rx="42" stroke="white" stroke-width="4"/>
<rect x="196.125" y="4.7854" width="80" height="80" rx="40" fill="white"/>
<path d="M239.791 18.3687C240.051 18.3687 240.269 18.2808 240.444 18.1051C240.62 17.9294 240.708 17.7117 240.708 17.452C240.708 17.1923 240.62 16.9746 240.444 16.7989C240.269 16.6232 240.051 16.5353 239.791 16.5353C239.532 16.5353 239.314 16.6232 239.138 16.7989C238.963 16.9746 238.875 17.1923 238.875 17.452C238.875 17.7117 238.963 17.9294 239.138 18.1051C239.314 18.2808 239.532 18.3687 239.791 18.3687ZM232.458 16.077H237.041V14.702H232.458V16.077ZM229.25 27.5353C228.73 25.7937 228.218 24.0558 227.714 22.3218C227.21 20.5877 226.958 18.8117 226.958 16.9937C226.958 15.5881 227.447 14.3964 228.425 13.4187C229.402 12.4409 230.594 11.952 232 11.952H236.583C237.026 11.3714 237.565 10.9207 238.199 10.5999C238.833 10.2791 239.516 10.1187 240.25 10.1187C240.632 10.1187 240.956 10.2523 241.224 10.5197C241.491 10.7871 241.625 11.1117 241.625 11.4937C241.625 11.5853 241.613 11.677 241.59 11.7687C241.567 11.8603 241.541 11.9443 241.51 12.0207C241.449 12.1888 241.392 12.3607 241.338 12.5364C241.285 12.7121 241.243 12.8916 241.212 13.0749L243.298 15.1603H245.291V21.5541L242.702 22.402L241.166 27.5353H236.125V25.702H234.291V27.5353H229.25ZM230.281 26.1603H232.916V24.327H237.5V26.1603H240.135L241.579 21.3478L243.916 20.5457V16.5353H242.725L239.791 13.602C239.807 13.22 239.856 12.8496 239.94 12.4905C240.024 12.1315 240.112 11.7687 240.204 11.402C239.623 11.5548 239.073 11.7801 238.554 12.078C238.034 12.3759 237.637 12.7923 237.362 13.327H232C230.987 13.327 230.123 13.6849 229.407 14.4008C228.691 15.1167 228.333 15.9809 228.333 16.9937C228.333 18.5697 228.555 20.1095 228.998 21.6132C229.441 23.1168 229.868 24.6325 230.281 26.1603Z" fill="#2E7CB3"/>
<path d="M205.965 44.4054H208.041V42.5814H205.965V44.4054ZM213.621 44.4054V45.7734H209.517V48.3414H208.041V45.7734H202.641V44.4054H204.537V41.2494H208.041V39.8214H205.473C204.981 40.6734 204.405 41.4414 203.841 42.0054C203.565 41.7654 202.953 41.2854 202.605 41.0814C203.685 40.1694 204.609 38.6334 205.125 37.0854L206.577 37.4574C206.469 37.7934 206.337 38.1174 206.181 38.4414H212.961V39.8214H209.517V41.2494H212.685V42.5814H209.517V44.4054H213.621ZM218.361 38.6094H216.513V39.2454H218.361V38.6094ZM216.513 40.8894H218.361V40.2054H216.513V40.8894ZM219.693 41.9094H216.513V48.3294H215.097V37.5774H219.693V41.9094ZM221.877 40.9134H223.785V40.2054H221.877V40.9134ZM223.785 38.6094H221.877V39.2454H223.785V38.6094ZM219.105 46.1694H221.085V45.4254H219.105V46.1694ZM221.085 44.4054V43.6854H219.105V44.4054H221.085ZM225.225 37.5774V46.6374C225.225 47.4054 225.069 47.8254 224.589 48.0534C224.121 48.2934 223.425 48.3294 222.393 48.3294C222.357 48.0294 222.225 47.5854 222.081 47.2134H219.105V47.8254H217.809V42.6414H218.397V42.6294L222.429 42.6414V46.8894C222.897 46.9014 223.341 46.9014 223.497 46.8894C223.713 46.8894 223.785 46.8174 223.785 46.6254V41.9334H220.521V37.5774H225.225ZM234.701 43.5734H233.453C233.277 44.4694 233.005 45.2214 232.605 45.8454C233.101 46.1334 233.565 46.4214 233.933 46.6934C235.117 46.0694 236.045 45.2694 236.749 44.2774C236.301 43.3334 235.949 42.2774 235.661 41.1254C235.437 41.5414 235.181 41.9254 234.925 42.2774C234.861 42.2134 234.797 42.1334 234.701 42.0374V43.5734ZM230.109 43.5734L229.645 44.4214C230.125 44.6134 230.589 44.8054 231.053 45.0294C231.309 44.6294 231.517 44.1494 231.661 43.5734H230.109ZM238.717 38.3734H236.877C237.101 39.7174 237.421 40.9814 237.853 42.1334C238.253 41.0454 238.541 39.7814 238.717 38.3734ZM241.581 38.3734H240.685C240.349 40.7414 239.805 42.7254 238.941 44.3414C239.677 45.4774 240.605 46.3894 241.773 46.9974C241.341 47.3814 240.749 48.1174 240.461 48.6454C239.373 47.9894 238.493 47.1414 237.773 46.1014C236.893 47.1574 235.789 48.0214 234.397 48.7254C234.285 48.4534 234.045 48.0214 233.789 47.6374L233.069 48.3734C232.637 48.0054 232.061 47.5894 231.405 47.1734C230.461 47.8774 229.181 48.3414 227.469 48.6934C227.357 48.1494 227.021 47.5094 226.717 47.1254C228.013 46.9494 229.005 46.6934 229.757 46.2614C229.469 46.1014 229.165 45.9574 228.861 45.8294L228.685 46.1334L227.021 45.6214C227.373 45.0614 227.773 44.3414 228.173 43.5734H226.653V42.0374H228.973C229.165 41.6374 229.357 41.2534 229.517 40.9014L229.869 40.9814V39.4454C229.133 40.1814 228.269 40.8534 227.469 41.3014C227.261 40.8854 226.861 40.2614 226.509 39.9254C227.485 39.5254 228.557 38.7574 229.325 37.9254H226.829V36.4214H228.045C227.901 35.8774 227.549 35.1414 227.213 34.5654L228.589 33.9894C229.005 34.5974 229.421 35.4134 229.549 35.9734L228.525 36.4214H229.869V33.7334H231.613V36.4214H232.877L231.821 35.9574C232.189 35.3814 232.637 34.5334 232.893 33.9254L234.493 34.5654C233.997 35.2534 233.501 35.9254 233.117 36.4214H234.637V37.9254H232.013C232.781 38.3574 233.917 39.0294 234.269 39.2694L233.261 40.5814C232.909 40.2454 232.237 39.6854 231.613 39.1894V41.1254H230.589L231.277 41.2694L230.893 42.0374H234.701C234.333 41.6694 233.757 41.1734 233.405 40.9334C234.765 39.3014 235.533 36.5814 235.917 33.7334L237.837 33.9894C237.709 34.8854 237.533 35.7654 237.325 36.6134H241.581V38.3734ZM251.229 37.5414H253.453C253.613 37.1734 253.773 36.7574 253.885 36.3734H250.717C250.925 36.7574 251.117 37.1894 251.229 37.5414ZM247.693 34.9974H251.341V33.8294H253.245V34.9974H257.165V36.3734H255.885C255.661 36.7894 255.437 37.1894 255.229 37.5414H257.629V39.0134H247.053V37.5414H249.453C249.341 37.1894 249.181 36.7894 249.005 36.4694L249.517 36.3734H247.693V34.9974ZM254.653 41.4294V40.7734H250.045V41.4294H254.653ZM254.653 43.1094V42.4374H250.045V43.1094H254.653ZM256.541 39.6374V44.2454H252.973C253.389 44.5814 253.773 44.9334 254.013 45.2374L252.781 46.2134C252.429 45.7014 251.613 44.9654 250.925 44.5014L251.261 44.2454H248.237V39.6374H256.541ZM246.125 33.7654L247.869 34.3414C247.437 35.4294 246.877 36.5654 246.253 37.6214V48.6614H244.461V40.2614C244.093 40.7254 243.709 41.1574 243.325 41.5414C243.165 41.0774 242.669 40.0534 242.333 39.5734C243.821 38.1974 245.277 35.9894 246.125 33.7654ZM247.773 48.3254L246.381 47.3494C247.053 46.7254 247.629 45.7334 247.917 44.8374L249.389 45.4294C249.037 46.4214 248.525 47.5734 247.773 48.3254ZM251.901 47.1734H253.309C253.693 47.1734 253.773 47.0454 253.837 46.1174C254.141 46.3734 254.861 46.5974 255.325 46.7094C255.149 48.2454 254.685 48.6454 253.501 48.6454H251.645C249.981 48.6454 249.613 48.1814 249.613 46.7574V44.9174H251.341V46.7414C251.341 47.1254 251.405 47.1734 251.901 47.1734ZM254.365 45.4454L255.789 44.6774C256.589 45.4774 257.469 46.6134 257.837 47.4294L256.317 48.2774C255.997 47.4934 255.149 46.3094 254.365 45.4454ZM208.009 53.7654C208.453 53.8134 209.077 53.8374 209.485 53.8374H215.533C215.881 53.8374 216.385 53.8254 216.589 53.8134C216.577 54.0894 216.553 54.5694 216.553 54.9174V61.1334C216.553 61.5534 216.577 62.1894 216.601 62.5494H214.861C214.873 62.3574 214.873 62.1534 214.873 61.9254H209.401C208.933 61.9254 208.249 61.9614 207.853 61.9974V60.2814C208.273 60.3174 208.813 60.3534 209.353 60.3534H214.885V55.3854H209.497C208.993 55.3854 208.345 55.4094 208.009 55.4334V53.7654ZM228.133 54.1494C228.037 54.2814 227.821 54.6534 227.713 54.8934C227.305 55.8294 226.633 57.1134 225.829 58.1934C227.017 59.2254 228.469 60.7614 229.177 61.6254L227.809 62.8134C227.029 61.7334 225.913 60.5094 224.785 59.4174C223.513 60.7614 221.917 62.0094 220.273 62.7894L219.037 61.4934C220.969 60.7734 222.829 59.3094 223.957 58.0494C224.749 57.1494 225.481 55.9614 225.745 55.1094H221.677C221.173 55.1094 220.513 55.1814 220.261 55.1934V53.4894C220.585 53.5374 221.317 53.5734 221.677 53.5734H225.913C226.429 53.5734 226.909 53.5014 227.149 53.4174L228.133 54.1494ZM233.893 61.1334V54.2334C233.893 53.8134 233.857 53.2134 233.773 52.7934H235.645C235.597 53.2134 235.537 53.7414 235.537 54.2334V56.0094C237.145 56.4774 239.449 57.3294 240.553 57.8694L239.869 59.5254C238.633 58.8774 236.833 58.1814 235.537 57.7374V61.1334C235.537 61.4814 235.597 62.3214 235.645 62.8134H233.773C233.845 62.3334 233.893 61.6134 233.893 61.1334ZM244.573 54.8214L243.337 55.2894C243.229 54.6774 242.905 53.6934 242.593 52.9854L243.757 52.5774C244.105 53.2854 244.441 54.2094 244.573 54.8214ZM244.417 59.4534H246.877V58.6734H244.417V59.4534ZM246.877 56.7294H244.417V57.4734H246.877V56.7294ZM248.257 55.3974V61.6614C248.257 62.3214 248.137 62.6934 247.705 62.9214C247.297 63.1374 246.733 63.1614 245.893 63.1614C245.845 62.7774 245.677 62.1894 245.509 61.8294C245.977 61.8534 246.493 61.8534 246.661 61.8534C246.817 61.8414 246.877 61.7934 246.877 61.6374V60.6534H244.417V63.1854H243.049V55.3974H244.921V52.1214H246.337V55.3974H248.257ZM247.849 55.2174L246.661 54.9174C246.949 54.2454 247.261 53.2254 247.417 52.4814L248.833 52.7934C248.521 53.6694 248.149 54.6054 247.849 55.2174ZM250.561 53.5734V60.2694H249.181V53.5734H250.561ZM251.821 52.3494H253.237V61.5774C253.237 62.4174 253.069 62.8014 252.577 63.0414C252.085 63.2814 251.281 63.3294 250.189 63.3174C250.129 62.9094 249.913 62.2494 249.697 61.8414C250.477 61.8774 251.245 61.8774 251.497 61.8774C251.725 61.8654 251.821 61.7934 251.821 61.5654V52.3494ZM257.845 53.3334L256.993 54.4854C256.597 54.0894 255.745 53.5494 255.049 53.2374L255.853 52.1814C256.525 52.4694 257.413 52.9494 257.845 53.3334ZM257.257 56.5014L256.417 57.6534C256.021 57.2694 255.169 56.7654 254.497 56.4654L255.277 55.4094C255.961 55.6734 256.825 56.1174 257.257 56.5014ZM256.117 58.3854L257.269 59.1294C256.861 60.4494 256.345 61.8774 255.853 63.0774L254.557 62.3694C255.013 61.4094 255.661 59.8374 256.117 58.3854ZM261.037 58.5534H260.209V59.8374H261.037V58.5534ZM261.985 60.8814H260.209V61.5294H259.273V57.5214H261.985V60.8814ZM261.889 55.8054V56.8494H259.333V55.8054H261.889ZM264.301 55.9134L265.525 56.1414C265.165 57.7014 264.649 59.0814 263.965 60.2574C264.157 61.1094 264.361 61.6014 264.577 61.6134C264.745 61.6254 264.865 61.0134 264.925 59.9094C265.153 60.1854 265.705 60.5334 265.933 60.6414C265.633 62.8254 265.045 63.2934 264.553 63.2934C263.893 63.2814 263.389 62.6934 263.017 61.6254C262.501 62.2494 261.913 62.7894 261.265 63.2454C261.073 63.0054 260.605 62.5494 260.329 62.3334C261.253 61.7694 262.009 61.0374 262.621 60.1374C262.357 58.8054 262.189 57.1014 262.093 55.1334H258.937V57.2214C258.937 59.0214 258.769 61.6374 257.761 63.3174C257.533 63.0894 256.993 62.7294 256.693 62.5974C257.605 61.0494 257.689 58.8414 257.689 57.2214V53.8734H262.033C262.009 53.3454 261.997 52.8054 261.985 52.2534H263.293C263.293 52.8054 263.305 53.3454 263.329 53.8734H264.685C264.337 53.5374 263.821 53.1414 263.353 52.8654L264.121 52.1454C264.661 52.4454 265.345 52.9254 265.657 53.2974L265.069 53.8734H265.561V55.1334H263.389C263.449 56.2494 263.533 57.2814 263.641 58.1814C263.917 57.4854 264.133 56.7294 264.301 55.9134Z" fill="#2E7CB3"/>
<path d="M269.249 43.0614C269.249 45.5934 267.701 47.3814 264.677 47.8494L263.777 46.4214C264.233 46.3734 264.569 46.3014 264.893 46.2294C266.429 45.8694 267.629 44.7654 267.629 43.0134C267.629 41.3574 266.729 40.1214 265.109 39.8454C264.941 40.8654 264.737 41.9694 264.389 43.0974C263.669 45.5214 262.637 47.0094 261.329 47.0094C259.997 47.0094 258.893 45.5454 258.893 43.5174C258.893 40.7454 261.293 38.3814 264.401 38.3814C267.377 38.3814 269.249 40.4454 269.249 43.0614ZM260.429 43.3614C260.429 44.5734 260.909 45.1614 261.377 45.1614C261.881 45.1614 262.349 44.4054 262.841 42.7854C263.117 41.8974 263.345 40.8774 263.477 39.8814C261.497 40.2894 260.429 42.0414 260.429 43.3614Z" fill="#2587CA"/>
<rect x="194.625" y="3.2854" width="83" height="83" rx="41.5" stroke="#2587CA" stroke-width="3"/>
<rect x="194.125" y="2.7854" width="84" height="84" rx="42" stroke="white" stroke-width="4"/>
</svg>
