<svg width="152" height="49" viewBox="0 0 152 49" fill="none" xmlns="http://www.w3.org/2000/svg">
<g id="Fixel_yoko_color_RGB 1">
<g id="Group">
<g id="Group_2">
<g id="Group_3">
<g id="Group_4">
<path id="Vector" d="M27.1741 2.27308C25.1946 0.292172 21.9889 0.290176 20.0054 2.26311V17.3543L42.2832 17.3942L27.1741 2.27308Z" fill="#4C4948"/>
</g>
<path id="Vector_2" d="M17.5594 4.70874L2.36659 19.9117C0.383013 21.8966 0.383013 25.1123 2.36659 27.0972L17.5594 42.3001V4.70874Z" fill="#12B3C7"/>
<path id="Vector_3" d="M20.0054 44.7479C21.9889 46.7208 25.1946 46.7188 27.1741 44.7379L35.3118 36.5948V19.8838L20.0054 19.802V44.7479Z" fill="#4C4948"/>
<path id="Vector_4" d="M37.7461 34.1574L44.8012 27.0976C46.7848 25.1127 46.7848 21.8969 44.8012 19.912L44.7693 19.8801H37.7461V34.1574Z" fill="#4C4948"/>
</g>
</g>
</g>
<g id="Group_5">
<path id="Vector_5" d="M113.405 43.7163C113.531 43.7163 113.621 43.838 113.585 43.9577C113.383 44.6679 113.043 45.2245 112.562 45.6234C112.012 46.0643 111.362 46.2837 110.61 46.2837C109.931 46.2678 109.364 46.0962 108.91 45.7691C108.447 45.4539 108.113 45.0908 107.903 44.6779C107.839 44.5422 107.782 44.4146 107.732 44.2929C107.684 44.1672 107.644 44.0076 107.614 43.8161C107.554 43.457 107.524 42.7668 107.524 41.7454C107.524 40.7081 107.554 40.0139 107.614 39.6628C107.678 39.3117 107.774 39.0284 107.905 38.811C108.114 38.398 108.451 38.031 108.914 37.7078C109.368 37.3806 109.937 37.2131 110.616 37.2051C111.45 37.2131 112.129 37.4684 112.656 37.9691C113.124 38.42 113.439 38.9685 113.601 39.6109C113.631 39.7306 113.541 39.8463 113.419 39.8463H112.399C112.325 39.8463 112.247 39.7884 112.221 39.7186C112.11 39.4134 111.928 39.1501 111.683 38.9267C111.39 38.6853 111.033 38.5596 110.614 38.5516C110.305 38.5596 110.04 38.6234 109.819 38.7411C109.594 38.8648 109.41 39.0164 109.273 39.2019C109.103 39.3935 108.99 39.6428 108.934 39.944C108.87 40.2632 108.838 40.8637 108.838 41.7414C108.838 42.6212 108.87 43.2156 108.934 43.5268C108.99 43.838 109.101 44.0894 109.273 44.2809C109.412 44.4644 109.594 44.614 109.819 44.7297C110.04 44.8654 110.305 44.9332 110.614 44.9332C111.318 44.9332 111.852 44.5602 112.217 43.8161C112.249 43.7522 112.311 43.7124 112.381 43.7124H113.405V43.7163Z" fill="#4C4948"/>
<path id="Vector_6" d="M100.748 37.2812H105.9C106.001 37.2812 106.085 37.365 106.085 37.4668V38.3685C106.085 38.4702 106.001 38.554 105.9 38.554H101.871V41.1094H104.889C104.991 41.1094 105.074 41.1932 105.074 41.2949V42.1228C105.074 42.2245 104.991 42.3083 104.889 42.3083H101.871V44.9376H105.9C106.001 44.9376 106.085 45.0214 106.085 45.1231V46.0248C106.085 46.1265 106.001 46.2103 105.9 46.2103H100.748C100.647 46.2103 100.563 46.1265 100.563 46.0248V37.4648C100.563 37.365 100.647 37.2812 100.748 37.2812Z" fill="#4C4948"/>
<path id="Vector_7" d="M130.582 39.7747C129.901 39.7747 129.35 40.026 128.93 40.5287H128.906V40.048C128.906 39.9422 128.82 39.8545 128.712 39.8545H127.819C127.714 39.8545 127.626 39.9402 127.626 40.048V46.0186C127.626 46.1243 127.712 46.2121 127.819 46.2121H128.712C128.818 46.2121 128.906 46.1263 128.906 46.0186V42.384C128.914 41.9191 129.049 41.582 129.311 41.3725C129.544 41.1611 129.823 41.0534 130.15 41.0534C130.387 41.0534 130.618 41.1252 130.844 41.2688C130.927 41.3227 131.037 41.3127 131.103 41.2369L131.788 40.419C131.86 40.3352 131.848 40.2036 131.759 40.1417C131.414 39.9043 131.023 39.7806 130.582 39.7747Z" fill="#4C4948"/>
<path id="Vector_8" d="M137.499 41.4823C137.393 41.1312 137.206 40.8041 136.973 40.5567C136.738 40.3193 136.556 40.1916 136.251 40.0241C135.94 39.8645 135.535 39.7807 135.033 39.7727C134.549 39.7807 134.15 39.8645 133.839 40.0241C133.524 40.1916 133.279 40.3811 133.105 40.5946C132.868 40.836 132.693 41.1312 132.579 41.4823C132.469 41.8414 132.414 42.3561 132.414 43.0263C132.414 43.6966 132.469 44.2053 132.579 44.5584C132.693 44.9095 132.868 45.2127 133.105 45.4701C133.281 45.6695 133.526 45.8491 133.839 46.0087C134.148 46.1842 134.547 46.276 135.033 46.284C135.535 46.276 135.942 46.1842 136.251 46.0087C136.419 45.9349 136.554 45.8471 136.662 45.7454C136.779 45.6556 136.879 45.5638 136.961 45.4701C137.214 45.2127 137.393 44.9075 137.499 44.5584C137.601 44.2073 137.653 43.6966 137.653 43.0263C137.653 42.3561 137.601 41.8434 137.499 41.4823ZM136.311 43.9939C136.271 44.2013 136.187 44.3848 136.06 44.5444C135.966 44.6661 135.827 44.7758 135.643 44.8696C135.468 44.9594 135.264 45.0053 135.031 45.0053C134.816 45.0053 134.614 44.9614 134.431 44.8696C134.256 44.7758 134.112 44.6681 134.002 44.5444C133.893 44.3848 133.813 44.2013 133.763 43.9939C133.715 43.7904 133.689 43.4672 133.689 43.0263C133.689 42.5815 133.713 42.2543 133.763 42.0469C133.813 41.8474 133.893 41.6718 134.002 41.5202C134.112 41.3766 134.256 41.2649 134.431 41.1831C134.614 41.0973 134.814 41.0554 135.031 41.0554C135.264 41.0554 135.468 41.0973 135.643 41.1831C135.827 41.2649 135.966 41.3766 136.06 41.5202C136.185 41.6718 136.269 41.8474 136.311 42.0469C136.351 42.2543 136.373 42.5855 136.373 43.0383C136.373 43.4712 136.353 43.7904 136.311 43.9939Z" fill="#4C4948"/>
<path id="Vector_9" d="M144 39.8542H143.111C143.003 39.8542 142.915 39.942 142.915 40.0497V43.6405C142.915 44.0694 142.798 44.4046 142.561 44.6459C142.327 44.8873 142.028 45.007 141.661 45.007C141.295 45.007 140.992 44.8873 140.756 44.6459C140.515 44.4046 140.396 44.0694 140.396 43.6405V40.0497C140.396 39.942 140.308 39.8542 140.2 39.8542H139.311C139.203 39.8542 139.116 39.942 139.116 40.0497V44.0814C139.124 44.7995 139.359 45.3421 139.819 45.7112C140.244 46.0862 140.719 46.2777 141.245 46.2877C141.923 46.2877 142.471 46.0364 142.891 45.5337H142.915V46.0184C142.915 46.1261 143.003 46.2139 143.111 46.2139H144C144.108 46.2139 144.195 46.1261 144.195 46.0184V40.0497C144.193 39.942 144.106 39.8542 144 39.8542Z" fill="#4C4948"/>
<path id="Vector_10" d="M122.721 41.4861V42.3838C122.721 42.4875 122.805 42.5713 122.909 42.5713H124.486V43.0381C124.478 43.5986 124.308 44.0515 123.975 44.3966C123.643 44.7577 123.222 44.9372 122.71 44.9372C122.401 44.9372 122.135 44.8694 121.914 44.7337C121.689 44.62 121.505 44.4704 121.368 44.2849C121.198 44.0934 121.085 43.84 121.029 43.5308C120.965 43.2196 120.933 42.6251 120.933 41.7454C120.933 40.8657 120.965 40.2672 121.029 39.948C121.085 39.6448 121.196 39.3974 121.368 39.2059C121.505 39.0224 121.689 38.8688 121.914 38.7451C122.135 38.6274 122.401 38.5636 122.71 38.5556C123.128 38.5636 123.485 38.6893 123.778 38.9306C124.025 39.1541 124.205 39.4194 124.316 39.7246C124.342 39.7944 124.42 39.8523 124.494 39.8523H125.514C125.636 39.8523 125.726 39.7366 125.696 39.6169C125.536 38.9725 125.221 38.4239 124.751 37.9711C124.225 37.4684 123.547 37.2131 122.712 37.2051C122.032 37.2131 121.466 37.3806 121.011 37.7078C120.549 38.031 120.214 38.398 120.004 38.811C119.875 39.0284 119.777 39.3117 119.713 39.6628C119.653 40.0139 119.624 40.7081 119.624 41.7454C119.624 42.7668 119.653 43.457 119.713 43.8161C119.745 44.0076 119.785 44.1672 119.833 44.2929C119.885 44.4146 119.941 44.5442 120.004 44.6779C120.214 45.0908 120.549 45.4539 121.011 45.7691C121.466 46.0962 122.032 46.2678 122.712 46.2837C123.593 46.2678 124.322 45.9606 124.904 45.3601C125.481 44.7557 125.778 44.0076 125.794 43.1159V41.4861C125.794 41.3823 125.71 41.2986 125.606 41.2986H122.909C122.805 41.3006 122.721 41.3843 122.721 41.4861Z" fill="#4C4948"/>
<path id="Vector_11" d="M65.7929 37.2812H66.7298C66.8335 37.2812 66.9152 37.365 66.9152 37.4668V46.0248C66.9152 46.1265 66.8315 46.2103 66.7298 46.2103H65.7929C65.6892 46.2103 65.6075 46.1265 65.6075 46.0248V37.4668C65.6055 37.365 65.6892 37.2812 65.7929 37.2812Z" fill="#4C4948"/>
<path id="Vector_12" d="M81.0511 37.2812H81.9881C82.0918 37.2812 82.1735 37.365 82.1735 37.4668V46.0248C82.1735 46.1265 82.0898 46.2103 81.9881 46.2103H81.0511C80.9475 46.2103 80.8657 46.1265 80.8657 46.0248V37.4668C80.8657 37.365 80.9494 37.2812 81.0511 37.2812Z" fill="#4C4948"/>
<path id="Vector_13" d="M84.5722 37.2812H85.5151C85.5789 37.2812 85.6407 37.3152 85.6746 37.369L89.558 43.6289V37.4688C89.558 37.365 89.6417 37.2812 89.7454 37.2812H90.6804C90.784 37.2812 90.8678 37.365 90.8678 37.4688V46.0248C90.8678 46.1285 90.784 46.2123 90.6804 46.2123H89.7314C89.6656 46.2123 89.6058 46.1784 89.572 46.1245L85.6945 39.8646V46.0248C85.6945 46.1285 85.6108 46.2123 85.5071 46.2123H84.5741C84.4705 46.2123 84.3868 46.1285 84.3868 46.0248V37.4688C84.3848 37.365 84.4705 37.2812 84.5722 37.2812Z" fill="#4C4948"/>
<path id="Vector_14" d="M60.0095 38.4822H57.8246C57.7229 38.4822 57.6392 38.3984 57.6392 38.2966V37.4668C57.6392 37.365 57.7209 37.2812 57.8246 37.2812H63.5042C63.6058 37.2812 63.6895 37.365 63.6895 37.4668V38.2966C63.6895 38.3984 63.6058 38.4822 63.5042 38.4822H61.3192V46.0268C61.3192 46.1285 61.2375 46.2123 61.1338 46.2123H60.1949C60.0932 46.2123 60.0095 46.1305 60.0095 46.0268V38.4822Z" fill="#4C4948"/>
<path id="Vector_15" d="M95.0656 38.4822H92.8807C92.779 38.4822 92.6953 38.3984 92.6953 38.2966V37.4668C92.6953 37.365 92.779 37.2812 92.8807 37.2812H98.5603C98.662 37.2812 98.7457 37.365 98.7457 37.4668V38.2966C98.7457 38.3984 98.662 38.4822 98.5603 38.4822H96.3754V46.0268C96.3754 46.1285 96.2917 46.2123 96.19 46.2123H95.251C95.1494 46.2123 95.0656 46.1305 95.0656 46.0268V38.4822Z" fill="#4C4948"/>
<path id="Vector_16" d="M74.3048 43.5506C74.3048 44.3006 74.0257 44.941 73.4655 45.4756C72.9053 46.0082 72.2335 46.2756 71.446 46.2756C70.5609 46.2756 69.8014 45.9743 69.1694 45.3699C69.0598 45.2642 69.0558 45.1624 69.1594 45.0627L69.8133 44.4383C69.8632 44.3924 69.915 44.3685 69.9708 44.3685C70.0326 44.3685 70.0884 44.3924 70.1363 44.4383C70.4991 44.7834 70.9357 44.9569 71.446 44.9569C71.8507 44.9569 72.1996 44.8193 72.4887 44.544C72.7777 44.2687 72.9212 43.9376 72.9212 43.5506C72.9212 43.1396 72.7797 42.8304 72.4966 42.619C72.3052 42.4733 71.9644 42.3297 71.4739 42.1881C70.7363 41.9766 70.1861 41.7253 69.8233 41.432C69.2771 40.9931 69.002 40.3947 69.002 39.6386C69.002 38.9484 69.2591 38.3579 69.7715 37.8672C70.2838 37.3784 70.9038 37.1331 71.6294 37.1331C72.5146 37.1331 73.2741 37.4343 73.9061 38.0387C74.0157 38.1445 74.0197 38.2462 73.916 38.3459L73.2621 38.9703C73.2123 39.0182 73.1585 39.0402 73.0967 39.0402C73.0409 39.0402 72.989 39.0162 72.9392 38.9703C72.5764 38.6252 72.1398 38.4517 71.6294 38.4517C71.2846 38.4517 70.9915 38.5674 70.7483 38.7988C70.5051 39.0302 70.3835 39.3095 70.3835 39.6386C70.3835 40.0595 70.5609 40.3767 70.9177 40.5882C71.0892 40.6939 71.4979 40.8375 72.1438 41.0191C73.5851 41.43 74.3048 42.2719 74.3048 43.5506Z" fill="#4C4948"/>
<path id="Vector_17" d="M151.037 41.9172C151.037 40.7302 150.046 39.7747 148.858 39.7747C148.288 39.7747 147.769 39.9961 147.385 40.3592C147.331 40.409 147.281 40.4609 147.231 40.5167V40.012C147.231 39.9203 147.157 39.8465 147.066 39.8465H146.121C146.027 39.8465 145.951 39.9223 145.951 40.016V48.608C145.951 48.7057 146.031 48.7855 146.129 48.7855H147.064C147.157 48.7855 147.233 48.7097 147.233 48.6159V45.5418C147.522 45.8869 147.937 46.1403 148.415 46.242C148.561 46.2779 148.714 46.2959 148.876 46.2959C149.272 46.2879 149.611 46.2081 149.892 46.0565C150.152 45.9229 150.365 45.7513 150.532 45.5378C150.558 45.5059 150.584 45.474 150.608 45.4401C150.772 45.2366 150.883 44.9773 150.947 44.6661C151.009 44.3389 151.039 43.8003 151.039 43.0463C151.037 42.5495 151.047 42.1924 151.037 41.9172ZM149.759 43.3854C149.759 44.7199 149.195 45.0112 148.499 45.0112C147.803 45.0112 147.239 44.6441 147.239 43.2856L147.235 42.8428C147.235 41.4264 147.803 41.0574 148.499 41.0574C149.087 41.0574 149.583 41.2209 149.721 42.1406C149.731 42.1924 149.739 42.2463 149.745 42.3022C149.745 42.3281 149.747 42.354 149.747 42.382C149.755 42.4877 149.759 42.5994 149.759 42.7211V43.3854Z" fill="#4C4948"/>
</g>
<g id="Group_6">
<path id="Vector_18" d="M58.2663 1.7085H74.0153C74.3263 1.7085 74.5795 1.96185 74.5795 2.27305V5.03594C74.5795 5.34714 74.3263 5.60049 74.0153 5.60049H61.7012V13.4164H70.9233C71.2343 13.4164 71.4875 13.6697 71.4875 13.9809V16.5164C71.4875 16.8276 71.2343 17.081 70.9233 17.081H61.7012V28.4378C61.7012 28.749 61.448 29.0023 61.137 29.0023H58.2663C57.9553 29.0023 57.7022 28.749 57.7022 28.4378V2.27305C57.7002 1.96185 57.9533 1.7085 58.2663 1.7085Z" fill="#4C4948"/>
<path id="Vector_19" d="M111.766 20.7615C111.766 22.3255 112.217 23.5125 113.116 24.3244C113.953 25.1502 115.052 25.5632 116.415 25.5632C117.857 25.5632 119.16 25.0425 120.323 23.9992C120.524 23.8177 120.825 23.8017 121.032 23.9793L123.064 25.7168C123.299 25.9183 123.319 26.2833 123.098 26.5008C121.2 28.35 118.997 29.2637 116.491 29.2397C115.466 29.2397 114.468 29.0901 113.493 28.7889C113.006 28.6273 112.53 28.4079 112.067 28.1326C111.581 27.8952 111.124 27.6019 110.7 27.2508C109.875 26.5267 109.207 25.5133 108.694 24.2127C108.132 22.9619 107.851 21.338 107.851 19.3372C107.851 17.4121 108.094 15.8122 108.583 14.5355C109.069 13.2349 109.695 12.2095 110.457 11.4594C111.232 10.6974 112.099 10.1468 113.062 9.80968C114.011 9.47254 114.948 9.30298 115.873 9.30298C118.098 9.32891 119.978 10.059 121.515 11.4973C123.078 12.9616 123.869 14.9744 123.895 17.5358V20.2289C123.895 20.5241 123.656 20.7615 123.363 20.7615H111.766ZM119.974 17.5358C119.924 16.0237 119.517 14.8786 118.756 14.1046C118.006 13.3665 117.043 12.9995 115.869 12.9995C114.695 12.9995 113.732 13.3685 112.982 14.1046C112.245 14.8806 111.84 16.0237 111.764 17.5358H119.974Z" fill="#4C4948"/>
<path id="Vector_20" d="M79.9976 1.6604H82.8504C83.1434 1.6604 83.3826 1.89978 83.3826 2.19303V5.04769C83.3826 5.34094 83.1434 5.58032 82.8504 5.58032H79.9976C79.7046 5.58032 79.4653 5.34094 79.4653 5.04769V2.19303C79.4653 1.89779 79.7026 1.6604 79.9976 1.6604ZM79.9976 9.53615H82.8504C83.1434 9.53615 83.3826 9.77554 83.3826 10.0688V28.4715C83.3826 28.7647 83.1434 29.0041 82.8504 29.0041H79.9976C79.7046 29.0041 79.4653 28.7647 79.4653 28.4715V10.0688C79.4653 9.77554 79.7026 9.53615 79.9976 9.53615Z" fill="#4C4948"/>
<path id="Vector_21" d="M129.56 1.6604H132.413C132.706 1.6604 132.945 1.89978 132.945 2.19303V23.979C132.945 24.8667 133.432 25.3096 134.406 25.3096H135.224C135.517 25.3096 135.756 25.549 135.756 25.8422V28.4715C135.756 28.7647 135.517 29.0041 135.224 29.0041H134.014C132.588 29.0041 131.414 28.649 130.489 27.9349C129.514 27.2107 129.028 25.9899 129.028 24.2783V2.19303C129.028 1.89779 129.267 1.6604 129.56 1.6604Z" fill="#4C4948"/>
<path id="Vector_22" d="M89.0223 9.53617H92.4133C92.5987 9.53617 92.7702 9.63193 92.8679 9.78952L96.5719 15.836L100.296 9.78753C100.393 9.62993 100.565 9.53418 100.748 9.53418H104.139C104.566 9.53418 104.819 10.009 104.582 10.364L98.7648 19.0617L104.847 28.1723C105.084 28.5254 104.829 29.0001 104.404 29.0001H101.025C100.844 29.0001 100.675 28.9084 100.577 28.7548L96.5738 22.5108L92.5888 28.7548C92.4911 28.9084 92.3216 29.0001 92.1402 29.0001H88.7432C88.3166 29.0001 88.0634 28.5254 88.3007 28.1703L94.3989 19.0597L88.5817 10.3621C88.3445 10.011 88.5977 9.53617 89.0223 9.53617Z" fill="#4C4948"/>
</g>
</g>
</svg>
