<svg width="49" height="49" viewBox="0 0 49 49" fill="none" xmlns="http://www.w3.org/2000/svg">
<path d="M16.0325 13.1205C16.7819 13.1205 17.4973 12.9283 18.1785 12.5438V11.1083C17.9839 11.2713 17.799 11.41 17.6238 11.5268C17.4486 11.6412 17.2783 11.7336 17.1153 11.8018C16.8209 11.938 16.4656 12.0061 16.0471 12.0061C15.2369 12.0061 14.5532 11.7215 13.9936 11.1521C13.4364 10.5828 13.1566 9.88448 13.1566 9.05723C13.1566 8.22025 13.434 7.51222 13.9936 6.93314C14.5484 6.35164 15.2321 6.05966 16.0423 6.05966C16.7795 6.05966 17.49 6.34677 18.1785 6.92341V5.51465C17.5192 5.13022 16.833 4.93558 16.125 4.93801C14.8282 4.93801 13.7698 5.41976 12.9522 6.38327C12.288 7.16915 11.9571 8.06453 11.9571 9.0694C11.9571 10.191 12.3537 11.1473 13.1469 11.9404C13.9425 12.7263 14.906 13.1205 16.0325 13.1205ZM34.7211 13.1229C34.979 13.1229 35.2199 13.0937 35.4413 13.0402C35.6627 12.9867 35.8695 12.8991 36.0593 12.7823C36.2491 12.6655 36.4267 12.5146 36.5946 12.3322C36.76 12.1497 36.9182 11.9307 37.069 11.6752L36.0982 11.1327C35.8646 11.5001 35.6554 11.7531 35.4705 11.8893C35.2831 12.0256 35.0471 12.0937 34.76 12.0937C34.3902 12.0937 34.0909 11.9745 33.8549 11.7361C33.6189 11.4952 33.4875 11.1692 33.4559 10.7604H37.0228L37.0301 10.4952C37.0301 9.6728 36.8208 9.03047 36.3975 8.56818C35.9717 8.10103 35.3926 7.86745 34.6603 7.86745C33.9352 7.86745 33.3537 8.10833 32.9133 8.58764C32.4778 9.07426 32.2588 9.71173 32.2588 10.4976C32.2588 11.2908 32.4827 11.9283 32.9328 12.4076C33.3829 12.8845 33.979 13.1229 34.7211 13.1229ZM33.6968 9.43922C33.7673 9.32487 33.8549 9.22998 33.9547 9.14969C34.0544 9.0694 34.1663 9.00613 34.288 8.96477C34.4121 8.92341 34.5435 8.90151 34.6822 8.90151C35.2953 8.90151 35.6822 9.20808 35.8427 9.82122H33.5337C33.5702 9.6801 33.6262 9.55358 33.6968 9.43922ZM30.6213 11.4538C30.6213 11.0791 30.5167 10.7823 30.305 10.5609C30.0934 10.3395 29.6846 10.0986 29.0739 9.83582C28.6311 9.64847 28.4097 9.45869 28.4097 9.26891C28.4097 9.15942 28.4462 9.07183 28.5216 9.00127C28.5946 8.93071 28.687 8.89665 28.7917 8.89665C29.0131 8.89665 29.198 9.04993 29.3488 9.3565L30.3002 8.85042C29.9912 8.19348 29.5167 7.86502 28.8792 7.86502C28.4462 7.86502 28.0788 8.00614 27.7746 8.28837C27.4778 8.57061 27.3294 8.92828 27.3294 9.36137C27.3294 9.68983 27.417 9.95747 27.5897 10.1643C27.726 10.3297 27.962 10.4928 28.2953 10.6558C28.4145 10.7142 28.5313 10.7701 28.6481 10.8237C28.7649 10.8772 28.8792 10.9331 28.996 10.9915C29.2953 11.1692 29.4462 11.3589 29.4462 11.5633C29.4462 11.9161 29.2539 12.0937 28.8646 12.0937C28.67 12.0937 28.5021 12.028 28.3634 11.8991C28.2929 11.8334 28.1882 11.6825 28.052 11.4441L27.0715 11.8991C27.4194 12.7142 28.0106 13.1205 28.8452 13.1205C29.3318 13.1205 29.7479 12.9672 30.0909 12.6606C30.4437 12.337 30.6213 11.9331 30.6213 11.4538ZM34.0179 17.4392L29.8476 20.4295V25.0305L33.743 22.3565V44.5828H38.305V17.4392H34.0179ZM23.9668 8.57791C23.507 8.10103 22.9887 7.86258 22.4097 7.86258C21.7381 7.86258 21.1785 8.11319 20.7333 8.60954C20.288 9.10589 20.0642 9.72633 20.0642 10.4733C20.0642 11.2348 20.2856 11.8674 20.7333 12.3735C21.181 12.8723 21.7503 13.1205 22.4389 13.1205C22.9839 13.1205 23.4924 12.8991 23.9668 12.4563V12.9769H25.1226V8.00127H23.9668V8.57791ZM23.6432 11.6533C23.3805 11.9477 23.0374 12.0937 22.6116 12.0937C22.215 12.0937 21.8841 11.9429 21.6213 11.6387C21.3659 11.3395 21.2393 10.9502 21.2393 10.4733C21.2393 10.028 21.3683 9.65334 21.6311 9.34677C21.8963 9.0475 22.2272 8.89665 22.6213 8.89665C23.0398 8.89665 23.3805 9.04506 23.6432 9.3419C23.906 9.64604 24.0374 10.0305 24.0374 10.4976C24.0374 10.9648 23.906 11.3492 23.6432 11.6533ZM14.6627 17.0864C10.1372 17.0864 6.125 19.6436 6.125 25.4271V36.6387C6.125 42.264 10.1396 44.938 14.6627 44.938C19.1858 44.938 23.2004 42.264 23.198 36.6363V25.3857C23.198 19.6436 19.1858 17.0864 14.6627 17.0864ZM18.6359 36.3638C18.6359 39.2762 17.1007 40.9672 14.6627 40.9672C12.1858 40.9672 10.6505 39.2738 10.6505 36.3638V25.6631C10.6505 22.7507 12.1834 21.0597 14.6627 21.0597C17.1031 21.0597 18.6359 22.7507 18.6359 25.6631V36.3638Z" fill="#2587CA"/>
</svg>
