<svg width="49" height="49" viewBox="0 0 49 49" fill="none" xmlns="http://www.w3.org/2000/svg">
<path d="M23.9668 7.48953C23.507 7.01265 22.9887 6.7742 22.4097 6.7742C21.7381 6.7742 21.1785 7.02481 20.7333 7.52116C20.288 8.01751 20.0642 8.63795 20.0642 9.38491C20.0642 10.1465 20.2856 10.7791 20.7333 11.2852C21.181 11.7839 21.7503 12.0321 22.4389 12.0321C22.9839 12.0321 23.4924 11.8107 23.9668 11.3679V11.8886H25.1226V6.91289H23.9668V7.48953ZM23.6432 10.565C23.3805 10.8594 23.0374 11.0053 22.6116 11.0053C22.215 11.0053 21.8841 10.8545 21.6213 10.5504C21.3659 10.2511 21.2393 9.86179 21.2393 9.38491C21.2393 8.93965 21.3683 8.56496 21.6311 8.25839C21.8963 7.95912 22.2272 7.80827 22.6213 7.80827C23.0398 7.80827 23.3805 7.95669 23.6432 8.25352C23.906 8.55766 24.0374 8.94209 24.0374 9.40924C24.0374 9.87639 23.906 10.2608 23.6432 10.565ZM34.7211 12.0345C34.979 12.0345 35.2199 12.0053 35.4413 11.9518C35.6627 11.8983 35.8695 11.8107 36.0593 11.6939C36.2491 11.5771 36.4267 11.4263 36.5946 11.2438C36.76 11.0613 36.9182 10.8423 37.069 10.5869L36.0982 10.0443C35.8646 10.4117 35.6554 10.6647 35.4705 10.801C35.2831 10.9372 35.0471 11.0053 34.76 11.0053C34.3902 11.0053 34.0909 10.8861 33.8549 10.6477C33.6189 10.4068 33.4875 10.0808 33.4559 9.67201H37.0228L37.0301 9.40681C37.0301 8.58442 36.8208 7.94209 36.3975 7.4798C35.9717 7.01265 35.3926 6.77907 34.6603 6.77907C33.9352 6.77907 33.3537 7.01995 32.9133 7.49926C32.4778 7.98588 32.2588 8.62335 32.2588 9.40924C32.2588 10.2024 32.4826 10.8399 32.9328 11.3192C33.3829 11.7961 33.979 12.0345 34.7211 12.0345ZM33.6968 8.35085C33.7673 8.23649 33.8549 8.1416 33.9547 8.06131C34.0544 7.98102 34.1663 7.91776 34.288 7.87639C34.4121 7.83503 34.5435 7.81313 34.6822 7.81313C35.2953 7.81313 35.6822 8.1197 35.8427 8.73284H33.5337C33.5702 8.59172 33.6262 8.4652 33.6968 8.35085ZM28.8646 11.0053C28.67 11.0053 28.5021 10.9397 28.3634 10.8107C28.2929 10.745 28.1882 10.5942 28.052 10.3557L27.0715 10.8107C27.4194 11.6258 28.0106 12.0321 28.8452 12.0321C29.3318 12.0321 29.7479 11.8788 30.0909 11.5723C30.4437 11.2487 30.6213 10.8448 30.6213 10.3654C30.6213 9.99075 30.5167 9.69391 30.305 9.4725C30.0934 9.25109 29.6846 9.01021 29.0739 8.74744C28.6311 8.56009 28.4097 8.37031 28.4097 8.18053C28.4097 8.07104 28.4462 7.98345 28.5216 7.91289C28.5946 7.84233 28.687 7.80827 28.7917 7.80827C29.0131 7.80827 29.198 7.96155 29.3488 8.26812L30.3002 7.76204C29.9912 7.1051 29.5167 6.77664 28.8792 6.77664C28.4462 6.77664 28.0788 6.91776 27.7746 7.19999C27.4778 7.48223 27.3294 7.8399 27.3294 8.27299C27.3294 8.60145 27.417 8.86909 27.5897 9.07591C27.726 9.24136 27.962 9.40437 28.2953 9.56739C28.4145 9.62578 28.5313 9.68175 28.6481 9.73527C28.7649 9.7888 28.8792 9.84476 28.996 9.90316C29.2953 10.0808 29.4461 10.2706 29.4461 10.4749C29.4461 10.8277 29.2539 11.0053 28.8646 11.0053ZM16.0325 12.0321C16.7819 12.0321 17.4973 11.8399 18.1785 11.4555V10.0199C17.9839 10.183 17.799 10.3216 17.6238 10.4384C17.4486 10.5528 17.2783 10.6452 17.1153 10.7134C16.8209 10.8496 16.4656 10.9178 16.0471 10.9178C15.2369 10.9178 14.5532 10.6331 13.9936 10.0637C13.4364 9.4944 13.1566 8.7961 13.1566 7.96885C13.1566 7.13187 13.434 6.42384 13.9936 5.84476C14.5484 5.26326 15.232 4.97129 16.0423 4.97129C16.7795 4.97129 17.49 5.25839 18.1785 5.83503V4.42627C17.5192 4.04185 16.833 3.8472 16.125 3.84963C14.8282 3.84963 13.7698 4.33138 12.9522 5.29489C12.288 6.08077 11.9571 6.97615 11.9571 7.98102C11.9571 9.10267 12.3537 10.0589 13.1469 10.8521C13.9425 11.6379 14.906 12.0321 16.0325 12.0321ZM14.6627 15.998C10.1372 15.998 6.125 18.5552 6.125 24.3387V35.5503C6.125 41.1756 10.1396 43.8496 14.6627 43.8496C19.1858 43.8496 23.2004 41.1756 23.198 35.5479V24.2973C23.198 18.5552 19.1858 15.998 14.6627 15.998ZM18.6359 35.2754C18.6359 38.1878 17.1007 39.8788 14.6627 39.8788C12.1858 39.8788 10.6505 38.1854 10.6505 35.2754V24.5747C10.6505 21.6623 12.1834 19.9713 14.6627 19.9713C17.1031 19.9713 18.6359 21.6623 18.6359 24.5747V35.2754ZM39.3294 29.4117C41.4534 28.3484 43.1834 26.3046 43.1834 23.3533C43.1834 19.2632 39.7211 15.998 34.962 15.998C30.5946 15.998 26.8963 18.8691 26.7795 23.2365H30.9498C31.1444 21.3484 32.6019 19.8934 34.8038 19.8934C37.125 19.8934 38.6603 21.5066 38.6603 23.4725C38.6603 26.0297 37.125 27.5236 34.2929 27.5236H32.4072V31.4579H34.2953C37.4413 31.4579 39.0544 33.11 39.0544 35.8642C39.0544 38.1465 37.4413 39.8764 35.0812 39.8764C32.288 39.8764 30.9109 38.38 30.597 36.4141H26.4267C26.6627 40.7036 29.7698 43.8496 35.2783 43.8496C40.5094 43.8496 43.5775 40.2681 43.5775 35.981C43.5775 32.6379 41.8087 30.5139 39.3294 29.4117Z" fill="#2587CA"/>
</svg>
