<svg width="38" height="41" viewBox="0 0 38 41" fill="none" xmlns="http://www.w3.org/2000/svg">
<path d="M17.9668 4.53372C17.507 4.05684 16.9887 3.81839 16.4097 3.81839C15.7381 3.81839 15.1785 4.069 14.7333 4.56535C14.288 5.0617 14.0642 5.68214 14.0642 6.4291C14.0642 7.19065 14.2856 7.82326 14.7333 8.32934C15.181 8.82812 15.7503 9.0763 16.4389 9.0763C16.9839 9.0763 17.4924 8.85489 17.9668 8.41206V8.93275H19.1226V3.95708H17.9668V4.53372ZM17.6432 7.60915C17.3805 7.90355 17.0374 8.04953 16.6116 8.04953C16.215 8.04953 15.8841 7.89868 15.6213 7.59455C15.3659 7.29528 15.2393 6.90598 15.2393 6.4291C15.2393 5.98384 15.3683 5.60915 15.6311 5.30258C15.8963 5.00331 16.2272 4.85246 16.6213 4.85246C17.0398 4.85246 17.3805 5.00087 17.6432 5.29771C17.906 5.60185 18.0374 5.98628 18.0374 6.45343C18.0374 6.92058 17.906 7.30501 17.6432 7.60915ZM28.7211 9.07873C28.979 9.07873 29.2199 9.04953 29.4413 8.99601C29.6627 8.94248 29.8695 8.85489 30.0593 8.7381C30.2491 8.62131 30.4267 8.47046 30.5946 8.28798C30.76 8.1055 30.9182 7.88652 31.069 7.63104L30.0982 7.08846C29.8646 7.45586 29.6554 7.7089 29.4705 7.84516C29.2831 7.98141 29.0471 8.04953 28.76 8.04953C28.3902 8.04953 28.0909 7.93031 27.8549 7.69187C27.6189 7.45099 27.4875 7.12496 27.4559 6.7162H31.0228L31.0301 6.451C31.0301 5.62861 30.8209 4.98628 30.3975 4.52399C29.9717 4.05684 29.3926 3.82326 28.6603 3.82326C27.9352 3.82326 27.3537 4.06414 26.9133 4.54345C26.4778 5.03007 26.2588 5.66754 26.2588 6.45343C26.2588 7.24662 26.4827 7.88409 26.9328 8.3634C27.3829 8.84029 27.979 9.07873 28.7211 9.07873ZM27.6968 5.39504C27.7673 5.28068 27.8549 5.18579 27.9547 5.1055C28.0544 5.02521 28.1664 4.96195 28.288 4.92058C28.4121 4.87922 28.5435 4.85732 28.6822 4.85732C29.2953 4.85732 29.6822 5.16389 29.8427 5.77703H27.5337C27.5702 5.63591 27.6262 5.50939 27.6968 5.39504ZM22.8646 8.04953C22.67 8.04953 22.5021 7.98384 22.3634 7.85489C22.2929 7.78919 22.1882 7.63834 22.052 7.3999L21.0715 7.85489C21.4194 8.66997 22.0106 9.0763 22.8452 9.0763C23.3318 9.0763 23.7479 8.92301 24.0909 8.61644C24.4437 8.29284 24.6213 7.88895 24.6213 7.40963C24.6213 7.03494 24.5167 6.7381 24.305 6.51669C24.0934 6.29528 23.6846 6.0544 23.0739 5.79163C22.6311 5.60428 22.4097 5.4145 22.4097 5.22472C22.4097 5.11523 22.4462 5.02764 22.5216 4.95708C22.5946 4.88652 22.687 4.85246 22.7917 4.85246C23.0131 4.85246 23.198 5.00574 23.3488 5.31231L24.3002 4.80623C23.9912 4.14929 23.5167 3.82083 22.8792 3.82083C22.4462 3.82083 22.0788 3.96195 21.7746 4.24418C21.4778 4.52642 21.3294 4.88409 21.3294 5.31718C21.3294 5.64564 21.417 5.91328 21.5897 6.1201C21.726 6.28555 21.962 6.44856 22.2953 6.61158C22.4145 6.66997 22.5313 6.72593 22.6481 6.77946C22.7649 6.83299 22.8792 6.88895 22.996 6.94735C23.2953 7.12496 23.4462 7.31474 23.4462 7.51912C23.4462 7.87192 23.2539 8.04953 22.8646 8.04953ZM8.66271 13.0422C4.13716 13.0422 0.125 15.5994 0.125 21.3829V32.5945C0.125 38.2198 4.1396 40.8938 8.66271 40.8938C13.1858 40.8938 17.2004 38.2198 17.198 32.5921V21.3415C17.198 15.5994 13.1858 13.0422 8.66271 13.0422ZM12.6359 32.3196C12.6359 35.232 11.1007 36.923 8.66271 36.923C6.18582 36.923 4.65055 35.2296 4.65055 32.3196V21.6189C4.65055 18.7065 6.18339 17.0155 8.66271 17.0155C11.1031 17.0155 12.6359 18.7065 12.6359 21.6189V32.3196ZM33.2101 28.9327C34.9401 26.8476 37.3002 24.1736 37.3002 20.7503C37.3002 16.1858 33.7211 13.0398 29.0788 13.0398C24.5946 13.0398 20.8963 16.069 20.8963 20.6724H25.0715C25.1882 18.2344 26.8014 16.9352 28.9255 16.9352C30.9303 16.9352 32.7795 18.1931 32.7795 20.6724C32.7795 22.5605 31.7965 24.3293 30.0252 26.3756L20.7016 37.3123V40.5386H37.1055V36.6043H26.799L33.2101 28.9327ZM10.0325 9.0763C10.7819 9.0763 11.4973 8.88408 12.1785 8.49966V7.06413C11.9839 7.22715 11.799 7.36584 11.6238 7.48263C11.4486 7.59698 11.2783 7.68944 11.1153 7.75756C10.8209 7.89382 10.4656 7.96194 10.0471 7.96194C9.23692 7.96194 8.55322 7.67727 7.99361 7.10793C7.43643 6.53859 7.15663 5.84029 7.15663 5.01304C7.15663 4.17606 7.434 3.46803 7.99361 2.88895C8.54835 2.30745 9.23205 2.01548 10.0423 2.01548C10.7795 2.01548 11.49 2.30258 12.1785 2.87922V1.47046C11.5192 1.08604 10.833 0.891388 10.125 0.893821C8.82816 0.893821 7.76977 1.37557 6.95225 2.33908C6.28801 3.12496 5.95711 4.02034 5.95711 5.02521C5.95711 6.14686 6.35371 7.10306 7.14689 7.89625C7.94251 8.68214 8.90602 9.0763 10.0325 9.0763Z" fill="#2587CA"/>
</svg>
