<svg width="200" height="111" viewBox="0 0 200 111" fill="none" xmlns="http://www.w3.org/2000/svg">
<g filter="url(#filter0_d_7291_1088)">
<path d="M7.625 21.7854C7.625 12.9488 14.7884 5.7854 23.625 5.7854H175.625C184.462 5.7854 191.625 12.9488 191.625 21.7854V100.785H23.625C14.7884 100.785 7.625 93.622 7.625 84.7854V21.7854Z" fill="white"/>
<path d="M34.079 41.5354H35.801V41.3534V40.1494H34.079V41.5354ZM39.189 40.1494H37.453V41.3674V41.5354H39.189V40.1494ZM40.785 42.8794H37.369C37.257 43.7474 37.019 44.5734 36.599 45.3154C37.887 45.9314 39.497 46.3234 41.387 46.4914C41.037 46.8554 40.603 47.5414 40.393 47.9754C38.503 47.7374 36.907 47.2474 35.605 46.5054C34.933 47.1214 33.981 47.6394 32.735 48.0034C32.525 47.6394 32.035 46.9674 31.699 46.6174C32.819 46.3654 33.645 46.0014 34.247 45.5394C33.561 44.9654 33.001 44.2514 32.525 43.4534L33.883 43.0334C34.219 43.5794 34.667 44.0554 35.185 44.4754C35.465 43.9714 35.619 43.4534 35.703 42.8794H32.581V38.7914H35.801V37.8114H32.287V36.5234C32.035 37.0694 31.755 37.6014 31.447 38.1334V48.0314H29.865V40.5134C29.487 40.9894 29.109 41.4374 28.717 41.8294C28.563 41.4234 28.115 40.5274 27.835 40.1214C29.165 38.8614 30.467 36.8874 31.223 34.8994L32.763 35.4034C32.637 35.6974 32.511 35.9914 32.385 36.2994H35.801V35.0254H37.453V36.2994H41.163V37.8114H37.453V38.7914H40.785V42.8794ZM44.187 40.8634C44.607 40.7794 45.251 40.6114 45.671 40.4854C46.623 40.1914 49.003 39.3934 50.697 39.3934C52.909 39.3934 54.393 40.7094 54.393 42.8234C54.393 45.3574 52.167 47.0794 47.715 47.3594L46.973 45.6374C50.179 45.5534 52.531 44.6994 52.531 42.7954C52.531 41.7454 51.747 41.0174 50.529 41.0174C48.905 41.0174 46.105 42.1794 44.915 42.6834L44.187 40.8634ZM57.0417 37.1534C57.6017 37.1394 58.1477 37.1114 58.4277 37.0834C59.5897 36.9854 61.8997 36.7754 64.4617 36.5514C65.9037 36.4394 67.4437 36.3414 68.4237 36.3134L68.4377 38.1054C67.6817 38.1194 66.4777 38.1194 65.7357 38.2874C64.0417 38.7354 62.7817 40.5554 62.7817 42.2214C62.7817 44.5174 64.9377 45.3574 67.3037 45.4834L66.6457 47.4014C63.7197 47.2054 60.9477 45.6234 60.9477 42.5994C60.9477 40.5834 62.0817 38.9874 63.0197 38.2734C61.7037 38.4134 58.8477 38.7214 57.2237 39.0714L57.0417 37.1534ZM74.2477 36.7754C74.1497 37.2794 74.0797 38.0914 74.0797 38.4834C74.0657 39.3934 74.0797 40.4434 74.1637 41.4514C74.3597 43.4674 74.7797 44.8534 75.6617 44.8534C76.3197 44.8534 76.8797 43.2154 77.1457 42.0954L78.5457 43.8034C77.6217 46.2394 76.7397 47.0934 75.6197 47.0934C74.0797 47.0934 72.7497 45.7074 72.3577 41.9554C72.2177 40.6674 72.2037 39.0294 72.2037 38.1754C72.2037 37.7834 72.1757 37.1814 72.0917 36.7474L74.2477 36.7754ZM81.2477 37.0974C82.5777 38.7074 83.6417 42.2074 83.7957 44.3494L81.9617 45.0634C81.7377 42.8094 80.9957 39.4074 79.4697 37.6714L81.2477 37.0974ZM90.6277 45.1334C90.6277 45.6514 91.2017 46.0014 92.0417 46.0014C92.3357 46.0014 92.6017 45.9874 92.8537 45.9594C92.7697 45.0494 92.2517 44.4614 91.4957 44.4614C90.9637 44.4614 90.6277 44.7834 90.6277 45.1334ZM88.2477 36.1174C88.6397 36.1734 89.1297 36.1874 89.5217 36.1874C90.2637 36.1874 93.2597 36.1314 94.0577 36.0614C94.6317 36.0054 94.9537 35.9634 95.1217 35.9074L96.0317 37.1534C95.7097 37.3634 95.3737 37.5594 95.0517 37.7974C94.2957 38.3294 92.8257 39.5614 91.9437 40.2614C92.4057 40.1494 92.8257 40.1074 93.2737 40.1074C95.6537 40.1074 97.4597 41.5914 97.4597 43.6354C97.4597 45.8474 95.7797 47.5974 92.3917 47.5974C90.4457 47.5974 88.9757 46.7014 88.9757 45.3014C88.9757 44.1674 89.9977 43.1174 91.4817 43.1174C93.2177 43.1174 94.2677 44.1814 94.4637 45.5114C95.2337 45.1054 95.6257 44.4614 95.6257 43.6074C95.6257 42.3474 94.3657 41.4934 92.7137 41.4934C90.5717 41.4934 89.1717 42.6274 87.6737 44.3354L86.3997 43.0194C87.3937 42.2214 89.0877 40.7934 89.9137 40.1074C90.6977 39.4634 92.1537 38.2874 92.8397 37.6854C92.1257 37.6994 90.1937 37.7834 89.4517 37.8254C89.0737 37.8534 88.6257 37.8954 88.3037 37.9374L88.2477 36.1174ZM104.054 35.6974C104.978 36.2014 106.518 37.1954 107.246 37.6994L106.196 39.2534C105.412 38.7074 103.956 37.7554 103.032 37.2374L104.054 35.6974ZM101.45 45.6374C103.018 45.3714 104.698 44.9094 106.224 44.0694C108.604 42.7394 110.55 40.8214 111.67 38.8194L112.748 40.7234C111.446 42.6554 109.472 44.4334 107.176 45.7494C105.748 46.5614 103.746 47.2614 102.5 47.4854L101.45 45.6374ZM101.898 38.8894C102.836 39.3934 104.376 40.3594 105.09 40.8634L104.068 42.4314C103.27 41.8854 101.814 40.9334 100.876 40.4434L101.898 38.8894ZM125.964 37.2934C125.852 37.4474 125.6 37.8814 125.474 38.1614C124.998 39.2534 124.214 40.7514 123.276 42.0114C124.662 43.2154 126.356 45.0074 127.182 46.0154L125.586 47.4014C124.676 46.1414 123.374 44.7134 122.058 43.4394C120.574 45.0074 118.712 46.4634 116.794 47.3734L115.352 45.8614C117.606 45.0214 119.776 43.3134 121.092 41.8434C122.016 40.7934 122.87 39.4074 123.178 38.4134H118.432C117.844 38.4134 117.074 38.4974 116.78 38.5114V36.5234C117.158 36.5794 118.012 36.6214 118.432 36.6214H123.374C123.976 36.6214 124.536 36.5374 124.816 36.4394L125.964 37.2934ZM131.662 36.0474C132.124 36.1174 132.698 36.1454 133.16 36.1454H138.788C139.264 36.1454 139.824 36.1174 140.3 36.0474V37.8534C139.824 37.8254 139.278 37.7974 138.788 37.7974H133.174C132.684 37.7974 132.096 37.8254 131.662 37.8534V36.0474ZM130.038 39.6314C130.458 39.6734 130.948 39.7154 131.382 39.7154H140.552C140.846 39.7154 141.462 39.6874 141.826 39.6314V41.4514C141.476 41.4234 140.944 41.4094 140.552 41.4094H137.178C137.094 42.8514 136.786 44.0274 136.282 45.0074C135.792 45.9734 134.714 47.0654 133.468 47.6954L131.83 46.5054C132.824 46.1274 133.804 45.3154 134.364 44.5034C134.938 43.6354 135.176 42.5854 135.232 41.4094H131.382C130.962 41.4094 130.43 41.4374 130.038 41.4654V39.6314ZM150.754 36.2294C150.572 36.6494 150.362 37.1674 150.152 37.7834C149.704 39.1554 148.57 42.7114 147.87 44.5874C149.578 44.4194 151.566 44.1954 152.98 44.0274C152.49 43.0194 151.972 42.0814 151.51 41.4654L153.26 40.7514C154.254 42.2634 155.682 45.0074 156.326 46.5754L154.436 47.4154C154.254 46.9394 154.03 46.3654 153.764 45.7634C151.496 46.0294 147.254 46.4774 145.49 46.6594C145.14 46.7014 144.622 46.7714 144.174 46.8274L143.852 44.7834C144.328 44.7834 144.93 44.7834 145.392 44.7694C145.504 44.7694 145.644 44.7554 145.77 44.7554C146.582 42.6834 147.786 38.8474 148.192 37.3914C148.388 36.6774 148.472 36.2434 148.528 35.7674L150.754 36.2294ZM163.914 35.8234C163.83 36.1874 163.732 36.6354 163.662 36.9854C163.578 37.4054 163.466 37.9234 163.368 38.4274C163.844 38.3994 164.25 38.3714 164.544 38.3714C166.028 38.3714 167.078 39.0294 167.078 41.0454C167.078 42.6974 166.882 44.9654 166.28 46.1834C165.818 47.1634 165.048 47.4714 163.984 47.4714C163.452 47.4714 162.78 47.3734 162.304 47.2754L162.01 45.4274C162.542 45.5814 163.354 45.7214 163.718 45.7214C164.194 45.7214 164.544 45.5814 164.768 45.1194C165.146 44.3214 165.342 42.6274 165.342 41.2414C165.342 40.1214 164.852 39.9674 163.984 39.9674C163.76 39.9674 163.41 39.9954 163.004 40.0234C162.472 42.1514 161.436 45.4694 160.148 47.5274L158.328 46.7994C159.686 44.9654 160.652 42.1374 161.17 40.2194C160.666 40.2754 160.218 40.3314 159.966 40.3594C159.56 40.4294 158.832 40.5274 158.398 40.5974L158.23 38.6934C158.748 38.7354 159.21 38.7074 159.728 38.6934C160.162 38.6794 160.82 38.6374 161.534 38.5674C161.73 37.5174 161.856 36.4954 161.828 35.6134L163.914 35.8234ZM170.144 34.6614C170.508 35.1934 171.026 36.0754 171.264 36.5654L170.158 37.0414C169.864 36.4674 169.416 35.6414 169.024 35.1094L170.144 34.6614ZM168.478 35.2914C168.828 35.8094 169.332 36.6914 169.598 37.2094L168.912 37.5034C169.752 38.8054 170.802 41.1434 171.194 42.3894L169.416 43.2014C169.052 41.6474 168.058 39.1834 167.064 37.9514L168.324 37.4054C168.044 36.8734 167.694 36.2014 167.372 35.7534L168.478 35.2914Z" fill="#222224"/>
<path d="M39.209 70.6174V67.4814H31.977V70.6174H39.209ZM42.905 62.8094H36.665V65.6734H41.289V73.1134H39.209V72.4254H31.977V73.1774H29.977V65.6734H34.585V62.8094H28.361V60.9534H34.585V58.2334H36.665V60.9534H42.905V62.8094ZM56.009 60.2494C55.513 60.6334 54.985 61.0494 54.617 61.3534C53.577 62.1854 51.465 63.8174 50.393 64.7294C49.545 65.4654 49.561 65.6414 50.425 66.3934C51.625 67.4014 54.665 69.8014 56.297 71.3854L54.425 73.0974C53.977 72.6014 53.513 72.0894 53.033 71.6094C52.057 70.6014 49.705 68.6014 48.249 67.3534C46.649 65.9934 46.777 65.1454 48.377 63.8014C49.641 62.7774 51.833 61.0014 52.905 59.9614C53.369 59.4974 53.881 58.9854 54.137 58.6014L56.009 60.2494ZM68.281 65.7854H70.249V65.5774V64.2014H68.281V65.7854ZM74.121 64.2014H72.137V65.5934V65.7854H74.121V64.2014ZM75.945 67.3214H72.041C71.913 68.3134 71.641 69.2574 71.161 70.1054C72.633 70.8094 74.473 71.2574 76.633 71.4494C76.233 71.8654 75.737 72.6494 75.497 73.1454C73.337 72.8734 71.513 72.3134 70.025 71.4654C69.257 72.1694 68.169 72.7614 66.745 73.1774C66.505 72.7614 65.945 71.9934 65.561 71.5934C66.841 71.3054 67.785 70.8894 68.473 70.3614C67.689 69.7054 67.049 68.8894 66.505 67.9774L68.057 67.4974C68.441 68.1214 68.953 68.6654 69.545 69.1454C69.865 68.5694 70.041 67.9774 70.137 67.3214H66.569V62.6494H70.249V61.5294H66.233V60.0574C65.945 60.6814 65.625 61.2894 65.273 61.8974V73.2094H63.465V64.6174C63.033 65.1614 62.601 65.6734 62.153 66.1214C61.977 65.6574 61.465 64.6334 61.145 64.1694C62.665 62.7294 64.153 60.4734 65.017 58.2014L66.777 58.7774C66.633 59.1134 66.489 59.4494 66.345 59.8014H70.249V58.3454H72.137V59.8014H76.377V61.5294H72.137V62.6494H75.945V67.3214ZM81.705 60.3454C81.593 60.9214 81.513 61.8494 81.513 62.2974C81.497 63.3374 81.513 64.5374 81.609 65.6894C81.833 67.9934 82.313 69.5774 83.321 69.5774C84.073 69.5774 84.713 67.7054 85.017 66.4254L86.617 68.3774C85.561 71.1614 84.553 72.1374 83.273 72.1374C81.513 72.1374 79.993 70.5534 79.545 66.2654C79.385 64.7934 79.369 62.9214 79.369 61.9454C79.369 61.4974 79.337 60.8094 79.241 60.3134L81.705 60.3454ZM89.705 60.7134C91.225 62.5534 92.441 66.5534 92.617 69.0014L90.521 69.8174C90.265 67.2414 89.417 63.3534 87.673 61.3694L89.705 60.7134ZM94.761 63.2574C95.353 63.1454 96.153 62.9374 96.745 62.7614C97.961 62.3774 101.209 61.2414 103.577 61.2414C106.457 61.2414 108.729 62.9054 108.729 65.8654C108.729 69.4814 105.273 71.8014 99.641 72.0894L98.713 69.9614C103.033 69.8814 106.441 68.6174 106.441 65.8174C106.441 64.3134 105.417 63.1774 103.481 63.1774C101.113 63.1774 97.337 64.7614 95.673 65.4974L94.761 63.2574ZM106.505 58.9214C106.905 59.5134 107.465 60.5214 107.769 61.1134L106.489 61.6734C106.153 61.0174 105.657 60.0574 105.225 59.4334L106.505 58.9214ZM108.393 58.2014C108.809 58.7934 109.401 59.8174 109.689 60.3774L108.409 60.9214C108.089 60.2494 107.561 59.3214 107.129 58.7134L108.393 58.2014ZM116.169 58.9054C117.689 59.3854 121.177 59.9934 122.569 60.1534L122.089 62.1054C120.473 61.8974 116.905 61.1454 115.657 60.8254L116.169 58.9054ZM116.265 62.1214C116.057 63.0014 115.769 64.9534 115.657 65.8654C117.113 64.8094 118.697 64.3454 120.377 64.3454C123.177 64.3454 124.809 66.0734 124.809 68.0094C124.809 70.9214 122.505 73.1614 115.849 72.6014L115.241 70.5054C120.041 71.1614 122.585 69.9934 122.585 67.9614C122.585 66.9214 121.593 66.1534 120.201 66.1534C118.393 66.1534 116.761 66.8254 115.753 68.0414C115.465 68.3934 115.305 68.6494 115.161 68.9694L113.321 68.5054C113.641 66.9374 114.009 63.8014 114.121 61.8174L116.265 62.1214ZM131.625 60.3454C131.513 60.9214 131.433 61.8494 131.433 62.2974C131.417 63.3374 131.433 64.5374 131.529 65.6894C131.753 67.9934 132.233 69.5774 133.241 69.5774C133.993 69.5774 134.633 67.7054 134.937 66.4254L136.537 68.3774C135.481 71.1614 134.473 72.1374 133.193 72.1374C131.433 72.1374 129.913 70.5534 129.465 66.2654C129.305 64.7934 129.289 62.9214 129.289 61.9454C129.289 61.4974 129.257 60.8094 129.161 60.3134L131.625 60.3454ZM139.625 60.7134C141.145 62.5534 142.361 66.5534 142.537 69.0014L140.441 69.8174C140.185 67.2414 139.337 63.3534 137.593 61.3694L139.625 60.7134Z" fill="#2587CA"/>
<path d="M16.9382 25.5817C15.5071 25.5817 14.7348 24.4459 14.7348 22.4924C14.7348 20.1755 15.8705 18.4264 18.1421 17.2452L18.9144 18.7217C17.4379 19.5167 16.6883 20.4935 16.6883 21.9473C16.7792 21.9245 16.8473 21.9245 16.9382 21.9245C17.9149 21.9245 18.7554 22.5833 18.7554 23.6736C18.7554 24.8548 18.0058 25.5817 16.9382 25.5817ZM22.617 25.5817C21.1859 25.5817 20.4136 24.4459 20.4136 22.4924C20.4136 20.1755 21.5494 18.4264 23.8209 17.2452L24.5932 18.7217C23.1167 19.5167 22.3671 20.4935 22.3671 21.9473C22.458 21.9245 22.5261 21.9245 22.617 21.9245C23.5938 21.9245 24.4342 22.5833 24.4342 23.6736C24.4342 24.8548 23.6619 25.5817 22.617 25.5817Z" fill="#F9CA53"/>
<path d="M171.354 90.0015L170.581 88.5477C172.058 87.73 172.807 86.7759 172.807 85.2994C172.717 85.3221 172.648 85.3221 172.558 85.3221C171.581 85.3221 170.74 84.6634 170.74 83.5731C170.74 82.4146 171.513 81.665 172.558 81.665C173.989 81.665 174.761 82.8007 174.761 84.7315C174.761 87.0712 173.625 88.843 171.354 90.0015ZM177.033 90.0015L176.26 88.5477C177.737 87.73 178.486 86.7759 178.486 85.2994C178.395 85.3221 178.327 85.3221 178.236 85.3221C177.26 85.3221 176.419 84.6634 176.419 83.5731C176.419 82.4146 177.192 81.665 178.236 81.665C179.668 81.665 180.44 82.8007 180.44 84.7315C180.44 87.0712 179.304 88.843 177.033 90.0015Z" fill="#F9CA53"/>
</g>
<defs>
<filter id="filter0_d_7291_1088" x="0.0532184" y="0.106564" width="199.144" height="110.144" filterUnits="userSpaceOnUse" color-interpolation-filters="sRGB">
<feFlood flood-opacity="0" result="BackgroundImageFix"/>
<feColorMatrix in="SourceAlpha" type="matrix" values="0 0 0 0 0 0 0 0 0 0 0 0 0 0 0 0 0 0 127 0" result="hardAlpha"/>
<feOffset dy="1.89295"/>
<feGaussianBlur stdDeviation="3.78589"/>
<feColorMatrix type="matrix" values="0 0 0 0 0 0 0 0 0 0 0 0 0 0 0 0 0 0 0.14 0"/>
<feBlend mode="normal" in2="BackgroundImageFix" result="effect1_dropShadow_7291_1088"/>
<feBlend mode="normal" in="SourceGraphic" in2="effect1_dropShadow_7291_1088" result="shape"/>
</filter>
</defs>
</svg>
