<svg width="29" height="29" viewBox="0 0 29 29" fill="none" xmlns="http://www.w3.org/2000/svg">
<path d="M18.9506 22.621C17.5658 23.3938 15.9698 23.7394 14.2658 23.7394C8.62338 23.7394 4.28418 19.2946 4.28418 13.7026C4.28418 8.03138 8.83698 3.69458 14.2394 3.69458C19.5362 3.69458 24.1682 7.95458 24.1682 13.7842C24.1682 16.3666 23.2898 18.6298 21.6386 20.4922L24.965 24.7786H20.6282L18.9506 22.621ZM19.3514 17.5354C20.0978 16.417 20.4962 15.1138 20.4962 13.7554C20.4962 10.2154 17.861 7.17938 14.2394 7.17938C10.7786 7.17938 7.95618 9.84098 7.95618 13.7818C7.95618 17.6938 10.9106 20.2498 14.2658 20.2498C15.0914 20.2498 15.9698 20.0626 16.7138 19.7434L13.2818 15.3274H17.6474L19.3514 17.5354Z" fill="#222224"/>
</svg>
