<svg width="187" height="111" viewBox="0 0 187 111" fill="none" xmlns="http://www.w3.org/2000/svg">
<g filter="url(#filter0_d_7291_1070)">
<path d="M7.625 21.7854C7.625 12.9488 14.7884 5.7854 23.625 5.7854H162.625C171.462 5.7854 178.625 12.9488 178.625 21.7854V84.7854C178.625 93.622 171.462 100.785 162.625 100.785H7.625V21.7854Z" fill="white"/>
<path d="M29.823 36.8454C30.341 36.9014 31.069 36.9294 31.545 36.9294H38.601C39.007 36.9294 39.595 36.9154 39.833 36.9014C39.819 37.2234 39.791 37.7834 39.791 38.1894V45.4414C39.791 45.9314 39.819 46.6734 39.847 47.0934H37.817C37.831 46.8694 37.831 46.6314 37.831 46.3654H31.447C30.901 46.3654 30.103 46.4074 29.641 46.4494V44.4474C30.131 44.4894 30.761 44.5314 31.391 44.5314H37.845V38.7354H31.559C30.971 38.7354 30.215 38.7634 29.823 38.7914V36.8454ZM53.861 37.2934C53.749 37.4474 53.497 37.8814 53.371 38.1614C52.895 39.2534 52.111 40.7514 51.173 42.0114C52.559 43.2154 54.253 45.0074 55.079 46.0154L53.483 47.4014C52.573 46.1414 51.271 44.7134 49.955 43.4394C48.471 45.0074 46.609 46.4634 44.691 47.3734L43.249 45.8614C45.503 45.0214 47.673 43.3134 48.989 41.8434C49.913 40.7934 50.767 39.4074 51.075 38.4134H46.329C45.741 38.4134 44.971 38.4974 44.677 38.5114V36.5234C45.055 36.5794 45.909 36.6214 46.329 36.6214H51.271C51.873 36.6214 52.433 36.5374 52.713 36.4394L53.861 37.2934ZM61.141 45.4414V37.3914C61.141 36.9014 61.099 36.2014 61.001 35.7114H63.185C63.129 36.2014 63.059 36.8174 63.059 37.3914V39.4634C64.935 40.0094 67.623 41.0034 68.911 41.6334L68.113 43.5654C66.671 42.8094 64.571 41.9974 63.059 41.4794V45.4414C63.059 45.8474 63.129 46.8274 63.185 47.4014H61.001C61.085 46.8414 61.141 46.0014 61.141 45.4414ZM74.161 38.0774L72.719 38.6234C72.593 37.9094 72.215 36.7614 71.851 35.9354L73.209 35.4594C73.615 36.2854 74.007 37.3634 74.161 38.0774ZM73.979 43.4814H76.849V42.5714H73.979V43.4814ZM76.849 40.3034H73.979V41.1714H76.849V40.3034ZM78.459 38.7494V46.0574C78.459 46.8274 78.319 47.2614 77.815 47.5274C77.339 47.7794 76.681 47.8074 75.701 47.8074C75.645 47.3594 75.449 46.6734 75.253 46.2534C75.799 46.2814 76.401 46.2814 76.597 46.2814C76.779 46.2674 76.849 46.2114 76.849 46.0294V44.8814H73.979V47.8354H72.383V38.7494H74.567V34.9274H76.219V38.7494H78.459ZM77.983 38.5394L76.597 38.1894C76.933 37.4054 77.297 36.2154 77.479 35.3474L79.131 35.7114C78.767 36.7334 78.333 37.8254 77.983 38.5394ZM81.147 36.6214V44.4334H79.537V36.6214H81.147ZM82.617 35.1934H84.269V45.9594C84.269 46.9394 84.073 47.3874 83.499 47.6674C82.925 47.9474 81.987 48.0034 80.713 47.9894C80.643 47.5134 80.391 46.7434 80.139 46.2674C81.049 46.3094 81.945 46.3094 82.239 46.3094C82.505 46.2954 82.617 46.2114 82.617 45.9454V35.1934ZM90.205 36.3414L89.211 37.6854C88.749 37.2234 87.755 36.5934 86.943 36.2294L87.881 34.9974C88.665 35.3334 89.701 35.8934 90.205 36.3414ZM89.519 40.0374L88.539 41.3814C88.077 40.9334 87.083 40.3454 86.299 39.9954L87.209 38.7634C88.007 39.0714 89.015 39.5894 89.519 40.0374ZM88.189 42.2354L89.533 43.1034C89.057 44.6434 88.455 46.3094 87.881 47.7094L86.369 46.8834C86.901 45.7634 87.657 43.9294 88.189 42.2354ZM93.929 42.4314H92.963V43.9294H93.929V42.4314ZM95.035 45.1474H92.963V45.9034H91.871V41.2274H95.035V45.1474ZM94.923 39.2254V40.4434H91.941V39.2254H94.923ZM97.737 39.3514L99.165 39.6174C98.745 41.4374 98.143 43.0474 97.345 44.4194C97.569 45.4134 97.807 45.9874 98.059 46.0014C98.255 46.0154 98.395 45.3014 98.465 44.0134C98.731 44.3354 99.375 44.7414 99.641 44.8674C99.291 47.4154 98.605 47.9614 98.031 47.9614C97.261 47.9474 96.673 47.2614 96.239 46.0154C95.637 46.7434 94.951 47.3734 94.195 47.9054C93.971 47.6254 93.425 47.0934 93.103 46.8414C94.181 46.1834 95.063 45.3294 95.777 44.2794C95.469 42.7254 95.273 40.7374 95.161 38.4414H91.479V40.8774C91.479 42.9774 91.283 46.0294 90.107 47.9894C89.841 47.7234 89.211 47.3034 88.861 47.1494C89.925 45.3434 90.023 42.7674 90.023 40.8774V36.9714H95.091C95.063 36.3554 95.049 35.7254 95.035 35.0814H96.561C96.561 35.7254 96.575 36.3554 96.603 36.9714H98.185C97.779 36.5794 97.177 36.1174 96.631 35.7954L97.527 34.9554C98.157 35.3054 98.955 35.8654 99.319 36.2994L98.633 36.9714H99.207V38.4414H96.673C96.743 39.7434 96.841 40.9474 96.967 41.9974C97.289 41.1854 97.541 40.3034 97.737 39.3514ZM107.425 39.6734C108.405 39.6734 109.217 40.4854 109.217 41.4654C109.217 42.4454 108.405 43.2574 107.425 43.2574C106.445 43.2574 105.633 42.4454 105.633 41.4654C105.633 40.4854 106.445 39.6734 107.425 39.6734ZM125.765 38.9454H123.539C123.819 40.2754 124.197 41.4934 124.729 42.5714C125.219 41.5494 125.555 40.3454 125.765 38.9454ZM128.523 38.9454H127.487C127.137 41.0594 126.577 42.7814 125.737 44.1954C126.507 45.1894 127.501 45.9874 128.747 46.4914C128.355 46.8274 127.837 47.4994 127.599 47.9754C126.395 47.4014 125.443 46.6174 124.659 45.6374C123.735 46.6454 122.573 47.4434 121.103 48.0594C120.921 47.6814 120.417 46.9394 120.095 46.5754C121.663 46.0154 122.825 45.2454 123.707 44.1954C123.175 43.2154 122.769 42.1094 122.433 40.8914C122.237 41.2134 122.027 41.4934 121.803 41.7594C121.635 41.5914 121.313 41.3534 121.005 41.1294V41.6334H119.395V41.1714H117.477V43.9294C117.477 44.4194 117.561 44.4894 118.065 44.4894H119.493C119.913 44.4894 119.997 44.2934 120.053 43.0194C120.389 43.2714 121.089 43.5514 121.537 43.6494C121.341 45.5534 120.907 46.0434 119.647 46.0434H117.827C116.301 46.0434 115.853 45.5954 115.853 43.9434V39.6594H119.395V37.5314H115.867V35.9914H121.005V39.8414C121.887 38.5534 122.503 36.7894 122.853 34.9414L124.589 35.2494C124.435 35.9774 124.253 36.6914 124.029 37.3774H128.523V38.9454ZM139.331 45.3434H133.745V46.2954H139.331V45.3434ZM132.107 48.0034V44.0694H141.039V47.9614H139.331V47.5694H133.745V48.0034H132.107ZM135.649 41.0874H133.857C134.081 41.4374 134.291 41.8714 134.375 42.1654L133.941 42.2774H135.649V41.0874ZM139.247 41.0874H137.357V42.2774H139.317L138.715 42.1794C138.883 41.8714 139.093 41.4374 139.247 41.0874ZM140.367 42.2774H142.887V43.5514H130.217V42.2774H132.695C132.569 41.9274 132.373 41.5354 132.177 41.2134L132.779 41.0874H130.665V39.8694H135.649V39.3094H131.967V38.1334H135.649V37.6154H131.057V36.3974H133.367C133.227 36.0334 133.031 35.6134 132.821 35.2914L134.347 34.9134C134.655 35.3334 134.949 35.9214 135.089 36.3274L134.851 36.3974H137.987L137.917 36.3834C138.155 35.9494 138.463 35.3334 138.603 34.8994L140.353 35.1654C140.087 35.6414 139.849 36.0614 139.625 36.3974H142.047V37.6154H137.357V38.1334H141.151V39.3094H137.357V39.8694H142.467V41.0874H140.549L141.025 41.1574C140.773 41.6054 140.563 41.9834 140.367 42.2774ZM150.475 35.8234C150.391 36.1874 150.293 36.6354 150.223 36.9854C150.139 37.4054 150.027 37.9234 149.929 38.4274C150.405 38.3994 150.811 38.3714 151.105 38.3714C152.589 38.3714 153.639 39.0294 153.639 41.0454C153.639 42.6974 153.443 44.9654 152.841 46.1834C152.379 47.1634 151.609 47.4714 150.545 47.4714C150.013 47.4714 149.341 47.3734 148.865 47.2754L148.571 45.4274C149.103 45.5814 149.915 45.7214 150.279 45.7214C150.755 45.7214 151.105 45.5814 151.329 45.1194C151.707 44.3214 151.903 42.6274 151.903 41.2414C151.903 40.1214 151.413 39.9674 150.545 39.9674C150.321 39.9674 149.971 39.9954 149.565 40.0234C149.033 42.1514 147.997 45.4694 146.709 47.5274L144.889 46.7994C146.247 44.9654 147.213 42.1374 147.731 40.2194C147.227 40.2754 146.779 40.3314 146.527 40.3594C146.121 40.4294 145.393 40.5274 144.959 40.5974L144.791 38.6934C145.309 38.7354 145.771 38.7074 146.289 38.6934C146.723 38.6794 147.381 38.6374 148.095 38.5674C148.291 37.5174 148.417 36.4954 148.389 35.6134L150.475 35.8234ZM156.705 34.6614C157.069 35.1934 157.587 36.0754 157.825 36.5654L156.719 37.0414C156.425 36.4674 155.977 35.6414 155.585 35.1094L156.705 34.6614ZM155.039 35.2914C155.389 35.8094 155.893 36.6914 156.159 37.2094L155.473 37.5034C156.313 38.8054 157.363 41.1434 157.755 42.3894L155.977 43.2014C155.613 41.6474 154.619 39.1834 153.625 37.9514L154.885 37.4054C154.605 36.8734 154.255 36.2014 153.933 35.7534L155.039 35.2914Z" fill="#222224"/>
<path d="M31.561 63.9934H39.689C38.025 62.7774 36.489 61.3214 35.561 60.0254C34.649 61.3214 33.225 62.7614 31.561 63.9934ZM36.569 69.1774V71.0814H42.489V72.7934H28.873V71.0814H34.585V69.1774H30.153V67.5134H34.585V65.6734H30.969V64.4094C30.393 64.8094 29.801 65.1774 29.193 65.5134C28.953 65.0654 28.425 64.3774 27.993 63.9774C30.729 62.6014 33.305 60.1374 34.489 58.1854H36.457C38.169 60.6174 40.777 62.7134 43.305 63.7854C42.809 64.2974 42.393 64.9054 42.041 65.4974C41.465 65.1774 40.889 64.8254 40.313 64.4254V65.6734H36.569V67.5134H41.049V69.1774H36.569ZM59.497 60.4894L58.041 61.3374C57.785 60.7294 57.145 59.8014 56.585 59.1294L57.961 58.3774C58.537 59.0174 59.225 59.8814 59.497 60.4894ZM46.729 73.1934L44.921 72.4574C45.625 71.7854 46.313 70.5534 46.681 69.3854L48.521 69.8334C48.169 71.0494 47.497 72.3614 46.729 73.1934ZM49.593 69.9454L51.353 69.7374C51.545 70.7134 51.737 71.9774 51.753 72.7294L49.897 73.0014C49.897 72.2334 49.769 70.9214 49.593 69.9454ZM49.145 64.6174C49.353 64.3454 49.529 64.0574 49.705 63.7534C49.241 63.3854 48.537 62.9374 47.881 62.5694C47.705 62.8254 47.513 63.0654 47.321 63.3054C47.961 63.7054 48.665 64.1854 49.145 64.6174ZM50.841 61.0654H48.857L48.633 61.4494C49.225 61.7374 49.865 62.1054 50.361 62.4414C50.537 62.0094 50.697 61.5454 50.841 61.0654ZM59.385 63.1454H56.665C57.241 65.1614 58.249 66.7934 59.913 67.6414C59.481 67.9934 58.905 68.7614 58.633 69.2734C57.273 68.4414 56.345 67.1774 55.705 65.5614C55.097 66.9214 53.977 68.2014 52.009 69.2094C51.705 68.7934 51.145 68.2174 50.681 67.8814C53.337 66.5374 54.233 64.7934 54.505 63.1454H52.489V61.8814C51.289 65.5454 49.113 67.9774 46.425 69.2734C46.153 68.8414 45.497 68.1054 45.081 67.8174C46.233 67.3214 47.273 66.6334 48.153 65.7694C47.705 65.3214 47.017 64.7934 46.361 64.3454C46.201 64.5054 46.025 64.6494 45.865 64.7934C45.545 64.4414 44.985 63.8654 44.601 63.5774C46.297 62.2494 47.657 59.9614 48.281 58.0894L50.073 58.5374C49.945 58.8734 49.801 59.2254 49.641 59.5614H51.481L51.785 59.4974L53.001 59.9774C52.905 60.4574 52.777 60.9214 52.649 61.3694H54.617V58.4574H56.409V61.3694H59.385V63.1454ZM52.761 69.9774L54.553 69.6734C54.937 70.6174 55.337 71.8654 55.481 72.6494L53.577 73.0174C53.481 72.2494 53.113 70.9534 52.761 69.9774ZM55.961 69.8974L57.785 69.3214C58.505 70.2974 59.401 71.6414 59.801 72.5214L57.849 73.1774C57.529 72.3294 56.665 70.9214 55.961 69.8974ZM70.761 63.1294V62.1214H68.681V63.1294H70.761ZM70.761 65.7214V64.6654H68.681V65.7214H70.761ZM70.761 68.3454V67.2574H68.681V68.3454H70.761ZM66.841 69.9454V63.8174C66.553 64.1214 66.265 64.3934 65.977 64.6494C65.689 64.2654 64.985 63.4974 64.585 63.1454C66.057 62.0254 67.385 60.1854 68.121 58.2814L70.009 58.8254C69.769 59.4014 69.497 59.9614 69.193 60.5214H71.017C71.289 59.8174 71.529 59.0334 71.689 58.4094L73.785 58.8094C73.497 59.3854 73.209 59.9774 72.921 60.5214H75.753V62.1214H72.569V63.1294H75.321V64.6654H72.569V65.7214H75.257V67.2574H72.569V68.3454H76.025V69.9454H66.841ZM65.593 61.1774L64.025 62.3774C63.577 61.5934 62.521 60.4894 61.625 59.7214L63.081 58.6334C63.977 59.3534 65.081 60.4094 65.593 61.1774ZM65.161 64.4414V69.5454C65.785 70.6174 66.905 71.0654 68.537 71.1294C70.457 71.2094 74.233 71.1614 76.441 70.9854C76.217 71.4334 75.945 72.3134 75.849 72.8414C73.865 72.9374 70.473 72.9694 68.521 72.8894C66.617 72.8094 65.337 72.3454 64.377 71.1134C63.737 71.7374 63.081 72.3454 62.265 73.0334L61.369 71.1454C61.993 70.7454 62.713 70.2174 63.353 69.6734V66.1854H61.561V64.4414H65.161ZM82.089 69.9774C82.089 70.5854 82.665 70.9534 83.769 70.9534C84.617 70.9534 85.177 70.7134 85.177 69.7854C85.177 69.6094 85.177 69.3854 85.161 69.0974C84.729 69.0334 84.297 68.9854 83.849 68.9854C82.713 68.9854 82.089 69.4334 82.089 69.9774ZM87.097 58.8414C87.049 59.1614 87.017 59.5614 87.001 59.9774C86.985 60.1374 86.985 60.3774 86.985 60.6334C88.297 60.5694 89.625 60.4414 91.033 60.2014L91.017 62.0414C89.961 62.1694 88.505 62.3134 86.953 62.3934C86.953 62.9534 86.953 63.5454 86.953 64.0414C88.569 63.9614 89.929 63.8334 91.225 63.6574L91.209 65.5454C89.769 65.7054 88.521 65.8174 86.985 65.8654C87.017 66.4734 87.049 67.1294 87.097 67.7694C89.113 68.3454 90.649 69.4174 91.577 70.1854L90.425 71.9774C89.561 71.1774 88.473 70.3294 87.193 69.7534C87.209 69.9774 87.209 70.1694 87.209 70.3454C87.209 71.7054 86.169 72.7614 84.057 72.7614C81.497 72.7614 80.153 71.7854 80.153 70.0894C80.153 68.4734 81.641 67.3374 84.105 67.3374C84.441 67.3374 84.777 67.3534 85.097 67.3854C85.065 66.8894 85.049 66.3774 85.033 65.8974C84.761 65.8974 84.489 65.8974 84.201 65.8974C83.273 65.8974 81.449 65.8174 80.393 65.6894L80.377 63.8014C81.417 63.9934 83.385 64.1054 84.233 64.1054C84.489 64.1054 84.745 64.1054 85.001 64.1054C85.001 63.5774 85.001 63.0014 85.017 62.4574C84.809 62.4574 84.617 62.4574 84.425 62.4574C83.417 62.4574 81.561 62.3134 80.505 62.1694L80.457 60.3454C81.609 60.5374 83.433 60.6974 84.409 60.6974C84.617 60.6974 84.825 60.6974 85.033 60.6974C85.033 60.3934 85.033 60.1374 85.033 59.9454C85.033 59.6414 85.001 59.1454 84.937 58.8414H87.097ZM101.737 58.9054C101.609 59.4174 101.401 60.2334 101.161 61.0974C101.945 60.9534 102.697 60.7774 103.321 60.5854L103.385 62.4414C102.649 62.6334 101.657 62.8414 100.585 63.0014C99.817 65.2414 98.457 68.0414 97.161 69.8494L95.225 68.8574C96.489 67.2894 97.785 64.9374 98.489 63.2094C98.201 63.2254 97.929 63.2254 97.657 63.2254C97.001 63.2254 96.345 63.2094 95.657 63.1614L95.513 61.3054C96.201 61.3854 97.049 61.4174 97.641 61.4174C98.121 61.4174 98.601 61.4014 99.097 61.3534C99.321 60.4734 99.497 59.5134 99.529 58.6814L101.737 58.9054ZM100.905 69.9774C100.905 70.5694 101.401 70.9694 102.281 70.9694C103.385 70.9694 103.721 70.3614 103.721 69.4814C103.721 69.3854 103.721 69.2894 103.721 69.1614C103.305 69.0654 102.873 69.0014 102.425 69.0014C101.497 69.0014 100.905 69.4174 100.905 69.9774ZM105.481 63.8814C105.433 64.5534 105.465 65.2254 105.481 65.9294C105.497 66.3934 105.545 67.1614 105.577 67.9614C106.953 68.4734 108.073 69.2734 108.889 70.0094L107.817 71.7214C107.257 71.2094 106.537 70.5374 105.657 70.0094C105.657 70.0574 105.657 70.1214 105.657 70.1694C105.657 71.6574 104.841 72.8094 102.569 72.8094C100.585 72.8094 99.017 71.9294 99.017 70.1694C99.017 68.6014 100.329 67.4014 102.553 67.4014C102.937 67.4014 103.289 67.4334 103.657 67.4654C103.593 66.2814 103.513 64.8574 103.481 63.8814H105.481ZM108.233 64.7294C107.305 63.9934 105.481 62.9534 104.393 62.4574L105.417 60.8734C106.569 61.3694 108.553 62.4574 109.369 63.0494L108.233 64.7294ZM114.985 60.3454C114.873 60.9214 114.793 61.8494 114.793 62.2974C114.777 63.3374 114.793 64.5374 114.889 65.6894C115.113 67.9934 115.593 69.5774 116.601 69.5774C117.353 69.5774 117.993 67.7054 118.297 66.4254L119.897 68.3774C118.841 71.1614 117.833 72.1374 116.553 72.1374C114.793 72.1374 113.273 70.5534 112.825 66.2654C112.665 64.7934 112.649 62.9214 112.649 61.9454C112.649 61.4974 112.617 60.8094 112.521 60.3134L114.985 60.3454ZM122.985 60.7134C124.505 62.5534 125.721 66.5534 125.897 69.0014L123.801 69.8174C123.545 67.2414 122.697 63.3534 120.953 61.3694L122.985 60.7134Z" fill="#2587CA"/>
<path d="M16.9382 25.5817C15.5071 25.5817 14.7348 24.4459 14.7348 22.4924C14.7348 20.1755 15.8705 18.4264 18.1421 17.2452L18.9144 18.7217C17.4379 19.5167 16.6883 20.4935 16.6883 21.9473C16.7792 21.9245 16.8473 21.9245 16.9382 21.9245C17.9149 21.9245 18.7554 22.5833 18.7554 23.6736C18.7554 24.8548 18.0058 25.5817 16.9382 25.5817ZM22.617 25.5817C21.1859 25.5817 20.4136 24.4459 20.4136 22.4924C20.4136 20.1755 21.5494 18.4264 23.8209 17.2452L24.5932 18.7217C23.1167 19.5167 22.3671 20.4935 22.3671 21.9473C22.458 21.9245 22.5261 21.9245 22.617 21.9245C23.5938 21.9245 24.4342 22.5833 24.4342 23.6736C24.4342 24.8548 23.6619 25.5817 22.617 25.5817Z" fill="#F9CA53"/>
<path d="M158.354 90.0017L157.581 88.548C159.058 87.7302 159.807 86.7762 159.807 85.2997C159.717 85.3224 159.648 85.3224 159.558 85.3224C158.581 85.3224 157.74 84.6636 157.74 83.5733C157.74 82.4148 158.513 81.6652 159.558 81.6652C160.989 81.6652 161.761 82.801 161.761 84.7318C161.761 87.0715 160.625 88.8433 158.354 90.0017ZM164.033 90.0017L163.26 88.548C164.737 87.7302 165.486 86.7762 165.486 85.2997C165.395 85.3224 165.327 85.3224 165.236 85.3224C164.26 85.3224 163.419 84.6636 163.419 83.5733C163.419 82.4148 164.192 81.6652 165.236 81.6652C166.668 81.6652 167.44 82.801 167.44 84.7318C167.44 87.0715 166.304 88.8433 164.033 90.0017Z" fill="#F9CA53"/>
</g>
<defs>
<filter id="filter0_d_7291_1070" x="0.0532184" y="0.106564" width="186.144" height="110.144" filterUnits="userSpaceOnUse" color-interpolation-filters="sRGB">
<feFlood flood-opacity="0" result="BackgroundImageFix"/>
<feColorMatrix in="SourceAlpha" type="matrix" values="0 0 0 0 0 0 0 0 0 0 0 0 0 0 0 0 0 0 127 0" result="hardAlpha"/>
<feOffset dy="1.89295"/>
<feGaussianBlur stdDeviation="3.78589"/>
<feColorMatrix type="matrix" values="0 0 0 0 0 0 0 0 0 0 0 0 0 0 0 0 0 0 0.14 0"/>
<feBlend mode="normal" in2="BackgroundImageFix" result="effect1_dropShadow_7291_1070"/>
<feBlend mode="normal" in="SourceGraphic" in2="effect1_dropShadow_7291_1070" result="shape"/>
</filter>
</defs>
</svg>
