<svg width="25" height="25" viewBox="0 0 25 25" fill="none" xmlns="http://www.w3.org/2000/svg">
<g id="close">
<path id="Vector" d="M18.9247 5.94654C18.5347 5.55654 17.9047 5.55654 17.5147 5.94654L12.6247 10.8265L7.73473 5.93654C7.34473 5.54654 6.71473 5.54654 6.32473 5.93654C5.93473 6.32654 5.93473 6.95654 6.32473 7.34654L11.2147 12.2365L6.32473 17.1265C5.93473 17.5165 5.93473 18.1465 6.32473 18.5365C6.71473 18.9265 7.34473 18.9265 7.73473 18.5365L12.6247 13.6465L17.5147 18.5365C17.9047 18.9265 18.5347 18.9265 18.9247 18.5365C19.3147 18.1465 19.3147 17.5165 18.9247 17.1265L14.0347 12.2365L18.9247 7.34654C19.3047 6.96654 19.3047 6.32654 18.9247 5.94654Z" fill="#12B3C7"/>
</g>
</svg>
