<svg width="41" height="41" viewBox="0 0 41 41" fill="none" xmlns="http://www.w3.org/2000/svg">
<path d="M26.625 21.2366H21.625V26.2366C21.625 26.7866 21.175 27.2366 20.625 27.2366C20.075 27.2366 19.625 26.7866 19.625 26.2366V21.2366H14.625C14.075 21.2366 13.625 20.7866 13.625 20.2366C13.625 19.6866 14.075 19.2366 14.625 19.2366H19.625V14.2366C19.625 13.6866 20.075 13.2366 20.625 13.2366C21.175 13.2366 21.625 13.6866 21.625 14.2366V19.2366H26.625C27.175 19.2366 27.625 19.6866 27.625 20.2366C27.625 20.7866 27.175 21.2366 26.625 21.2366Z" fill="#12B3C7"/>
</svg>
