<svg width="176" height="111" viewBox="0 0 176 111" fill="none" xmlns="http://www.w3.org/2000/svg">
<g filter="url(#filter0_d_7291_1111)">
<path d="M7.625 21.7854C7.625 12.9488 14.7884 5.7854 23.625 5.7854H151.625C160.462 5.7854 167.625 12.9488 167.625 21.7854V84.7854C167.625 93.622 160.462 100.785 151.625 100.785H7.625V21.7854Z" fill="white"/>
<path d="M36.347 38.5674H33.001C33.197 38.9314 33.379 39.3514 33.477 39.6454L33.239 39.6874H35.857C36.025 39.3514 36.193 38.9454 36.347 38.5674ZM40.869 44.8114H36.809C37.999 45.5394 39.623 46.0854 41.247 46.3374C40.869 46.7014 40.379 47.4014 40.127 47.8494C38.405 47.4154 36.711 46.5754 35.423 45.4834V48.0034H33.785V45.5674C32.483 46.5894 30.761 47.4014 29.095 47.8354C28.857 47.4294 28.381 46.7854 28.031 46.4494C29.599 46.1274 31.251 45.5394 32.455 44.8114H28.437V43.4394H33.785V42.8234H29.753V41.6194H33.785V40.9894H29.053V39.6874H31.713C31.601 39.3374 31.419 38.9174 31.237 38.5954L31.405 38.5674H28.479V37.2094H30.355C30.159 36.6774 29.795 36.0054 29.487 35.4734L30.915 34.9834C31.321 35.5854 31.783 36.4114 31.979 36.9574L31.293 37.2094H32.567V34.9274H34.121V37.2094H35.157V34.9274H36.725V37.2094H37.971L37.467 37.0554C37.803 36.4814 38.153 35.6414 38.349 35.0254L40.099 35.4454C39.707 36.0894 39.329 36.7194 39.007 37.2094H40.827V38.5674H38.195C37.971 38.9734 37.747 39.3514 37.537 39.6874H40.281V40.9894H35.423V41.6194H39.623V42.8234H35.423V43.4394H40.869V44.8114ZM52.237 42.7254H55.359C55.359 42.7254 55.331 43.1594 55.303 43.3554C55.079 45.7774 54.827 46.8554 54.421 47.3034C54.113 47.6254 53.819 47.7374 53.399 47.7934C53.049 47.8354 52.475 47.8494 51.831 47.8214C51.817 47.3594 51.635 46.7154 51.383 46.2814C51.887 46.3374 52.363 46.3514 52.587 46.3514C52.783 46.3514 52.895 46.3234 53.035 46.1974C53.231 46.0154 53.413 45.4134 53.567 44.1114H51.943C51.467 45.7774 50.473 47.1354 48.261 48.0034C48.079 47.6114 47.645 47.0234 47.295 46.7154C48.975 46.0994 49.787 45.2034 50.221 44.1114H48.527V42.7254H50.571C50.641 42.3194 50.683 41.9134 50.711 41.4794H52.377C52.335 41.8994 52.293 42.3194 52.237 42.7254ZM52.853 37.7134H50.767C51.075 38.1474 51.467 38.5534 51.929 38.9034C52.307 38.5674 52.615 38.1614 52.853 37.7134ZM55.513 37.7134H54.701C54.337 38.5114 53.875 39.1834 53.301 39.7574C54.071 40.1214 54.939 40.4014 55.877 40.5834C55.513 40.9194 55.051 41.5774 54.827 41.9974C53.763 41.7314 52.811 41.3114 51.971 40.7934C51.145 41.2974 50.179 41.6754 49.115 41.9694C49.031 41.8154 48.891 41.6054 48.723 41.3814C48.527 42.2494 48.289 43.0894 48.037 43.7194L46.917 43.2014C47.071 42.6834 47.239 41.9834 47.365 41.2694H46.623V46.1974C46.623 46.9534 46.511 47.4014 46.021 47.6534C45.545 47.9194 44.915 47.9474 44.047 47.9474C44.005 47.4854 43.781 46.8134 43.571 46.3654C44.089 46.3794 44.649 46.3794 44.831 46.3794C44.999 46.3654 45.055 46.3374 45.055 46.1694V43.1734C44.565 44.2094 43.977 45.1474 43.305 45.7634C43.165 45.2874 42.801 44.6014 42.549 44.1534C43.319 43.4674 44.047 42.3754 44.537 41.2694H42.787V39.8134H45.993C45.209 39.3374 44.159 38.8054 43.291 38.4554L44.341 37.3914C44.677 37.5174 45.069 37.6714 45.447 37.8394C45.755 37.5734 46.063 37.2654 46.329 36.9574H42.969V35.5574H47.491L47.743 35.5014L48.807 36.1734C48.331 36.9574 47.547 37.8114 46.763 38.4834C47.169 38.6934 47.519 38.9034 47.785 39.0994L47.099 39.8134H47.771L47.995 39.7434L49.003 40.0794L48.947 40.4014C49.563 40.2334 50.151 40.0234 50.655 39.7574C50.291 39.4074 49.955 39.0154 49.661 38.5954C49.451 38.8194 49.241 39.0154 49.031 39.1974C48.709 38.9314 48.065 38.4834 47.673 38.2594C48.765 37.4754 49.801 36.2154 50.347 34.9274L51.901 35.3474C51.747 35.6834 51.579 36.0054 51.383 36.3274H55.513V37.7134ZM63.115 35.8234C63.031 36.1874 62.933 36.6354 62.863 36.9854C62.779 37.4054 62.667 37.9234 62.569 38.4274C63.045 38.3994 63.451 38.3714 63.745 38.3714C65.229 38.3714 66.279 39.0294 66.279 41.0454C66.279 42.6974 66.083 44.9654 65.481 46.1834C65.019 47.1634 64.249 47.4714 63.185 47.4714C62.653 47.4714 61.981 47.3734 61.505 47.2754L61.211 45.4274C61.743 45.5814 62.555 45.7214 62.919 45.7214C63.395 45.7214 63.745 45.5814 63.969 45.1194C64.347 44.3214 64.543 42.6274 64.543 41.2414C64.543 40.1214 64.053 39.9674 63.185 39.9674C62.961 39.9674 62.611 39.9954 62.205 40.0234C61.673 42.1514 60.637 45.4694 59.349 47.5274L57.529 46.7994C58.887 44.9654 59.853 42.1374 60.371 40.2194C59.867 40.2754 59.419 40.3314 59.167 40.3594C58.761 40.4294 58.033 40.5274 57.599 40.5974L57.431 38.6934C57.949 38.7354 58.411 38.7074 58.929 38.6934C59.363 38.6794 60.021 38.6374 60.735 38.5674C60.931 37.5174 61.057 36.4954 61.029 35.6134L63.115 35.8234ZM69.345 34.6614C69.709 35.1934 70.227 36.0754 70.465 36.5654L69.359 37.0414C69.065 36.4674 68.617 35.6414 68.225 35.1094L69.345 34.6614ZM67.679 35.2914C68.029 35.8094 68.533 36.6914 68.799 37.2094L68.113 37.5034C68.953 38.8054 70.003 41.1434 70.395 42.3894L68.617 43.2014C68.253 41.6474 67.259 39.1834 66.265 37.9514L67.525 37.4054C67.245 36.8734 66.895 36.2014 66.573 35.7534L67.679 35.2914Z" fill="#222224"/>
<path d="M40.105 60.3294H31.577V61.2094H40.105V60.3294ZM42.025 62.6654H31.577V63.5774C31.577 66.3614 31.337 70.4894 29.721 73.0974C29.369 72.8254 28.537 72.3294 28.057 72.1534C29.593 69.7054 29.705 66.1214 29.705 63.5774V58.8734H42.025V62.6654ZM40.217 71.8974H40.297C40.457 71.8974 40.505 71.8654 40.505 71.7054V69.7214H37.785V70.5854L38.537 70.5694C38.473 70.3934 38.409 70.2334 38.345 70.0894L39.433 69.8174C39.769 70.4734 40.089 71.3214 40.217 71.8974ZM34.153 66.8254H36.073V66.0734H34.153V66.8254ZM39.737 66.0734H37.785V66.8254H39.737V66.0734ZM42.249 68.4894V71.7054C42.249 72.4254 42.137 72.7454 41.657 72.9534C41.209 73.1614 40.553 73.1614 39.689 73.1614C39.641 72.8734 39.529 72.5534 39.401 72.2814L39.129 72.3614C39.097 72.1854 39.033 71.9774 38.969 71.7534C37.177 71.8654 35.401 71.9614 34.025 72.0414L33.913 70.7294L36.073 70.6494V69.7214H33.561V73.1774H31.833V68.4894H36.073V67.8814H32.473V65.0334H36.073V64.4574C34.889 64.5374 33.689 64.5694 32.585 64.5694C32.537 64.2334 32.377 63.7214 32.217 63.4174C35.097 63.3694 38.537 63.1774 40.409 62.7614L41.481 63.8334C40.425 64.0574 39.145 64.2174 37.785 64.3454V65.0334H41.513V67.8814H37.785V68.4894H42.249ZM50.937 58.6014H53.113C53.097 58.8574 53.081 59.1774 53.065 59.5134C53.193 61.7214 53.993 68.6174 59.961 71.4174C59.369 71.8654 58.793 72.5214 58.489 73.0334C54.873 71.2414 53.081 67.9454 52.185 65.0014C51.321 67.8814 49.641 70.9694 46.265 73.0334C45.929 72.5374 45.305 71.9614 44.665 71.5134C51.049 67.9774 50.825 60.7134 50.937 58.6014ZM65.465 58.4414L67.353 59.0654C66.889 60.1534 66.329 61.2414 65.689 62.2974V73.1454H63.785V64.9854C63.273 65.6094 62.729 66.1854 62.201 66.6814C61.993 66.2014 61.449 65.1454 61.097 64.6654C62.825 63.2094 64.505 60.8574 65.465 58.4414ZM71.353 71.2094H73.705C74.473 71.2094 74.601 70.6654 74.729 68.4094C75.177 68.7454 75.977 69.1134 76.489 69.2254C76.265 71.9774 75.769 72.9854 73.881 72.9854H71.145C69.129 72.9854 68.553 72.3454 68.553 70.0894V58.6494H70.473V64.1214C71.977 63.2574 73.449 62.2334 74.505 61.3214L75.913 62.9854C74.329 64.1054 72.345 65.1774 70.473 66.0734V70.1054C70.473 71.0494 70.585 71.2094 71.353 71.2094ZM83.481 59.0974C83.385 59.7694 83.305 60.5854 83.273 61.2254C83.209 62.9534 83.081 66.5374 83.081 68.5214C83.081 70.1374 84.041 70.6654 85.289 70.6654C87.929 70.6654 89.609 69.1454 90.761 67.4014L92.217 69.1614C91.193 70.6974 88.921 72.8414 85.273 72.8414C82.649 72.8414 80.953 71.6894 80.953 68.9534C80.953 66.8094 81.113 62.6014 81.113 61.2254C81.113 60.4734 81.049 59.7054 80.905 59.0654L83.481 59.0974ZM94.8366 60.7774C95.4766 60.7614 96.1006 60.7294 96.4206 60.6974C97.7486 60.5854 100.389 60.3454 103.317 60.0894C104.965 59.9614 106.725 59.8494 107.845 59.8174L107.861 61.8654C106.997 61.8814 105.621 61.8814 104.773 62.0734C102.837 62.5854 101.397 64.6654 101.397 66.5694C101.397 69.1934 103.861 70.1534 106.565 70.2974L105.813 72.4894C102.469 72.2654 99.3006 70.4574 99.3006 67.0014C99.3006 64.6974 100.597 62.8734 101.669 62.0574C100.165 62.2174 96.9006 62.5694 95.0446 62.9694L94.8366 60.7774ZM114.501 60.3454C114.389 60.9214 114.309 61.8494 114.309 62.2974C114.293 63.3374 114.309 64.5374 114.405 65.6894C114.629 67.9934 115.109 69.5774 116.117 69.5774C116.869 69.5774 117.509 67.7054 117.813 66.4254L119.413 68.3774C118.357 71.1614 117.349 72.1374 116.069 72.1374C114.309 72.1374 112.789 70.5534 112.341 66.2654C112.181 64.7934 112.165 62.9214 112.165 61.9454C112.165 61.4974 112.133 60.8094 112.037 60.3134L114.501 60.3454ZM122.501 60.7134C124.021 62.5534 125.237 66.5534 125.413 69.0014L123.317 69.8174C123.061 67.2414 122.213 63.3534 120.469 61.3694L122.501 60.7134ZM133.221 69.8974C133.221 70.4894 133.877 70.8894 134.837 70.8894C135.173 70.8894 135.477 70.8734 135.765 70.8414C135.669 69.8014 135.077 69.1294 134.213 69.1294C133.605 69.1294 133.221 69.4974 133.221 69.8974ZM130.501 59.5934C130.949 59.6574 131.509 59.6734 131.957 59.6734C132.805 59.6734 136.229 59.6094 137.141 59.5294C137.797 59.4654 138.165 59.4174 138.357 59.3534L139.397 60.7774C139.029 61.0174 138.645 61.2414 138.277 61.5134C137.413 62.1214 135.733 63.5294 134.725 64.3294C135.253 64.2014 135.733 64.1534 136.245 64.1534C138.965 64.1534 141.029 65.8494 141.029 68.1854C141.029 70.7134 139.109 72.7134 135.237 72.7134C133.013 72.7134 131.333 71.6894 131.333 70.0894C131.333 68.7934 132.501 67.5934 134.197 67.5934C136.181 67.5934 137.381 68.8094 137.605 70.3294C138.485 69.8654 138.933 69.1294 138.933 68.1534C138.933 66.7134 137.493 65.7374 135.605 65.7374C133.157 65.7374 131.557 67.0334 129.845 68.9854L128.389 67.4814C129.525 66.5694 131.461 64.9374 132.405 64.1534C133.301 63.4174 134.965 62.0734 135.749 61.3854C134.933 61.4014 132.725 61.4974 131.877 61.5454C131.445 61.5774 130.933 61.6254 130.565 61.6734L130.501 59.5934Z" fill="#2587CA"/>
<path d="M16.9382 25.5817C15.5071 25.5817 14.7348 24.4459 14.7348 22.4924C14.7348 20.1755 15.8705 18.4264 18.1421 17.2452L18.9144 18.7217C17.4379 19.5167 16.6883 20.4935 16.6883 21.9473C16.7792 21.9245 16.8473 21.9245 16.9382 21.9245C17.9149 21.9245 18.7554 22.5833 18.7554 23.6736C18.7554 24.8548 18.0058 25.5817 16.9382 25.5817ZM22.617 25.5817C21.1859 25.5817 20.4136 24.4459 20.4136 22.4924C20.4136 20.1755 21.5494 18.4264 23.8209 17.2452L24.5932 18.7217C23.1167 19.5167 22.3671 20.4935 22.3671 21.9473C22.458 21.9245 22.5261 21.9245 22.617 21.9245C23.5938 21.9245 24.4342 22.5833 24.4342 23.6736C24.4342 24.8548 23.6619 25.5817 22.617 25.5817Z" fill="#F9CA53"/>
<path d="M147.354 90.0017L146.581 88.548C148.058 87.7302 148.807 86.7762 148.807 85.2997C148.717 85.3224 148.648 85.3224 148.558 85.3224C147.581 85.3224 146.74 84.6636 146.74 83.5733C146.74 82.4148 147.513 81.6652 148.558 81.6652C149.989 81.6652 150.761 82.801 150.761 84.7318C150.761 87.0715 149.625 88.8433 147.354 90.0017ZM153.033 90.0017L152.26 88.548C153.737 87.7302 154.486 86.7762 154.486 85.2997C154.395 85.3224 154.327 85.3224 154.236 85.3224C153.26 85.3224 152.419 84.6636 152.419 83.5733C152.419 82.4148 153.192 81.6652 154.236 81.6652C155.668 81.6652 156.44 82.801 156.44 84.7318C156.44 87.0715 155.304 88.8433 153.033 90.0017Z" fill="#F9CA53"/>
</g>
<defs>
<filter id="filter0_d_7291_1111" x="0.0532184" y="0.106564" width="175.144" height="110.144" filterUnits="userSpaceOnUse" color-interpolation-filters="sRGB">
<feFlood flood-opacity="0" result="BackgroundImageFix"/>
<feColorMatrix in="SourceAlpha" type="matrix" values="0 0 0 0 0 0 0 0 0 0 0 0 0 0 0 0 0 0 127 0" result="hardAlpha"/>
<feOffset dy="1.89295"/>
<feGaussianBlur stdDeviation="3.78589"/>
<feColorMatrix type="matrix" values="0 0 0 0 0 0 0 0 0 0 0 0 0 0 0 0 0 0 0.14 0"/>
<feBlend mode="normal" in2="BackgroundImageFix" result="effect1_dropShadow_7291_1111"/>
<feBlend mode="normal" in="SourceGraphic" in2="effect1_dropShadow_7291_1111" result="shape"/>
</filter>
</defs>
</svg>
