<svg width="31" height="320" viewBox="0 0 31 320" fill="none" xmlns="http://www.w3.org/2000/svg">
<rect width="30" height="319.269" transform="translate(0.625 0.625183)" fill="#EBF4FB"/>
<path d="M19.675 139.36H17.29C17.59 140.785 17.995 142.09 18.565 143.245C19.09 142.15 19.45 140.86 19.675 139.36ZM22.63 139.36H21.52C21.145 141.625 20.545 143.47 19.645 144.985C20.47 146.05 21.535 146.905 22.87 147.445C22.45 147.805 21.895 148.525 21.64 149.035C20.35 148.42 19.33 147.58 18.49 146.53C17.5 147.61 16.255 148.465 14.68 149.125C14.485 148.72 13.945 147.925 13.6 147.535C15.28 146.935 16.525 146.11 17.47 144.985C16.9 143.935 16.465 142.75 16.105 141.445C15.895 141.79 15.67 142.09 15.43 142.375C15.25 142.195 14.905 141.94 14.575 141.7V142.24H12.85V141.745H10.795V144.7C10.795 145.225 10.885 145.3 11.425 145.3H12.955C13.405 145.3 13.495 145.09 13.555 143.725C13.915 143.995 14.665 144.295 15.145 144.4C14.935 146.44 14.47 146.965 13.12 146.965H11.17C9.535 146.965 9.055 146.485 9.055 144.715V140.125H12.85V137.845H9.07V136.195H14.575V140.32C15.52 138.94 16.18 137.05 16.555 135.07L18.415 135.4C18.25 136.18 18.055 136.945 17.815 137.68H22.63V139.36ZM18.61 165.215H12.625V166.235H18.61V165.215ZM10.87 168.065V163.85H20.44V168.02H18.61V167.6H12.625V168.065H10.87ZM14.665 160.655H12.745C12.985 161.03 13.21 161.495 13.3 161.81L12.835 161.93H14.665V160.655ZM18.52 160.655H16.495V161.93H18.595L17.95 161.825C18.13 161.495 18.355 161.03 18.52 160.655ZM19.72 161.93H22.42V163.295H8.845V161.93H11.5C11.365 161.555 11.155 161.135 10.945 160.79L11.59 160.655H9.325V159.35H14.665V158.75H10.72V157.49H14.665V156.935H9.745V155.63H12.22C12.07 155.24 11.86 154.79 11.635 154.445L13.27 154.04C13.6 154.49 13.915 155.12 14.065 155.555L13.81 155.63H17.17L17.095 155.615C17.35 155.15 17.68 154.49 17.83 154.025L19.705 154.31C19.42 154.82 19.165 155.27 18.925 155.63H21.52V156.935H16.495V157.49H20.56V158.75H16.495V159.35H21.97V160.655H19.915L20.425 160.73C20.155 161.21 19.93 161.615 19.72 161.93ZM11.485 173.07L13.06 173.685C12.115 174.975 10.72 176.43 9.475 177.345C9.25 176.985 8.815 176.355 8.545 176.04C9.61 175.29 10.855 174.045 11.485 173.07ZM11.755 176.265L13.315 176.85C12.985 177.45 12.595 178.065 12.175 178.665V187.095H10.51V180.675C10.12 181.095 9.73 181.455 9.34 181.785C9.175 181.395 8.695 180.495 8.41 180.12C9.655 179.175 10.975 177.72 11.755 176.265ZM16.135 182.145L16.12 182.16C16.51 182.7 17.02 183.18 17.605 183.615C18.175 183.18 18.655 182.7 19.045 182.145H16.135ZM20.26 180.75L21.37 181.245C20.86 182.565 20.065 183.63 19.09 184.485C20.17 184.995 21.43 185.37 22.825 185.58C22.45 185.955 21.985 186.645 21.76 187.11C20.17 186.795 18.79 186.27 17.62 185.535C16.375 186.27 14.92 186.795 13.375 187.14C13.21 186.69 12.835 185.985 12.52 185.625C13.855 185.4 15.115 185.01 16.21 184.455C15.775 184.065 15.37 183.63 15.025 183.15C14.575 183.495 14.125 183.81 13.675 184.08C13.435 183.735 12.865 183.075 12.52 182.76C13.795 182.115 15.025 181.125 15.865 179.985L12.865 180.075L12.715 178.5C13.39 178.5 14.17 178.5 15.025 178.485C15.235 178.305 15.46 178.11 15.67 177.915C14.98 177.21 13.93 176.37 13.03 175.785L14.095 174.63C14.35 174.795 14.635 174.975 14.92 175.17C15.505 174.495 16.135 173.67 16.525 173.01L18.07 173.805C17.425 174.57 16.69 175.38 16.06 176.01C16.375 176.265 16.675 176.52 16.915 176.76C17.83 175.875 18.685 174.93 19.33 174.105L20.905 174.975C19.825 176.115 18.49 177.39 17.23 178.455L19.915 178.41C19.675 178.065 19.42 177.75 19.165 177.45L20.545 176.685C21.415 177.66 22.405 179.01 22.825 179.97L21.325 180.81C21.205 180.525 21.04 180.18 20.83 179.82C19.84 179.865 18.82 179.895 17.845 179.925C17.665 180.225 17.47 180.525 17.26 180.81H19.975L20.26 180.75Z" fill="#2587CA"/>
<path d="M0.625 0.625183H30.625L15.625 15.6252L0.625 0.625183Z" fill="#EAEAEC"/>
</svg>
