<svg width="31" height="307" viewBox="0 0 31 307" fill="none" xmlns="http://www.w3.org/2000/svg">
<rect width="30" height="305.863" transform="translate(0.625 0.244171)" fill="#EBF4FB"/>
<path d="M19.675 132.276H17.29C17.59 133.701 17.995 135.006 18.565 136.161C19.09 135.066 19.45 133.776 19.675 132.276ZM22.63 132.276H21.52C21.145 134.541 20.545 136.386 19.645 137.901C20.47 138.966 21.535 139.821 22.87 140.361C22.45 140.721 21.895 141.441 21.64 141.951C20.35 141.336 19.33 140.496 18.49 139.446C17.5 140.526 16.255 141.381 14.68 142.041C14.485 141.636 13.945 140.841 13.6 140.451C15.28 139.851 16.525 139.026 17.47 137.901C16.9 136.851 16.465 135.666 16.105 134.361C15.895 134.706 15.67 135.006 15.43 135.291C15.25 135.111 14.905 134.856 14.575 134.616V135.156H12.85V134.661H10.795V137.616C10.795 138.141 10.885 138.216 11.425 138.216H12.955C13.405 138.216 13.495 138.006 13.555 136.641C13.915 136.911 14.665 137.211 15.145 137.316C14.935 139.356 14.47 139.881 13.12 139.881H11.17C9.535 139.881 9.055 139.401 9.055 137.631V133.041H12.85V130.761H9.07V129.111H14.575V133.236C15.52 131.856 16.18 129.966 16.555 127.986L18.415 128.316C18.25 129.096 18.055 129.861 17.815 130.596H22.63V132.276ZM18.61 158.131H12.625V159.151H18.61V158.131ZM10.87 160.981V156.766H20.44V160.936H18.61V160.516H12.625V160.981H10.87ZM14.665 153.571H12.745C12.985 153.946 13.21 154.411 13.3 154.726L12.835 154.846H14.665V153.571ZM18.52 153.571H16.495V154.846H18.595L17.95 154.741C18.13 154.411 18.355 153.946 18.52 153.571ZM19.72 154.846H22.42V156.211H8.845V154.846H11.5C11.365 154.471 11.155 154.051 10.945 153.706L11.59 153.571H9.325V152.266H14.665V151.666H10.72V150.406H14.665V149.851H9.745V148.546H12.22C12.07 148.156 11.86 147.706 11.635 147.361L13.27 146.956C13.6 147.406 13.915 148.036 14.065 148.471L13.81 148.546H17.17L17.095 148.531C17.35 148.066 17.68 147.406 17.83 146.941L19.705 147.226C19.42 147.736 19.165 148.186 18.925 148.546H21.52V149.851H16.495V150.406H20.56V151.666H16.495V152.266H21.97V153.571H19.915L20.425 153.646C20.155 154.126 19.93 154.531 19.72 154.846ZM11.485 165.986L13.06 166.601C12.115 167.891 10.72 169.346 9.475 170.261C9.25 169.901 8.815 169.271 8.545 168.956C9.61 168.206 10.855 166.961 11.485 165.986ZM11.755 169.181L13.315 169.766C12.985 170.366 12.595 170.981 12.175 171.581V180.011H10.51V173.591C10.12 174.011 9.73 174.371 9.34 174.701C9.175 174.311 8.695 173.411 8.41 173.036C9.655 172.091 10.975 170.636 11.755 169.181ZM16.135 175.061L16.12 175.076C16.51 175.616 17.02 176.096 17.605 176.531C18.175 176.096 18.655 175.616 19.045 175.061H16.135ZM20.26 173.666L21.37 174.161C20.86 175.481 20.065 176.546 19.09 177.401C20.17 177.911 21.43 178.286 22.825 178.496C22.45 178.871 21.985 179.561 21.76 180.026C20.17 179.711 18.79 179.186 17.62 178.451C16.375 179.186 14.92 179.711 13.375 180.056C13.21 179.606 12.835 178.901 12.52 178.541C13.855 178.316 15.115 177.926 16.21 177.371C15.775 176.981 15.37 176.546 15.025 176.066C14.575 176.411 14.125 176.726 13.675 176.996C13.435 176.651 12.865 175.991 12.52 175.676C13.795 175.031 15.025 174.041 15.865 172.901L12.865 172.991L12.715 171.416C13.39 171.416 14.17 171.416 15.025 171.401C15.235 171.221 15.46 171.026 15.67 170.831C14.98 170.126 13.93 169.286 13.03 168.701L14.095 167.546C14.35 167.711 14.635 167.891 14.92 168.086C15.505 167.411 16.135 166.586 16.525 165.926L18.07 166.721C17.425 167.486 16.69 168.296 16.06 168.926C16.375 169.181 16.675 169.436 16.915 169.676C17.83 168.791 18.685 167.846 19.33 167.021L20.905 167.891C19.825 169.031 18.49 170.306 17.23 171.371L19.915 171.326C19.675 170.981 19.42 170.666 19.165 170.366L20.545 169.601C21.415 170.576 22.405 171.926 22.825 172.886L21.325 173.726C21.205 173.441 21.04 173.096 20.83 172.736C19.84 172.781 18.82 172.811 17.845 172.841C17.665 173.141 17.47 173.441 17.26 173.726H19.975L20.26 173.666Z" fill="#227BC0"/>
<path d="M0.625 0.244171H30.625L15.625 15.2442L0.625 0.244171Z" fill="#EAEAEC"/>
</svg>
