<svg width="31" height="244" viewBox="0 0 31 244" fill="none" xmlns="http://www.w3.org/2000/svg">
<rect width="30" height="242.863" transform="translate(0.625 0.797852)" fill="#EBF4FB"/>
<path d="M19.675 101.329H17.29C17.59 102.754 17.995 104.059 18.565 105.214C19.09 104.119 19.45 102.829 19.675 101.329ZM22.63 101.329H21.52C21.145 103.594 20.545 105.439 19.645 106.954C20.47 108.019 21.535 108.874 22.87 109.414C22.45 109.774 21.895 110.494 21.64 111.004C20.35 110.389 19.33 109.549 18.49 108.499C17.5 109.579 16.255 110.434 14.68 111.094C14.485 110.689 13.945 109.894 13.6 109.504C15.28 108.904 16.525 108.079 17.47 106.954C16.9 105.904 16.465 104.719 16.105 103.414C15.895 103.759 15.67 104.059 15.43 104.344C15.25 104.164 14.905 103.909 14.575 103.669V104.209H12.85V103.714H10.795V106.669C10.795 107.194 10.885 107.269 11.425 107.269H12.955C13.405 107.269 13.495 107.059 13.555 105.694C13.915 105.964 14.665 106.264 15.145 106.369C14.935 108.409 14.47 108.934 13.12 108.934H11.17C9.535 108.934 9.055 108.454 9.055 106.684V102.094H12.85V99.8145H9.07V98.1645H14.575V102.289C15.52 100.909 16.18 99.0195 16.555 97.0395L18.415 97.3695C18.25 98.1495 18.055 98.9145 17.815 99.6495H22.63V101.329ZM18.61 127.184H12.625V128.204H18.61V127.184ZM10.87 130.034V125.819H20.44V129.989H18.61V129.569H12.625V130.034H10.87ZM14.665 122.624H12.745C12.985 122.999 13.21 123.464 13.3 123.779L12.835 123.899H14.665V122.624ZM18.52 122.624H16.495V123.899H18.595L17.95 123.794C18.13 123.464 18.355 122.999 18.52 122.624ZM19.72 123.899H22.42V125.264H8.845V123.899H11.5C11.365 123.524 11.155 123.104 10.945 122.759L11.59 122.624H9.325V121.319H14.665V120.719H10.72V119.459H14.665V118.904H9.745V117.599H12.22C12.07 117.209 11.86 116.759 11.635 116.414L13.27 116.009C13.6 116.459 13.915 117.089 14.065 117.524L13.81 117.599H17.17L17.095 117.584C17.35 117.119 17.68 116.459 17.83 115.994L19.705 116.279C19.42 116.789 19.165 117.239 18.925 117.599H21.52V118.904H16.495V119.459H20.56V120.719H16.495V121.319H21.97V122.624H19.915L20.425 122.699C20.155 123.179 19.93 123.584 19.72 123.899ZM11.485 135.039L13.06 135.654C12.115 136.944 10.72 138.399 9.475 139.314C9.25 138.954 8.815 138.324 8.545 138.009C9.61 137.259 10.855 136.014 11.485 135.039ZM11.755 138.234L13.315 138.819C12.985 139.419 12.595 140.034 12.175 140.634V149.064H10.51V142.644C10.12 143.064 9.73 143.424 9.34 143.754C9.175 143.364 8.695 142.464 8.41 142.089C9.655 141.144 10.975 139.689 11.755 138.234ZM16.135 144.114L16.12 144.129C16.51 144.669 17.02 145.149 17.605 145.584C18.175 145.149 18.655 144.669 19.045 144.114H16.135ZM20.26 142.719L21.37 143.214C20.86 144.534 20.065 145.599 19.09 146.454C20.17 146.964 21.43 147.339 22.825 147.549C22.45 147.924 21.985 148.614 21.76 149.079C20.17 148.764 18.79 148.239 17.62 147.504C16.375 148.239 14.92 148.764 13.375 149.109C13.21 148.659 12.835 147.954 12.52 147.594C13.855 147.369 15.115 146.979 16.21 146.424C15.775 146.034 15.37 145.599 15.025 145.119C14.575 145.464 14.125 145.779 13.675 146.049C13.435 145.704 12.865 145.044 12.52 144.729C13.795 144.084 15.025 143.094 15.865 141.954L12.865 142.044L12.715 140.469C13.39 140.469 14.17 140.469 15.025 140.454C15.235 140.274 15.46 140.079 15.67 139.884C14.98 139.179 13.93 138.339 13.03 137.754L14.095 136.599C14.35 136.764 14.635 136.944 14.92 137.139C15.505 136.464 16.135 135.639 16.525 134.979L18.07 135.774C17.425 136.539 16.69 137.349 16.06 137.979C16.375 138.234 16.675 138.489 16.915 138.729C17.83 137.844 18.685 136.899 19.33 136.074L20.905 136.944C19.825 138.084 18.49 139.359 17.23 140.424L19.915 140.379C19.675 140.034 19.42 139.719 19.165 139.419L20.545 138.654C21.415 139.629 22.405 140.979 22.825 141.939L21.325 142.779C21.205 142.494 21.04 142.149 20.83 141.789C19.84 141.834 18.82 141.864 17.845 141.894C17.665 142.194 17.47 142.494 17.26 142.779H19.975L20.26 142.719Z" fill="#227BC0"/>
<path d="M0.625 0.797852H30.625L15.625 15.7979L0.625 0.797852Z" fill="#EAEAEC"/>
</svg>
