<svg width="31" height="311" viewBox="0 0 31 311" fill="none" xmlns="http://www.w3.org/2000/svg">
<rect width="30" height="309.687" transform="translate(0.625 0.937988)" fill="#EAEAEC"/>
<path d="M19.675 134.882H17.29C17.59 136.307 17.995 137.612 18.565 138.767C19.09 137.672 19.45 136.382 19.675 134.882ZM22.63 134.882H21.52C21.145 137.147 20.545 138.992 19.645 140.507C20.47 141.572 21.535 142.427 22.87 142.967C22.45 143.327 21.895 144.047 21.64 144.557C20.35 143.942 19.33 143.102 18.49 142.052C17.5 143.132 16.255 143.987 14.68 144.647C14.485 144.242 13.945 143.447 13.6 143.057C15.28 142.457 16.525 141.632 17.47 140.507C16.9 139.457 16.465 138.272 16.105 136.967C15.895 137.312 15.67 137.612 15.43 137.897C15.25 137.717 14.905 137.462 14.575 137.222V137.762H12.85V137.267H10.795V140.222C10.795 140.747 10.885 140.822 11.425 140.822H12.955C13.405 140.822 13.495 140.612 13.555 139.247C13.915 139.517 14.665 139.817 15.145 139.922C14.935 141.962 14.47 142.487 13.12 142.487H11.17C9.535 142.487 9.055 142.007 9.055 140.237V135.647H12.85V133.367H9.07V131.717H14.575V135.842C15.52 134.462 16.18 132.572 16.555 130.592L18.415 130.922C18.25 131.702 18.055 132.467 17.815 133.202H22.63V134.882ZM18.61 160.737H12.625V161.757H18.61V160.737ZM10.87 163.587V159.372H20.44V163.542H18.61V163.122H12.625V163.587H10.87ZM14.665 156.177H12.745C12.985 156.552 13.21 157.017 13.3 157.332L12.835 157.452H14.665V156.177ZM18.52 156.177H16.495V157.452H18.595L17.95 157.347C18.13 157.017 18.355 156.552 18.52 156.177ZM19.72 157.452H22.42V158.817H8.845V157.452H11.5C11.365 157.077 11.155 156.657 10.945 156.312L11.59 156.177H9.325V154.872H14.665V154.272H10.72V153.012H14.665V152.457H9.745V151.152H12.22C12.07 150.762 11.86 150.312 11.635 149.967L13.27 149.562C13.6 150.012 13.915 150.642 14.065 151.077L13.81 151.152H17.17L17.095 151.137C17.35 150.672 17.68 150.012 17.83 149.547L19.705 149.832C19.42 150.342 19.165 150.792 18.925 151.152H21.52V152.457H16.495V153.012H20.56V154.272H16.495V154.872H21.97V156.177H19.915L20.425 156.252C20.155 156.732 19.93 157.137 19.72 157.452ZM11.35 178.162H13.855V177.187H11.35V178.162ZM13.855 174.937H11.35V175.867H13.855V174.937ZM15.58 173.437V180.817C15.58 181.582 15.43 182.002 14.92 182.257C14.44 182.512 13.75 182.542 12.835 182.542C12.745 182.092 12.49 181.432 12.265 181.027C12.82 181.057 13.42 181.057 13.615 181.042C13.795 181.042 13.855 180.982 13.855 180.802V179.467H11.35V182.497H9.655V173.437H15.58ZM19.855 180.592V173.167H21.61V180.622C21.61 181.507 21.445 181.942 20.845 182.227C20.275 182.497 19.465 182.542 18.385 182.527C18.295 182.047 18.01 181.312 17.74 180.847C18.505 180.877 19.285 180.877 19.54 180.862C19.78 180.862 19.855 180.802 19.855 180.592ZM18.505 173.587V179.707H16.87V173.587H18.505ZM19.36 170.797H22.405V172.402H8.83V170.797H12.025C11.755 170.287 11.32 169.642 10.9 169.147L12.595 168.562C13.135 169.132 13.735 169.942 13.99 170.512L13.165 170.797H17.335C17.785 170.107 18.265 169.222 18.565 168.532L20.5 169.102C20.14 169.687 19.735 170.272 19.36 170.797Z" fill="#666668"/>
</svg>
