<svg width="31" height="249" viewBox="0 0 31 249" fill="none" xmlns="http://www.w3.org/2000/svg">
<rect width="30" height="247.86" transform="translate(0.625 0.937988)" fill="#EAEAEC"/>
<path d="M19.675 103.968H17.29C17.59 105.393 17.995 106.698 18.565 107.853C19.09 106.758 19.45 105.468 19.675 103.968ZM22.63 103.968H21.52C21.145 106.233 20.545 108.078 19.645 109.593C20.47 110.658 21.535 111.513 22.87 112.053C22.45 112.413 21.895 113.133 21.64 113.643C20.35 113.028 19.33 112.188 18.49 111.138C17.5 112.218 16.255 113.073 14.68 113.733C14.485 113.328 13.945 112.533 13.6 112.143C15.28 111.543 16.525 110.718 17.47 109.593C16.9 108.543 16.465 107.358 16.105 106.053C15.895 106.398 15.67 106.698 15.43 106.983C15.25 106.803 14.905 106.548 14.575 106.308V106.848H12.85V106.353H10.795V109.308C10.795 109.833 10.885 109.908 11.425 109.908H12.955C13.405 109.908 13.495 109.698 13.555 108.333C13.915 108.603 14.665 108.903 15.145 109.008C14.935 111.048 14.47 111.573 13.12 111.573H11.17C9.535 111.573 9.055 111.093 9.055 109.323V104.733H12.85V102.453H9.07V100.803H14.575V104.928C15.52 103.548 16.18 101.658 16.555 99.6779L18.415 100.008C18.25 100.788 18.055 101.553 17.815 102.288H22.63V103.968ZM18.61 129.823H12.625V130.843H18.61V129.823ZM10.87 132.673V128.458H20.44V132.628H18.61V132.208H12.625V132.673H10.87ZM14.665 125.263H12.745C12.985 125.638 13.21 126.103 13.3 126.418L12.835 126.538H14.665V125.263ZM18.52 125.263H16.495V126.538H18.595L17.95 126.433C18.13 126.103 18.355 125.638 18.52 125.263ZM19.72 126.538H22.42V127.903H8.845V126.538H11.5C11.365 126.163 11.155 125.743 10.945 125.398L11.59 125.263H9.325V123.958H14.665V123.358H10.72V122.098H14.665V121.543H9.745V120.238H12.22C12.07 119.848 11.86 119.398 11.635 119.053L13.27 118.648C13.6 119.098 13.915 119.728 14.065 120.163L13.81 120.238H17.17L17.095 120.223C17.35 119.758 17.68 119.098 17.83 118.633L19.705 118.918C19.42 119.428 19.165 119.878 18.925 120.238H21.52V121.543H16.495V122.098H20.56V123.358H16.495V123.958H21.97V125.263H19.915L20.425 125.338C20.155 125.818 19.93 126.223 19.72 126.538ZM11.35 147.248H13.855V146.273H11.35V147.248ZM13.855 144.023H11.35V144.953H13.855V144.023ZM15.58 142.523V149.903C15.58 150.668 15.43 151.088 14.92 151.343C14.44 151.598 13.75 151.628 12.835 151.628C12.745 151.178 12.49 150.518 12.265 150.113C12.82 150.143 13.42 150.143 13.615 150.128C13.795 150.128 13.855 150.068 13.855 149.888V148.553H11.35V151.583H9.655V142.523H15.58ZM19.855 149.678V142.253H21.61V149.708C21.61 150.593 21.445 151.028 20.845 151.313C20.275 151.583 19.465 151.628 18.385 151.613C18.295 151.133 18.01 150.398 17.74 149.933C18.505 149.963 19.285 149.963 19.54 149.948C19.78 149.948 19.855 149.888 19.855 149.678ZM18.505 142.673V148.793H16.87V142.673H18.505ZM19.36 139.883H22.405V141.488H8.83V139.883H12.025C11.755 139.373 11.32 138.728 10.9 138.233L12.595 137.648C13.135 138.218 13.735 139.028 13.99 139.598L13.165 139.883H17.335C17.785 139.193 18.265 138.308 18.565 137.618L20.5 138.188C20.14 138.773 19.735 139.358 19.36 139.883Z" fill="#666668"/>
</svg>
