<svg width="49" height="49" viewBox="0 0 49 49" fill="none" xmlns="http://www.w3.org/2000/svg">
<path d="M23.9668 8.30106C23.507 7.82417 22.9887 7.58573 22.4097 7.58573C21.7381 7.58573 21.1785 7.83634 20.7333 8.33269C20.288 8.82904 20.0642 9.44947 20.0642 10.1964C20.0642 10.958 20.2856 11.5906 20.7333 12.0967C21.181 12.5955 21.7503 12.8436 22.4389 12.8436C22.9839 12.8436 23.4924 12.6222 23.9668 12.1794V12.7001H25.1226V7.72441H23.9668V8.30106ZM23.6432 11.3765C23.3805 11.6709 23.0374 11.8169 22.6116 11.8169C22.215 11.8169 21.8841 11.666 21.6213 11.3619C21.3659 11.0626 21.2393 10.6733 21.2393 10.1964C21.2393 9.75118 21.3683 9.37648 21.6311 9.06991C21.8963 8.77064 22.2272 8.61979 22.6213 8.61979C23.0398 8.61979 23.3805 8.76821 23.6432 9.06505C23.906 9.36918 24.0374 9.75361 24.0374 10.2208C24.0374 10.6879 23.906 11.0723 23.6432 11.3765ZM34.7211 12.8461C34.979 12.8461 35.2199 12.8169 35.4413 12.7633C35.6627 12.7098 35.8695 12.6222 36.0593 12.5054C36.2491 12.3886 36.4267 12.2378 36.5946 12.0553C36.76 11.8728 36.9182 11.6539 37.069 11.3984L36.0982 10.8558C35.8646 11.2232 35.6554 11.4762 35.4705 11.6125C35.2831 11.7487 35.0471 11.8169 34.76 11.8169C34.3902 11.8169 34.0909 11.6976 33.8549 11.4592C33.6189 11.2183 33.4875 10.8923 33.4559 10.4835H37.0228L37.0301 10.2183C37.0301 9.39595 36.8209 8.75361 36.3975 8.29132C35.9717 7.82417 35.3926 7.59059 34.6603 7.59059C33.9352 7.59059 33.3537 7.83147 32.9133 8.31079C32.4778 8.79741 32.2588 9.43488 32.2588 10.2208C32.2588 11.0139 32.4827 11.6514 32.9328 12.1307C33.3829 12.6076 33.979 12.8461 34.7211 12.8461ZM33.6968 9.16237C33.7673 9.04801 33.8549 8.95312 33.9547 8.87283C34.0544 8.79254 34.1664 8.72928 34.288 8.68792C34.4121 8.64655 34.5435 8.62466 34.6822 8.62466C35.2953 8.62466 35.6822 8.93123 35.8427 9.54436H33.5337C33.5702 9.40324 33.6262 9.27672 33.6968 9.16237ZM28.8646 11.8169C28.67 11.8169 28.5021 11.7512 28.3634 11.6222C28.2929 11.5565 28.1882 11.4057 28.052 11.1672L27.0715 11.6222C27.4194 12.4373 28.0106 12.8436 28.8452 12.8436C29.3318 12.8436 29.7479 12.6903 30.0909 12.3838C30.4437 12.0602 30.6213 11.6563 30.6213 11.177C30.6213 10.8023 30.5167 10.5054 30.305 10.284C30.0934 10.0626 29.6846 9.82174 29.0739 9.55896C28.6311 9.37161 28.4097 9.18183 28.4097 8.99205C28.4097 8.88256 28.4462 8.79497 28.5216 8.72441C28.5946 8.65385 28.687 8.61979 28.7917 8.61979C29.0131 8.61979 29.198 8.77308 29.3488 9.07964L30.3002 8.57356C29.9912 7.91663 29.5167 7.58816 28.8792 7.58816C28.4462 7.58816 28.0788 7.72928 27.7746 8.01152C27.4778 8.29376 27.3294 8.65142 27.3294 9.08451C27.3294 9.41298 27.417 9.68062 27.5897 9.88743C27.726 10.0529 27.962 10.2159 28.2953 10.3789C28.4145 10.4373 28.5313 10.4933 28.6481 10.5468C28.7649 10.6003 28.8792 10.6563 28.996 10.7147C29.2953 10.8923 29.4462 11.0821 29.4462 11.2865C29.4462 11.6393 29.2539 11.8169 28.8646 11.8169ZM14.6627 16.8096C10.1372 16.8096 6.125 19.3667 6.125 25.1502V36.3619C6.125 41.9872 10.1396 44.6611 14.6627 44.6611C19.1858 44.6611 23.2004 41.9872 23.198 36.3594V25.1088C23.198 19.3667 19.1858 16.8096 14.6627 16.8096ZM18.6359 36.0869C18.6359 38.9993 17.1007 40.6903 14.6627 40.6903C12.1858 40.6903 10.6505 38.9969 10.6505 36.0869V25.3862C10.6505 22.4738 12.1834 20.7828 14.6627 20.7828C17.1031 20.7828 18.6359 22.4738 18.6359 25.3862V36.0869ZM39.2101 32.7001C40.9401 30.6149 43.3002 27.9409 43.3002 24.5176C43.3002 19.9531 39.7211 16.8071 35.0788 16.8071C30.5946 16.8071 26.8963 19.8363 26.8963 24.4397H31.0715C31.1882 22.0018 32.8014 20.7025 34.9255 20.7025C36.9303 20.7025 38.7795 21.9604 38.7795 24.4397C38.7795 26.3278 37.7965 28.0967 36.0252 30.1429L26.7016 41.0796V44.3059H43.1055V40.3716H32.799L39.2101 32.7001ZM16.0325 12.8436C16.7819 12.8436 17.4973 12.6514 18.1785 12.267V10.8315C17.9839 10.9945 17.799 11.1332 17.6238 11.25C17.4486 11.3643 17.2783 11.4568 17.1153 11.5249C16.8209 11.6612 16.4656 11.7293 16.0471 11.7293C15.2369 11.7293 14.5532 11.4446 13.9936 10.8753C13.4364 10.3059 13.1566 9.60762 13.1566 8.78037C13.1566 7.94339 13.434 7.23536 13.9936 6.65629C14.5484 6.07478 15.2321 5.78281 16.0423 5.78281C16.7795 5.78281 17.49 6.06991 18.1785 6.64656V5.2378C17.5192 4.85337 16.833 4.65872 16.125 4.66116C14.8282 4.66116 13.7698 5.14291 12.9522 6.10641C12.288 6.8923 11.9571 7.78767 11.9571 8.79254C11.9571 9.91419 12.3537 10.8704 13.1469 11.6636C13.9425 12.4495 14.906 12.8436 16.0325 12.8436Z" fill="#227BC0"/>
</svg>
