<svg width="49" height="49" viewBox="0 0 49 49" fill="none" xmlns="http://www.w3.org/2000/svg">
<path d="M23.9668 7.0242C23.507 6.54731 22.9887 6.30887 22.4097 6.30887C21.7381 6.30887 21.1785 6.55948 20.7333 7.05583C20.288 7.55218 20.0642 8.17262 20.0642 8.91958C20.0642 9.68113 20.2856 10.3137 20.7333 10.8198C21.181 11.3186 21.7503 11.5668 22.4389 11.5668C22.9839 11.5668 23.4924 11.3454 23.9668 10.9025V11.4232H25.1226V6.44756H23.9668V7.0242ZM23.6432 10.0996C23.3805 10.394 23.0374 10.54 22.6116 10.54C22.215 10.54 21.8841 10.3892 21.6213 10.085C21.3659 9.78576 21.2393 9.39646 21.2393 8.91958C21.2393 8.47432 21.3683 8.09963 21.6311 7.79306C21.8963 7.49379 22.2272 7.34293 22.6213 7.34293C23.0398 7.34293 23.3805 7.49135 23.6432 7.78819C23.906 8.09233 24.0374 8.47675 24.0374 8.94391C24.0374 9.41106 23.906 9.79549 23.6432 10.0996ZM34.7211 11.5692C34.979 11.5692 35.2199 11.54 35.4413 11.4865C35.6627 11.433 35.8695 11.3454 36.0593 11.2286C36.2491 11.1118 36.4267 10.9609 36.5946 10.7785C36.76 10.596 36.9182 10.377 37.069 10.1215L36.0982 9.57894C35.8646 9.94634 35.6554 10.1994 35.4705 10.3356C35.2831 10.4719 35.0471 10.54 34.76 10.54C34.3902 10.54 34.0909 10.4208 33.8549 10.1823C33.6189 9.94147 33.4875 9.61544 33.4559 9.20668H37.0228L37.0301 8.94147C37.0301 8.11909 36.8208 7.47676 36.3975 7.01447C35.9717 6.54732 35.3926 6.31374 34.6603 6.31374C33.9352 6.31374 33.3537 6.55461 32.9133 7.03393C32.4778 7.52055 32.2588 8.15802 32.2588 8.94391C32.2588 9.73709 32.4826 10.3746 32.9328 10.8539C33.3829 11.3308 33.979 11.5692 34.7211 11.5692ZM33.6968 7.88551C33.7673 7.77116 33.8549 7.67627 33.9547 7.59598C34.0544 7.51568 34.1663 7.45242 34.288 7.41106C34.4121 7.3697 34.5435 7.3478 34.6822 7.3478C35.2953 7.3478 35.6822 7.65437 35.8427 8.26751H33.5337C33.5702 8.12639 33.6262 7.99987 33.6968 7.88551ZM28.8646 10.54C28.67 10.54 28.5021 10.4743 28.3634 10.3454C28.2929 10.2797 28.1882 10.1288 28.052 9.89038L27.0715 10.3454C27.4194 11.1605 28.0106 11.5668 28.8452 11.5668C29.3318 11.5668 29.7479 11.4135 30.0909 11.1069C30.4437 10.7833 30.6213 10.3794 30.6213 9.90011C30.6213 9.52542 30.5167 9.22858 30.305 9.00717C30.0934 8.78576 29.6846 8.54488 29.0739 8.28211C28.6311 8.09476 28.4097 7.90498 28.4097 7.7152C28.4097 7.60571 28.4462 7.51812 28.5216 7.44756C28.5946 7.377 28.687 7.34293 28.7917 7.34293C29.0131 7.34293 29.198 7.49622 29.3488 7.80279L30.3002 7.29671C29.9912 6.63977 29.5167 6.31131 28.8792 6.31131C28.4462 6.31131 28.0788 6.45242 27.7746 6.73466C27.4778 7.0169 27.3294 7.37456 27.3294 7.80765C27.3294 8.13612 27.417 8.40376 27.5897 8.61057C27.726 8.77602 27.962 8.93904 28.2953 9.10206C28.4145 9.16045 28.5313 9.21641 28.6481 9.26994C28.7649 9.32347 28.8792 9.37943 28.996 9.43782C29.2953 9.61544 29.4461 9.80522 29.4461 10.0096C29.4461 10.3624 29.2539 10.54 28.8646 10.54ZM16.0325 11.5668C16.7819 11.5668 17.4973 11.3746 18.1785 10.9901V9.55461C17.9839 9.71763 17.799 9.85632 17.6238 9.9731C17.4486 10.0875 17.2783 10.1799 17.1153 10.248C16.8209 10.3843 16.4656 10.4524 16.0471 10.4524C15.2369 10.4524 14.5532 10.1678 13.9936 9.59841C13.4364 9.02907 13.1566 8.33077 13.1566 7.50352C13.1566 6.66654 13.434 5.95851 13.9936 5.37943C14.5484 4.79792 15.232 4.50595 16.0423 4.50595C16.7795 4.50595 17.49 4.79306 18.1785 5.3697V3.96094C17.5192 3.57651 16.833 3.38187 16.125 3.3843C14.8282 3.3843 13.7698 3.86605 12.9522 4.82955C12.288 5.61544 11.9571 6.51082 11.9571 7.51568C11.9571 8.63734 12.3537 9.59354 13.1469 10.3867C13.9425 11.1726 14.906 11.5668 16.0325 11.5668ZM14.6627 15.5327C10.1372 15.5327 6.125 18.0899 6.125 23.8733V35.085C6.125 40.7103 10.1396 43.3843 14.6627 43.3843C19.1858 43.3843 23.2004 40.7103 23.198 35.0826V23.832C23.198 18.0899 19.1858 15.5327 14.6627 15.5327ZM18.6359 34.8101C18.6359 37.7225 17.1007 39.4135 14.6627 39.4135C12.1858 39.4135 10.6505 37.72 10.6505 34.8101V24.1093C10.6505 21.1969 12.1834 19.5059 14.6627 19.5059C17.1031 19.5059 18.6359 21.1969 18.6359 24.1093V34.8101ZM39.3294 28.9463C41.4534 27.8831 43.1834 25.8393 43.1834 22.8879C43.1834 18.7979 39.7211 15.5327 34.962 15.5327C30.5946 15.5327 26.8963 18.4038 26.7795 22.7711H30.9498C31.1444 20.8831 32.6019 19.4281 34.8038 19.4281C37.125 19.4281 38.6603 21.0412 38.6603 23.0072C38.6603 25.5643 37.125 27.0583 34.2929 27.0583H32.4072V30.9926H34.2953C37.4413 30.9926 39.0544 32.6446 39.0544 35.3989C39.0544 37.6811 37.4413 39.411 35.0812 39.411C32.288 39.411 30.9109 37.9147 30.597 35.9488H26.4267C26.6627 40.2383 29.7698 43.3843 35.2783 43.3843C40.5094 43.3843 43.5775 39.8028 43.5775 35.5157C43.5775 32.1726 41.8087 30.0485 39.3294 28.9463Z" fill="#227BC0"/>
</svg>
