<svg width="95" height="31" viewBox="0 0 95 31" fill="none" xmlns="http://www.w3.org/2000/svg">
<path d="M17.0606 1.7152C15.8233 0.477133 13.8198 0.475885 12.5801 1.70897V11.141L26.5037 11.1659L17.0606 1.7152Z" fill="#4C4948"/>
<path d="M11.0503 3.2373L1.5548 12.7391C0.315067 13.9797 0.315067 15.9895 1.5548 17.2301L11.0503 26.7319V3.2373Z" fill="#12B3C7"/>
<path d="M12.5791 28.2618C13.8188 29.4949 15.8223 29.4937 17.0596 28.2556L22.1456 23.1662V12.7218L12.5791 12.6707V28.2618Z" fill="#4C4948"/>
<path d="M23.667 21.643L28.0765 17.2306C29.3162 15.9901 29.3162 13.9802 28.0765 12.7397L28.0565 12.7197H23.667V21.643Z" fill="#4C4948"/>
<path d="M70.9539 27.6174C71.0324 27.6174 71.0885 27.6934 71.066 27.7683C70.9402 28.2121 70.7271 28.56 70.4269 28.8093C70.083 29.0849 69.6768 29.222 69.2071 29.222C68.7822 29.212 68.4283 29.1048 68.1443 28.9003C67.8552 28.7034 67.6459 28.4764 67.515 28.2183C67.4752 28.1336 67.439 28.0538 67.4079 27.9777C67.378 27.8992 67.3531 27.7994 67.3344 27.6797C67.297 27.4553 67.2783 27.0239 67.2783 26.3856C67.2783 25.7372 67.297 25.3033 67.3344 25.0839C67.3743 24.8645 67.4341 24.6874 67.5163 24.5515C67.6471 24.2934 67.8577 24.064 68.1468 23.862C68.4308 23.6576 68.7859 23.5528 69.2108 23.5479C69.7316 23.5528 70.1565 23.7124 70.4854 24.0254C70.7782 24.3072 70.9751 24.65 71.076 25.0515C71.0947 25.1263 71.0386 25.1986 70.9626 25.1986H70.3247C70.2786 25.1986 70.23 25.1625 70.2138 25.1188C70.144 24.9281 70.0306 24.7635 69.8774 24.6238C69.6942 24.473 69.4712 24.3944 69.2096 24.3894C69.0164 24.3944 68.8507 24.4343 68.7124 24.5079C68.5716 24.5852 68.457 24.6799 68.371 24.7959C68.2651 24.9156 68.1941 25.0714 68.1592 25.2597C68.1193 25.4592 68.0994 25.8345 68.0994 26.3831C68.0994 26.9329 68.1193 27.3044 68.1592 27.4989C68.1941 27.6934 68.2639 27.8505 68.371 27.9702C68.4582 28.0849 68.5716 28.1785 68.7124 28.2508C68.8507 28.3355 69.0164 28.3779 69.2096 28.3779C69.6494 28.3779 69.9833 28.1448 70.2113 27.6797C70.2312 27.6398 70.2699 27.6149 70.3135 27.6149H70.9539V27.6174Z" fill="#4C4948"/>
<path d="M63.0426 23.5957H66.2622C66.3257 23.5957 66.3781 23.6481 66.3781 23.7117V24.2752C66.3781 24.3388 66.3257 24.3912 66.2622 24.3912H63.7441V25.9883H65.6305C65.694 25.9883 65.7464 26.0407 65.7464 26.1043V26.6217C65.7464 26.6853 65.694 26.7376 65.6305 26.7376H63.7441V28.3809H66.2622C66.3257 28.3809 66.3781 28.4333 66.3781 28.4969V29.0604C66.3781 29.124 66.3257 29.1764 66.2622 29.1764H63.0426C62.9791 29.1764 62.9268 29.124 62.9268 29.0604V23.7104C62.9268 23.6481 62.9791 23.5957 63.0426 23.5957Z" fill="#4C4948"/>
<path d="M81.6896 25.1538C81.2634 25.1538 80.9196 25.3109 80.6567 25.6251H80.6417V25.3246C80.6417 25.2585 80.5881 25.2037 80.5208 25.2037H79.9627C79.8966 25.2037 79.8418 25.2573 79.8418 25.3246V29.0563C79.8418 29.1224 79.8954 29.1772 79.9627 29.1772H80.5208C80.5869 29.1772 80.6417 29.1236 80.6417 29.0563V26.7846C80.6467 26.4941 80.7314 26.2834 80.8946 26.1525C81.0404 26.0203 81.2149 25.953 81.4192 25.953C81.5675 25.953 81.712 25.9979 81.8528 26.0877C81.9051 26.1213 81.9736 26.1151 82.0148 26.0677L82.4434 25.5565C82.4882 25.5042 82.4807 25.4219 82.4247 25.3832C82.2091 25.2348 81.9649 25.1575 81.6896 25.1538Z" fill="#4C4948"/>
<path d="M86.0124 26.2211C85.9464 26.0017 85.8293 25.7972 85.6835 25.6426C85.5365 25.4942 85.4231 25.4144 85.2325 25.3097C85.0381 25.2099 84.7852 25.1576 84.4712 25.1526C84.1684 25.1576 83.9192 25.2099 83.7249 25.3097C83.528 25.4144 83.3747 25.5329 83.2663 25.6663C83.1181 25.8171 83.0084 26.0017 82.9374 26.2211C82.8689 26.4455 82.834 26.7672 82.834 27.1861C82.834 27.605 82.8689 27.923 82.9374 28.1436C83.0084 28.3631 83.1181 28.5526 83.2663 28.7134C83.376 28.8381 83.5292 28.9503 83.7249 29.0501C83.918 29.1598 84.1672 29.2171 84.4712 29.2221C84.7852 29.2171 85.0393 29.1598 85.2325 29.0501C85.3371 29.0039 85.4218 28.9491 85.4891 28.8855C85.5626 28.8294 85.6249 28.772 85.676 28.7134C85.8343 28.5526 85.9464 28.3618 86.0124 28.1436C86.076 27.9242 86.1084 27.605 86.1084 27.1861C86.1084 26.7672 86.076 26.4468 86.0124 26.2211ZM85.2698 27.7908C85.2449 27.9205 85.1926 28.0352 85.1128 28.1349C85.0543 28.211 84.9671 28.2795 84.8524 28.3381C84.7428 28.3943 84.6157 28.4229 84.4699 28.4229C84.3354 28.4229 84.2095 28.3955 84.0949 28.3381C83.9853 28.2795 83.8955 28.2122 83.827 28.1349C83.7585 28.0352 83.7087 27.9205 83.6775 27.7908C83.6476 27.6636 83.6314 27.4617 83.6314 27.1861C83.6314 26.9081 83.6464 26.7036 83.6775 26.5739C83.7087 26.4493 83.7585 26.3395 83.827 26.2448C83.8955 26.155 83.9853 26.0852 84.0949 26.0341C84.2095 25.9805 84.3341 25.9543 84.4699 25.9543C84.6157 25.9543 84.7428 25.9805 84.8524 26.0341C84.9671 26.0852 85.0543 26.155 85.1128 26.2448C85.1913 26.3395 85.2437 26.4493 85.2698 26.5739C85.2948 26.7036 85.3085 26.9106 85.3085 27.1936C85.3085 27.4641 85.296 27.6636 85.2698 27.7908Z" fill="#4C4948"/>
<path d="M90.0751 25.2036H89.5194C89.4521 25.2036 89.3973 25.2585 89.3973 25.3258V27.57C89.3973 27.8381 89.3238 28.0476 89.1755 28.1984C89.0297 28.3493 88.8428 28.4241 88.6136 28.4241C88.3843 28.4241 88.1949 28.3493 88.0479 28.1984C87.8971 28.0476 87.8224 27.8381 87.8224 27.57V25.3258C87.8224 25.2585 87.7675 25.2036 87.7003 25.2036H87.1446C87.0773 25.2036 87.0225 25.2585 87.0225 25.3258V27.8456C87.0274 28.2944 87.1745 28.6335 87.4623 28.8642C87.7277 29.0986 88.0242 29.2183 88.3531 29.2245C88.7768 29.2245 89.1194 29.0674 89.3823 28.7532H89.3973V29.0562C89.3973 29.1235 89.4521 29.1784 89.5194 29.1784H90.0751C90.1424 29.1784 90.1972 29.1235 90.1972 29.0562V25.3258C90.1959 25.2585 90.1411 25.2036 90.0751 25.2036Z" fill="#4C4948"/>
<path d="M76.777 26.2235V26.7845C76.777 26.8494 76.8294 26.9017 76.8942 26.9017H77.8797V27.1935C77.8747 27.5438 77.7688 27.8269 77.5608 28.0425C77.3527 28.2682 77.0898 28.3804 76.7696 28.3804C76.5764 28.3804 76.4107 28.338 76.2724 28.2533C76.1316 28.1822 76.017 28.0887 75.931 27.9727C75.8251 27.853 75.7541 27.6947 75.7192 27.5014C75.6794 27.3069 75.6594 26.9354 75.6594 26.3856C75.6594 25.8357 75.6794 25.4617 75.7192 25.2622C75.7541 25.0727 75.8239 24.9181 75.931 24.7984C76.017 24.6837 76.1316 24.5877 76.2724 24.5104C76.4107 24.4368 76.5764 24.3969 76.7696 24.3919C77.0312 24.3969 77.2542 24.4755 77.4374 24.6263C77.5919 24.766 77.704 24.9318 77.7738 25.1226C77.79 25.1662 77.8386 25.2023 77.8847 25.2023H78.5226C78.5986 25.2023 78.6547 25.13 78.636 25.0552C78.5363 24.6525 78.3395 24.3096 78.0454 24.0266C77.7165 23.7124 77.2929 23.5528 76.7708 23.5479C76.3459 23.5528 75.9921 23.6576 75.708 23.862C75.4189 24.064 75.2096 24.2934 75.0788 24.5515C74.9978 24.6874 74.9368 24.8645 74.8969 25.0839C74.8595 25.3033 74.8408 25.7372 74.8408 26.3856C74.8408 27.0239 74.8595 27.4553 74.8969 27.6797C74.9168 27.7994 74.9417 27.8992 74.9716 27.9777C75.004 28.0538 75.0389 28.1348 75.0788 28.2183C75.2096 28.4764 75.4189 28.7034 75.708 28.9003C75.9921 29.1048 76.3459 29.212 76.7708 29.222C77.3215 29.212 77.7776 29.02 78.1414 28.6448C78.5015 28.267 78.6871 27.7994 78.6971 27.2421V26.2235C78.6971 26.1586 78.6447 26.1063 78.5799 26.1063H76.8942C76.8294 26.1075 76.777 26.1599 76.777 26.2235Z" fill="#4C4948"/>
<path d="M41.196 23.5957H41.7816C41.8464 23.5957 41.8975 23.6481 41.8975 23.7117V29.0604C41.8975 29.124 41.8451 29.1764 41.7816 29.1764H41.196C41.1312 29.1764 41.0801 29.124 41.0801 29.0604V23.7117C41.0789 23.6481 41.1312 23.5957 41.196 23.5957Z" fill="#4C4948"/>
<path d="M50.7331 23.5957H51.3187C51.3835 23.5957 51.4345 23.6481 51.4345 23.7117V29.0604C51.4345 29.124 51.3822 29.1764 51.3187 29.1764H50.7331C50.6683 29.1764 50.6172 29.124 50.6172 29.0604V23.7117C50.6172 23.6481 50.6695 23.5957 50.7331 23.5957Z" fill="#4C4948"/>
<path d="M52.9333 23.5957H53.5226C53.5625 23.5957 53.6011 23.6169 53.6223 23.6506L56.0494 27.563V23.7129C56.0494 23.6481 56.1018 23.5957 56.1666 23.5957H56.7509C56.8157 23.5957 56.868 23.6481 56.868 23.7129V29.0604C56.868 29.1252 56.8157 29.1776 56.7509 29.1776H56.1578C56.1167 29.1776 56.0793 29.1564 56.0582 29.1227L53.6348 25.2103V29.0604C53.6348 29.1252 53.5824 29.1776 53.5176 29.1776H52.9345C52.8697 29.1776 52.8174 29.1252 52.8174 29.0604V23.7129C52.8162 23.6481 52.8697 23.5957 52.9333 23.5957Z" fill="#4C4948"/>
<path d="M37.5811 24.3463H36.2155C36.1519 24.3463 36.0996 24.2939 36.0996 24.2303V23.7117C36.0996 23.6481 36.1507 23.5957 36.2155 23.5957H39.7652C39.8288 23.5957 39.8811 23.6481 39.8811 23.7117V24.2303C39.8811 24.2939 39.8288 24.3463 39.7652 24.3463H38.3997V29.0617C38.3997 29.1252 38.3486 29.1776 38.2838 29.1776H37.6969C37.6334 29.1776 37.5811 29.1265 37.5811 29.0617V24.3463Z" fill="#4C4948"/>
<path d="M59.4912 24.3463H58.1256C58.0621 24.3463 58.0098 24.2939 58.0098 24.2303V23.7117C58.0098 23.6481 58.0621 23.5957 58.1256 23.5957H61.6754C61.7389 23.5957 61.7913 23.6481 61.7913 23.7117V24.2303C61.7913 24.2939 61.7389 24.3463 61.6754 24.3463H60.3098V29.0617C60.3098 29.1252 60.2575 29.1776 60.1939 29.1776H59.6071C59.5435 29.1776 59.4912 29.1265 59.4912 29.0617V24.3463Z" fill="#4C4948"/>
<path d="M46.5164 27.5136C46.5164 27.9824 46.342 28.3826 45.9919 28.7168C45.6417 29.0497 45.2219 29.2168 44.7297 29.2168C44.1765 29.2168 43.7018 29.0285 43.3068 28.6507C43.2383 28.5846 43.2358 28.521 43.3006 28.4587L43.7093 28.0684C43.7404 28.0398 43.7728 28.0248 43.8077 28.0248C43.8463 28.0248 43.8812 28.0398 43.9111 28.0684C44.1379 28.2841 44.4107 28.3926 44.7297 28.3926C44.9826 28.3926 45.2007 28.3066 45.3813 28.1345C45.562 27.9625 45.6517 27.7555 45.6517 27.5136C45.6517 27.2568 45.5632 27.0635 45.3863 26.9314C45.2667 26.8404 45.0536 26.7506 44.7471 26.6621C44.2861 26.5299 43.9422 26.3728 43.7155 26.1895C43.3741 25.9152 43.2021 25.5412 43.2021 25.0687C43.2021 24.6373 43.3629 24.2682 43.6831 23.9615C44.0033 23.656 44.3908 23.5027 44.8443 23.5027C45.3975 23.5027 45.8722 23.691 46.2672 24.0687C46.3357 24.1348 46.3382 24.1984 46.2734 24.2607L45.8648 24.651C45.8336 24.6809 45.8 24.6946 45.7614 24.6946C45.7265 24.6946 45.6941 24.6797 45.6629 24.651C45.4362 24.4353 45.1633 24.3268 44.8443 24.3268C44.6288 24.3268 44.4456 24.3991 44.2936 24.5438C44.1416 24.6884 44.0656 24.8629 44.0656 25.0687C44.0656 25.3317 44.1765 25.53 44.3995 25.6621C44.5067 25.7282 44.7621 25.818 45.1658 25.9314C46.0666 26.1883 46.5164 26.7144 46.5164 27.5136Z" fill="#4C4948"/>
<path d="M94.4734 26.4929C94.4734 25.751 93.8541 25.1538 93.1115 25.1538C92.7552 25.1538 92.4312 25.2922 92.1908 25.5191C92.1571 25.5503 92.126 25.5827 92.0948 25.6176V25.3022C92.0948 25.2448 92.0487 25.1987 91.9914 25.1987H91.4008C91.3423 25.1987 91.2949 25.2461 91.2949 25.3047V30.6746C91.2949 30.7357 91.3448 30.7856 91.4058 30.7856H91.9902C92.0487 30.7856 92.0961 30.7382 92.0961 30.6796V28.7583C92.2767 28.974 92.5359 29.1323 92.8349 29.1959C92.9259 29.2184 93.0218 29.2296 93.1228 29.2296C93.3707 29.2246 93.5825 29.1747 93.7582 29.08C93.9202 28.9964 94.0535 28.8892 94.1581 28.7558C94.1743 28.7359 94.1905 28.7159 94.2055 28.6947C94.3077 28.5675 94.3774 28.4055 94.4173 28.211C94.4559 28.0065 94.4746 27.6698 94.4746 27.1986C94.4734 26.8881 94.4796 26.6649 94.4734 26.4929ZM93.6747 27.4105C93.6747 28.2446 93.3221 28.4266 92.8873 28.4266C92.4524 28.4266 92.0998 28.1972 92.0998 27.3482L92.0973 27.0714C92.0973 26.1862 92.4524 25.9555 92.8873 25.9555C93.2548 25.9555 93.5651 26.0577 93.651 26.6325C93.6573 26.6649 93.6623 26.6986 93.666 26.7335C93.666 26.7497 93.6672 26.7659 93.6672 26.7834C93.6722 26.8494 93.6747 26.9193 93.6747 26.9953V27.4105Z" fill="#4C4948"/>
<path d="M36.4923 1.36279H46.3354C46.5297 1.36279 46.688 1.52114 46.688 1.71564V3.44245C46.688 3.63695 46.5297 3.79529 46.3354 3.79529H38.6391V8.68023H44.4029C44.5972 8.68023 44.7555 8.83857 44.7555 9.03307V10.6178C44.7555 10.8123 44.5972 10.9706 44.4029 10.9706H38.6391V18.0686C38.6391 18.2631 38.4808 18.4214 38.2864 18.4214H36.4923C36.2979 18.4214 36.1397 18.2631 36.1397 18.0686V1.71564C36.1384 1.52114 36.2966 1.36279 36.4923 1.36279Z" fill="#4C4948"/>
<path d="M69.9295 13.271C69.9295 14.2485 70.2111 14.9903 70.773 15.4977C71.2963 16.0139 71.9828 16.272 72.8351 16.272C73.7359 16.272 74.5508 15.9466 75.2772 15.2945C75.403 15.1811 75.5911 15.1711 75.7207 15.282L76.9904 16.368C77.1374 16.4939 77.1499 16.7221 77.0115 16.858C75.8254 18.0138 74.4486 18.5848 72.8824 18.5698C72.242 18.5698 71.6178 18.4763 71.0085 18.2881C70.7045 18.1871 70.4067 18.0499 70.1176 17.8779C69.8136 17.7295 69.5283 17.5462 69.2629 17.3268C68.7471 16.8742 68.3297 16.2408 68.0095 15.4279C67.6581 14.6462 67.4824 13.6313 67.4824 12.3808C67.4824 11.1776 67.6344 10.1777 67.9397 9.37972C68.2437 8.56681 68.6349 7.92596 69.1109 7.45716C69.5956 6.98088 70.1376 6.63677 70.7394 6.42606C71.3324 6.21535 71.9181 6.10938 72.4962 6.10938C73.8867 6.12558 75.0616 6.58191 76.0223 7.48085C76.9991 8.396 77.4937 9.65401 77.5099 11.2549V12.9381C77.5099 13.1226 77.3604 13.271 77.1773 13.271H69.9295ZM75.0591 11.2549C75.028 10.3098 74.7738 9.59417 74.2978 9.11041C73.8294 8.6491 73.2276 8.41969 72.4937 8.41969C71.7598 8.41969 71.158 8.65034 70.6895 9.11041C70.2285 9.59541 69.9756 10.3098 69.9282 11.2549H75.0591Z" fill="#4C4948"/>
<path d="M50.0749 1.33276H51.8578C52.041 1.33276 52.1905 1.48238 52.1905 1.66566V3.44982C52.1905 3.6331 52.041 3.78272 51.8578 3.78272H50.0749C49.8917 3.78272 49.7422 3.6331 49.7422 3.44982V1.66566C49.7422 1.48113 49.8905 1.33276 50.0749 1.33276ZM50.0749 6.25511H51.8578C52.041 6.25511 52.1905 6.40473 52.1905 6.58801V18.0897C52.1905 18.273 52.041 18.4226 51.8578 18.4226H50.0749C49.8917 18.4226 49.7422 18.273 49.7422 18.0897V6.58801C49.7422 6.40473 49.8905 6.25511 50.0749 6.25511Z" fill="#4C4948"/>
<path d="M81.0504 1.33276H82.8334C83.0166 1.33276 83.1661 1.48238 83.1661 1.66566V15.2819C83.1661 15.8367 83.4701 16.1135 84.0794 16.1135H84.5902C84.7734 16.1135 84.9229 16.2631 84.9229 16.4464V18.0897C84.9229 18.273 84.7734 18.4226 84.5902 18.4226H83.8339C82.9431 18.4226 82.2092 18.2007 81.6311 17.7543C81.0218 17.3017 80.7178 16.5387 80.7178 15.4689V1.66566C80.7178 1.48113 80.8673 1.33276 81.0504 1.33276Z" fill="#4C4948"/>
<path d="M55.7141 6.25515H57.8335C57.9493 6.25515 58.0565 6.315 58.1175 6.4135L60.4325 10.1925L62.76 6.41225C62.8211 6.31375 62.9282 6.25391 63.0428 6.25391H65.1622C65.4288 6.25391 65.5871 6.55064 65.4388 6.77257L61.8031 12.2086L65.6045 17.9027C65.7528 18.1234 65.5933 18.4201 65.3279 18.4201H63.216C63.1026 18.4201 62.9967 18.3628 62.9357 18.2668L60.4338 14.3643L57.9431 18.2668C57.8821 18.3628 57.7761 18.4201 57.6628 18.4201H55.5396C55.273 18.4201 55.1148 18.1234 55.263 17.9015L59.0744 12.2074L55.4387 6.77133C55.2905 6.55189 55.4487 6.25515 55.7141 6.25515Z" fill="#4C4948"/>
</svg>
