<svg width="49" height="49" viewBox="0 0 49 49" fill="none" xmlns="http://www.w3.org/2000/svg">
<rect x="0.822266" y="0.551514" width="48" height="48" rx="24" fill="#227BC0"/>
<path d="M16.9023 34.8875C13.2783 34.8875 10.8783 31.7195 10.8783 25.5995C10.8783 19.4555 13.2783 16.4555 16.9023 16.4555C20.5263 16.4555 22.9023 19.4795 22.9023 25.5995C22.9023 31.7195 20.5263 34.8875 16.9023 34.8875ZM16.9023 32.1275C18.4383 32.1275 19.5663 30.5915 19.5663 25.5995C19.5663 20.6315 18.4383 19.1915 16.9023 19.1915C15.3663 19.1915 14.2143 20.6315 14.2143 25.5995C14.2143 30.5915 15.3663 32.1275 16.9023 32.1275ZM25.9471 34.5515V32.5115C30.7711 28.1915 33.6271 24.8555 33.6271 22.1195C33.6271 20.3195 32.6671 19.2395 30.9631 19.2395C29.6671 19.2395 28.6111 20.0795 27.6991 21.0635L25.7791 19.1435C27.4111 17.3915 28.9951 16.4555 31.4191 16.4555C34.7791 16.4555 37.0111 18.6155 37.0111 21.9275C37.0111 25.1435 34.3471 28.5995 31.1071 31.7675C31.9951 31.6715 33.1711 31.5755 34.0111 31.5755H37.8511V34.5515H25.9471Z" fill="white"/>
</svg>
