<svg width="49" height="49" viewBox="0 0 49 49" fill="none" xmlns="http://www.w3.org/2000/svg">
<rect x="0.322266" y="0.551514" width="48" height="48" rx="24" fill="#227BC0"/>
<path d="M16.4023 34.8875C12.7783 34.8875 10.3783 31.7195 10.3783 25.5995C10.3783 19.4555 12.7783 16.4555 16.4023 16.4555C20.0263 16.4555 22.4023 19.4795 22.4023 25.5995C22.4023 31.7195 20.0263 34.8875 16.4023 34.8875ZM16.4023 32.1275C17.9383 32.1275 19.0663 30.5915 19.0663 25.5995C19.0663 20.6315 17.9383 19.1915 16.4023 19.1915C14.8663 19.1915 13.7143 20.6315 13.7143 25.5995C13.7143 30.5915 14.8663 32.1275 16.4023 32.1275ZM26.3831 34.5515V31.6955H30.1991V20.4635H26.9831V18.2795C28.7591 17.9435 29.9831 17.4875 31.1111 16.7675H33.7271V31.6955H37.0631V34.5515H26.3831Z" fill="white"/>
</svg>
