<svg width="49" height="49" viewBox="0 0 49 49" fill="none" xmlns="http://www.w3.org/2000/svg">
<rect x="0.322266" y="0.551514" width="48" height="48" rx="24" fill="#227BC0"/>
<path d="M16.4023 34.8875C12.7783 34.8875 10.3783 31.7195 10.3783 25.5995C10.3783 19.4555 12.7783 16.4555 16.4023 16.4555C20.0263 16.4555 22.4023 19.4795 22.4023 25.5995C22.4023 31.7195 20.0263 34.8875 16.4023 34.8875ZM16.4023 32.1275C17.9383 32.1275 19.0663 30.5915 19.0663 25.5995C19.0663 20.6315 17.9383 19.1915 16.4023 19.1915C14.8663 19.1915 13.7143 20.6315 13.7143 25.5995C13.7143 30.5915 14.8663 32.1275 16.4023 32.1275ZM30.9911 34.8875C28.1831 34.8875 26.2871 33.8315 25.0391 32.4155L26.6951 30.1835C27.7511 31.2155 29.0471 32.0075 30.6551 32.0075C32.4551 32.0075 33.6791 31.1195 33.6791 29.5115C33.6791 27.7835 32.6471 26.6795 28.7831 26.6795V24.1595C32.0471 24.1595 33.1031 23.0315 33.1031 21.4475C33.1031 20.0555 32.2391 19.2395 30.7271 19.2395C29.4551 19.2395 28.4231 19.8155 27.3671 20.7995L25.5671 18.6395C27.1031 17.2955 28.8071 16.4555 30.8951 16.4555C34.3271 16.4555 36.6551 18.1595 36.6551 21.1835C36.6551 23.1035 35.5751 24.4955 33.7031 25.2395V25.3595C35.6951 25.9115 37.2311 27.3995 37.2311 29.7275C37.2311 32.9915 34.3751 34.8875 30.9911 34.8875Z" fill="white"/>
</svg>
