<svg width="49" height="49" viewBox="0 0 49 49" fill="none" xmlns="http://www.w3.org/2000/svg">
<rect x="0.125" y="0.236572" width="48" height="48" rx="24" fill="#2587CA"/>
<path d="M16.205 35.0726C12.581 35.0726 10.181 31.9046 10.181 25.7846C10.181 19.6406 12.581 16.6406 16.205 16.6406C19.829 16.6406 22.205 19.6646 22.205 25.7846C22.205 31.9046 19.829 35.0726 16.205 35.0726ZM16.205 32.3126C17.741 32.3126 18.869 30.7766 18.869 25.7846C18.869 20.8166 17.741 19.3766 16.205 19.3766C14.669 19.3766 13.517 20.8166 13.517 25.7846C13.517 30.7766 14.669 32.3126 16.205 32.3126ZM26.1858 34.7366V31.8806H30.0018V20.6486H26.7858V18.4646C28.5618 18.1286 29.7858 17.6726 30.9138 16.9526H33.5298V31.8806H36.8658V34.7366H26.1858Z" fill="white"/>
</svg>
